<svg width="24" height="24" viewBox="0 0 24 24" fill="none" xmlns="http://www.w3.org/2000/svg">
<g clip-path="url(#clip0)">
<path d="M21.3333 3.33333H2.66667C2.53 3.33333 2.39534 3.34333 2.264 3.36333L2.26134 4.53267L0.441336 4.53C0.152768 4.96589 -0.000754695 5.47725 2.78961e-06 6V18C2.78961e-06 18.7072 0.280954 19.3855 0.781051 19.8856C1.28115 20.3857 1.95943 20.6667 2.66667 20.6667H21.3333C22.0406 20.6667 22.7189 20.3857 23.219 19.8856C23.7191 19.3855 24 18.7072 24 18V6C24 5.29276 23.7191 4.61448 23.219 4.11438C22.7189 3.61429 22.0406 3.33333 21.3333 3.33333V3.33333Z" fill="#00247D"/>
<path d="M6.00001 17.3487L5.18534 18.1013L5.26601 16.9947L4.16934 16.8273L5.08468 16.2007L4.53201 15.2387L5.59268 15.564L6.00001 14.5313L6.40801 15.564L7.46868 15.2387L6.91534 16.2007L7.83134 16.8273L6.73468 16.9947L6.81534 18.1013L6.00001 17.3487ZM18.6333 6.37467L18.1007 6.86667L18.1533 6.14267L17.4353 6.03333L18.0347 5.62333L17.6733 4.994L18.3667 5.20667L18.6333 4.53133L18.9007 5.20667L19.5947 4.994L19.2327 5.62333L19.8313 6.03333L19.114 6.14267L19.1667 6.86667L18.6333 6.37467ZM15.9667 10.3747L15.434 10.8673L15.4867 10.1433L14.7687 10.034L15.368 9.62333L15.0067 8.994L15.7 9.20667L15.9667 8.53133L16.234 9.20667L16.928 8.994L16.566 9.62333L17.1647 10.034L16.4473 10.1433L16.5 10.8673L15.9667 10.3747ZM21.9667 9.04133L21.434 9.534L21.4867 8.81L20.7687 8.70067L21.368 8.29L21.0067 7.66067L21.7 7.87333L21.9667 7.198L22.234 7.87333L22.928 7.66067L22.566 8.29L23.1647 8.70067L22.4473 8.81L22.5 9.534L21.9667 9.04133ZM18.6333 18.3747L18.1007 18.8673L18.1533 18.1433L17.4353 18.034L18.0347 17.6233L17.6733 16.994L18.3667 17.2067L18.6333 16.5313L18.9007 17.2067L19.5947 16.994L19.2327 17.6233L19.8313 18.034L19.114 18.1433L19.1667 18.8673L18.6333 18.3747ZM20.6667 10.6667L20.8627 11.064L21.3007 11.1273L20.984 11.436L21.0587 11.8727L20.6667 11.6667L20.2747 11.8727L20.3493 11.436L20.0327 11.1273L20.4707 11.064L20.6667 10.6667Z" fill="white"/>
<path d="M12.6667 12V3.33333H2.66667C2.45334 3.33333 2.264 3.36333 2.264 3.36333L2.26134 4.53267L0.441335 4.53C0.441335 4.53 0.413335 4.56933 0.356669 4.66667C0.122477 5.07196 -0.00055763 5.53191 1.89995e-06 6V12H12.6667Z" fill="#00247D"/>
<path d="M12.6667 3.33333H11.1127L8 5.51267V3.33333H4.66667V5.046L2.264 3.36333C1.86323 3.4232 1.48174 3.57493 1.14933 3.80667L4.284 6H3.12667L0.644667 4.26067C0.571472 4.34622 0.503567 4.43617 0.441333 4.53L2.542 6H0V9.33333H2.59L0 11.1773V12H2.22133L4.66667 10.288V12H8V9.82067L11.112 12H12.6667V10.6473L10.79 9.33333H12.6667V6H10.7907L12.6667 4.686V3.33333Z" fill="#EEEEEE"/>
<path d="M7.33333 3.33333H5.33333V6.66667H0V8.66667H5.33333V12H7.33333V8.66667H12.6667V6.66667H7.33333V3.33333Z" fill="#CF1B2B"/>
<path d="M12.6667 3.33333H11.6927L7.99998 5.91933V6H9.04732L12.6667 3.46533V3.33333ZM1.14932 3.80667C0.962676 3.93618 0.793115 4.08872 0.644652 4.26067L3.12665 6H4.28332L1.14932 3.80667V3.80667ZM4.29132 9.33333L0.489319 12H1.64065L4.66665 9.88133V9.33333H4.29132ZM12.6667 11.868V11.0547L10.2087 9.33333H9.04665L12.6667 11.868Z" fill="#CF1B2B"/>
</g>
<defs>
<clipPath id="clip0">
<rect width="24" height="24" fill="white"/>
</clipPath>
</defs>
</svg>
