<svg width="24" height="24" viewBox="0 0 24 24" fill="none" xmlns="http://www.w3.org/2000/svg">
<g clip-path="url(#clip0)">
<path d="M0 8.93333H24V15.0667H0V8.93333Z" fill="#EEEEEE"/>
<path d="M21.3333 4.02667H2.66667C1.95942 4.02667 1.28115 4.28514 0.781049 4.74523C0.280952 5.20532 0 5.82934 0 6.48L0 8.93333H24V6.48C24 5.82934 23.719 5.20532 23.219 4.74523C22.7189 4.28514 22.0406 4.02667 21.3333 4.02667V4.02667ZM2.66667 19.9733H21.3333C22.0406 19.9733 22.7189 19.7149 23.219 19.2548C23.719 18.7947 24 18.1707 24 17.52V15.0667H0V17.52C0 18.1707 0.280952 18.7947 0.781049 19.2548C1.28115 19.7149 1.95942 19.9733 2.66667 19.9733Z" fill="#ED2939"/>
</g>
<defs>
<clipPath id="clip0">
<rect width="24" height="24" fill="white"/>
</clipPath>
</defs>
</svg>
