<svg width="24" height="24" viewBox="0 0 24 24" fill="none" xmlns="http://www.w3.org/2000/svg">
<mask id="mask0" mask-type="alpha" maskUnits="userSpaceOnUse" x="0" y="3" width="24" height="18">
<path d="M2.66667 3.33334H21.3333C22.0406 3.33334 22.7189 3.6143 23.219 4.11439C23.719 4.61449 24 5.29277 24 6.00001V18C24 18.7072 23.719 19.3855 23.219 19.8856C22.7189 20.3857 22.0406 20.6667 21.3333 20.6667H2.66667C1.95942 20.6667 1.28115 20.3857 0.781049 19.8856C0.280952 19.3855 0 18.7072 0 18V6.00001C0 5.29277 0.280952 4.61449 0.781049 4.11439C1.28115 3.6143 1.95942 3.33334 2.66667 3.33334Z" fill="#808A9B"/>
</mask>
<g mask="url(#mask0)">
<path d="M6 3H0V21H6V3Z" fill="#EA0020"/>
<path d="M24 3H18V21H24V3Z" fill="#EA0020"/>
<path d="M18 3H6V21H18V3Z" fill="#EEEEEE"/>
<path d="M12.0105 6.72543L11.135 8.38537C11.033 8.56888 10.863 8.5522 10.6845 8.44376L10.0555 8.1101L10.523 10.6626C10.625 11.1297 10.302 11.1297 10.149 10.9295L9.04395 9.66995L8.86545 10.3122C8.84844 10.3956 8.75494 10.4874 8.61894 10.4624L7.22494 10.1621L7.59044 11.5217C7.66694 11.822 7.72644 11.9471 7.51394 12.0306L7.02094 12.2725L9.41795 14.2661C9.51145 14.3411 9.56245 14.4746 9.52845 14.5997L9.31595 15.3004C10.1405 15.2003 10.88 15.1169 11.7045 15.0168C11.781 15.0168 11.9 15.0835 11.9 15.1669L11.7895 17.7444H12.189L12.1295 15.1669C12.1295 15.0835 12.24 15.0084 12.3165 15.0084C13.141 15.1085 13.8805 15.1919 14.705 15.292L14.4925 14.5914C14.4585 14.4662 14.5095 14.3328 14.603 14.2577L17 12.2641L16.507 12.0222C16.286 11.9388 16.354 11.8137 16.4305 11.5134L16.796 10.1537L15.402 10.454C15.266 10.4791 15.1725 10.3873 15.1555 10.3039L14.977 9.6616L13.872 10.9212C13.719 11.1213 13.396 11.1213 13.498 10.6542L13.9655 8.10176L13.3365 8.43542C13.158 8.53552 12.9795 8.5522 12.886 8.37703L12.0105 6.72543Z" fill="#EA0020"/>
</g>
</svg>
