<svg width="24" height="24" viewBox="0 0 24 24" fill="none" xmlns="http://www.w3.org/2000/svg">
<mask id="mask0" mask-type="alpha" maskUnits="userSpaceOnUse" x="0" y="3" width="24" height="18">
<path d="M2.66667 3.33334H21.3333C22.0406 3.33334 22.7189 3.6143 23.219 4.11439C23.719 4.61449 24 5.29277 24 6.00001V18C24 18.7072 23.719 19.3855 23.219 19.8856C22.7189 20.3857 22.0406 20.6667 21.3333 20.6667H2.66667C1.95942 20.6667 1.28115 20.3857 0.781049 19.8856C0.280952 19.3855 0 18.7072 0 18V6.00001C0 5.29277 0.280952 4.61449 0.781049 4.11439C1.28115 3.6143 1.95942 3.33334 2.66667 3.33334Z" fill="#808A9B"/>
</mask>
<g mask="url(#mask0)">
<path d="M24 3H0V21H24V3Z" fill="#CB1D23"/>
<path d="M11.5639 12.234C9.95962 11.5979 9.21281 9.77234 9.84898 8.19575C10.3469 6.92341 11.6469 6.14894 13.0022 6.25958C12.5043 6.50851 12.1724 7.11702 12.5873 7.72553C13.0298 8.41702 12.7809 9.57872 11.8958 9.99362C11.2043 10.3255 10.6511 11.4043 11.5639 12.234Z" fill="white"/>
<path d="M11.2873 8.99787L11.6745 8.11277L10.8171 8.61064L11.7852 8.69362L11.066 8.05745L11.2873 8.99787Z" fill="#CB1D23"/>
<path d="M11.5638 12.2064C10.4021 11.5149 10.3468 9.91064 10.9276 9.05319L10.8723 8.99787C10.3191 9.8 10.2361 11.5149 11.5361 12.2894L11.5638 12.2064Z" fill="#CB1D23"/>
<path d="M11.5638 12.2341C11.6745 10.5192 13.1681 9.21916 14.883 9.35746C16.2383 9.44044 17.4 10.4362 17.7043 11.7638C17.317 11.3489 16.6255 11.2383 16.183 11.8192C15.6574 12.4553 14.4957 12.5936 13.8319 11.8745C13.2787 11.3213 12.0617 11.1 11.5638 12.2341Z" fill="white"/>
<path d="M14.5511 10.9617L15.5192 11.0723L14.8001 10.4362L14.9937 11.3766L15.3809 10.4915L14.5511 10.9617Z" fill="#CB1D23"/>
<path d="M11.5916 12.234C11.8958 10.9064 13.3894 10.3809 14.4128 10.6575L14.4405 10.5745C13.5001 10.2979 11.8405 10.7681 11.5086 12.2064L11.5916 12.234Z" fill="#CB1D23"/>
<path d="M11.5639 12.234C10.4575 13.5617 8.49365 13.7277 7.19365 12.6213C6.14259 11.7362 5.78301 10.2979 6.33621 9.02553C6.41918 9.57872 6.8894 10.0766 7.60855 9.88297C8.41067 9.6617 9.43408 10.2702 9.54472 11.2383C9.6277 11.9851 10.4851 12.8425 11.5639 12.234Z" fill="white"/>
<path d="M8.38297 11.5149L7.66382 10.8511L7.85744 11.8192L8.27233 10.9064L7.41489 11.4043L8.38297 11.5149Z" fill="#CB1D23"/>
<path d="M11.5085 12.2064C10.4851 13.0915 8.96382 12.6489 8.29999 11.8192L8.24467 11.8745C8.82553 12.6766 10.4574 13.2575 11.5638 12.2617L11.5085 12.2064Z" fill="#CB1D23"/>
<path d="M11.5638 12.234C13.2234 11.8191 14.9106 12.8425 15.3255 14.5021C15.6574 15.8298 15.0766 17.2128 13.9149 17.9042C14.1638 17.4064 14.0808 16.7149 13.3894 16.4659C12.6149 16.1894 12.1447 15.083 12.6149 14.2255C12.9745 13.5894 12.7808 12.3723 11.5638 12.234Z" fill="white"/>
<path d="M13.6937 14.6957L13.8873 15.6362L14.2745 14.7511L13.4447 15.2489L14.4128 15.3319L13.6937 14.6957Z" fill="#CB1D23"/>
<path d="M11.5638 12.2894C12.9191 12.1787 13.8872 13.4234 13.9426 14.4745H14.0255C13.9979 13.4787 13.0574 12.0681 11.5638 12.2064V12.2894Z" fill="#CB1D23"/>
<path d="M11.5638 12.234C12.4766 13.7 12.0341 15.6085 10.5681 16.5213C9.4064 17.2404 7.91278 17.1298 6.88937 16.2447C7.44257 16.3277 8.05108 16.0511 8.1064 15.3043C8.13406 14.4745 9.01916 13.7 9.98725 13.866C10.7064 14.0043 11.8128 13.4511 11.5638 12.234Z" fill="white"/>
<path d="M9.87669 15.0277L9.04691 15.5255L10.015 15.6085L9.26818 14.9723L9.48946 15.9128L9.87669 15.0277Z" fill="#CB1D23"/>
<path d="M11.5086 12.2617C12.0341 13.5064 11.149 14.834 10.1533 15.1936L10.1809 15.2766C11.1214 14.9447 12.1724 13.617 11.5639 12.234L11.5086 12.2617Z" fill="#CB1D23"/>
<path d="M11.5638 12.0957C11.6468 12.0957 11.7021 12.1511 11.7021 12.234C11.7021 12.317 11.6468 12.3723 11.5638 12.3723C11.4808 12.3723 11.4255 12.317 11.4255 12.234C11.4255 12.1787 11.4808 12.0957 11.5638 12.0957Z" fill="#CB1D23"/>
</g>
</svg>
