<svg width="24" height="24" viewBox="0 0 24 24" fill="none" xmlns="http://www.w3.org/2000/svg">
<mask id="mask0" mask-type="alpha" maskUnits="userSpaceOnUse" x="0" y="3" width="24" height="18">
<path d="M2.66667 3.33334H21.3333C22.0406 3.33334 22.7189 3.6143 23.219 4.11439C23.719 4.61449 24 5.29277 24 6.00001V18C24 18.7072 23.719 19.3855 23.219 19.8856C22.7189 20.3857 22.0406 20.6667 21.3333 20.6667H2.66667C1.95942 20.6667 1.28115 20.3857 0.781049 19.8856C0.280952 19.3855 0 18.7072 0 18V6.00001C0 5.29277 0.280952 4.61449 0.781049 4.11439C1.28115 3.6143 1.95942 3.33334 2.66667 3.33334Z" fill="#808A9B"/>
</mask>
<g mask="url(#mask0)">
<rect y="2" width="24" height="7" fill="#E98D31"/>
<rect y="9" width="24" height="6" fill="#EEEEEE"/>
<rect y="15" width="24" height="7" fill="#137C09"/>
<path d="M12.0402 9.35999C10.6054 9.35999 9.44019 10.5252 9.44019 11.96C9.44019 13.3947 10.6054 14.56 12.0402 14.56C13.4749 14.56 14.6402 13.3947 14.6402 11.96C14.6402 10.5173 13.4749 9.35999 12.0402 9.35999ZM12.0402 9.60572L11.9768 10.9136L12.0481 11.6588L12.1195 10.9136L12.0402 9.60572C12.1115 9.60572 12.1829 9.60572 12.2463 9.61364C12.2463 9.62157 12.2463 9.62157 12.2463 9.62157C12.2463 9.68499 12.2938 9.73255 12.3573 9.73255C12.4128 9.73255 12.4524 9.69291 12.4603 9.63742C12.5237 9.64535 12.5871 9.66121 12.6506 9.67706L12.2463 10.9216L12.1195 11.6588L12.381 10.9612L12.6506 9.68499C12.714 9.70084 12.7774 9.71669 12.8408 9.74047C12.8329 9.75633 12.8329 9.76425 12.8329 9.78011C12.8329 9.8356 12.8804 9.89108 12.9438 9.89108C12.9914 9.89108 13.0231 9.8673 13.039 9.82767C13.1024 9.85145 13.1579 9.88316 13.2134 9.91486L12.4999 11.0167L12.1908 11.6984L12.6268 11.088L13.2213 9.92279C13.2768 9.9545 13.3323 9.99413 13.3878 10.0258C13.3719 10.0417 13.364 10.0655 13.364 10.0893C13.364 10.1447 13.4115 10.2002 13.4749 10.2002C13.5067 10.2002 13.5384 10.1844 13.5621 10.1606C13.6097 10.2002 13.6573 10.2478 13.7048 10.2954L12.7378 11.1673L12.2621 11.746L12.8408 11.2704L13.7128 10.3033C13.7603 10.3508 13.7999 10.3984 13.8475 10.446C13.8237 10.4618 13.8079 10.4935 13.8079 10.5332C13.8079 10.5886 13.8554 10.6441 13.9189 10.6441C13.9426 10.6441 13.9664 10.6362 13.9823 10.6204C14.0219 10.6758 14.0536 10.7313 14.0853 10.7868L12.9201 11.3813L12.3097 11.8173L12.9914 11.5082L14.0853 10.7947C14.117 10.8582 14.1487 10.9136 14.1804 10.9771C14.1408 10.9929 14.117 11.0325 14.117 11.0801C14.117 11.1356 14.1646 11.1911 14.228 11.1911C14.2439 11.1911 14.2597 11.1911 14.2676 11.1832C14.2914 11.2386 14.3073 11.3021 14.3231 11.3575L13.0469 11.635L12.3493 11.8966L13.0865 11.7697L14.331 11.3655C14.3469 11.4289 14.3628 11.4923 14.3707 11.5557C14.3152 11.5636 14.2756 11.6112 14.2756 11.6588C14.2756 11.7143 14.3231 11.7697 14.3865 11.7697C14.3945 11.7697 14.3945 11.7697 14.3945 11.7697C14.4024 11.8332 14.4024 11.8966 14.4024 11.9679L13.0945 11.9045L12.3493 11.9758L13.0945 12.0472L14.4024 11.9838C14.4024 12.0472 14.4024 12.1185 14.3945 12.1819H14.3865C14.331 12.1819 14.2756 12.2295 14.2756 12.2929C14.2756 12.3484 14.3152 12.388 14.3707 12.396C14.3628 12.4594 14.3469 12.5228 14.331 12.5862L13.8871 12.4435L13.0865 12.1819L12.3493 12.0551L13.0469 12.3167L14.3231 12.5941C14.3073 12.6576 14.2835 12.721 14.2676 12.7844C14.2597 12.7844 14.2597 12.7844 14.2518 12.7765C14.2439 12.7765 14.2359 12.7765 14.228 12.7765C14.1725 12.7765 14.117 12.824 14.117 12.8874C14.117 12.9033 14.117 12.9191 14.1249 12.9271C14.1329 12.9429 14.1408 12.9588 14.1567 12.9667C14.1567 12.9667 14.1646 12.9667 14.1646 12.9746L14.1725 12.9826C14.1725 12.9826 14.1804 12.9826 14.1804 12.9905C14.1487 13.0539 14.1249 13.1094 14.0932 13.1649L12.9756 12.4118L12.2938 12.1027L12.6506 12.3563L12.9042 12.5386L14.0695 13.1332C14.0378 13.1886 13.9981 13.2441 13.9585 13.2996C13.9426 13.2838 13.9189 13.2838 13.8951 13.2838C13.8396 13.2838 13.7841 13.3313 13.7841 13.3947C13.7841 13.4265 13.7999 13.4582 13.8237 13.474C13.7841 13.5216 13.7365 13.5691 13.6969 13.6167L12.8249 12.6496L12.2542 12.174L12.7298 12.7447L13.6969 13.6167C13.6493 13.6643 13.6018 13.7039 13.5542 13.7435C13.5384 13.7277 13.5146 13.7197 13.4829 13.7197C13.4274 13.7197 13.3719 13.7673 13.3719 13.8307C13.3719 13.8466 13.3719 13.8624 13.3798 13.8783C13.3243 13.9179 13.2688 13.9576 13.2054 13.9893L12.6109 12.8319L12.1749 12.2216L12.4841 12.9033L13.1896 13.9972C13.1341 14.0289 13.0786 14.0606 13.0152 14.0844C12.9993 14.0447 12.9597 14.021 12.9201 14.021C12.8646 14.021 12.8091 14.0685 12.8091 14.1319C12.8091 14.1478 12.8091 14.1557 12.817 14.1716C12.7536 14.1954 12.6902 14.2112 12.6268 14.235L12.3573 12.9588L12.0957 12.2612L12.2225 12.9984L12.6268 14.2429C12.5634 14.2588 12.4999 14.2746 12.4365 14.2826C12.4286 14.2271 12.381 14.1874 12.3335 14.1874C12.278 14.1874 12.2225 14.235 12.2225 14.2984V14.3063C12.1591 14.3143 12.0957 14.3143 12.0243 14.3143L12.0878 13.0143L12.0164 12.2691L11.9451 13.0143L12.0085 14.3143C11.9371 14.3143 11.8737 14.3143 11.8103 14.3063V14.2984C11.8103 14.2429 11.7627 14.1874 11.6993 14.1874C11.6438 14.1874 11.5963 14.2271 11.5963 14.2826C11.5329 14.2667 11.4695 14.2588 11.406 14.2429L11.8103 12.9984L11.9371 12.2612L11.6756 12.9588L11.3981 14.235C11.3347 14.2191 11.2713 14.1954 11.2079 14.1795C11.2158 14.1716 11.2158 14.1557 11.2158 14.1399C11.2158 14.0844 11.1682 14.0289 11.1127 14.0289C11.0652 14.0289 11.0335 14.0527 11.0097 14.0923C10.9542 14.0685 10.8908 14.0368 10.8353 14.0051L11.5408 12.9112L11.8499 12.2295L11.414 12.8399L10.8195 14.0051C10.764 13.9734 10.7085 13.9338 10.653 13.9021C10.6688 13.8862 10.6768 13.8624 10.6768 13.8387C10.6768 13.7832 10.6292 13.7277 10.5658 13.7277C10.5341 13.7277 10.5024 13.7435 10.4865 13.7673C10.439 13.7277 10.3914 13.6801 10.3438 13.6326L11.3109 12.7606L11.7865 12.1819L11.2079 12.6576L10.3359 13.6246C10.2884 13.5771 10.2487 13.5295 10.2012 13.4819C10.2249 13.4661 10.2408 13.4344 10.2408 13.3947C10.2408 13.3393 10.1932 13.2838 10.1377 13.2838C10.114 13.2838 10.0902 13.2917 10.0743 13.3076C10.0347 13.2521 10.003 13.1966 9.97128 13.1411L11.1365 12.5466L11.7469 12.1185L11.0652 12.4277L9.97128 13.1332C9.93958 13.0777 9.90787 13.0222 9.88409 12.9588C9.92372 12.9429 9.95543 12.9033 9.95543 12.8557C9.95543 12.8002 9.90787 12.7447 9.84445 12.7447C9.8286 12.7447 9.81275 12.7527 9.79689 12.7527C9.77311 12.6893 9.75726 12.6258 9.73348 12.5624L11.0097 12.285L11.7152 12.0234L10.978 12.1502L9.73348 12.5545C9.71763 12.4911 9.70177 12.4277 9.69385 12.3643C9.74933 12.3563 9.78897 12.3088 9.78897 12.2612C9.78897 12.2057 9.74141 12.1502 9.67799 12.1502C9.67006 12.1502 9.67006 12.1502 9.67006 12.1502C9.66214 12.0868 9.66214 12.0155 9.66214 11.9521L10.9701 12.0155L11.7152 11.9441L10.9701 11.8728L9.66214 11.9362C9.66214 11.8728 9.67006 11.8015 9.67006 11.738C9.67799 11.738 9.67799 11.738 9.68592 11.738C9.74141 11.738 9.79689 11.6905 9.79689 11.6271C9.79689 11.5716 9.75726 11.524 9.70177 11.5161C9.7097 11.4527 9.72555 11.3893 9.74141 11.3258L10.9859 11.7301L11.7231 11.8569L11.0256 11.5954L9.74933 11.3179C9.76519 11.2545 9.78897 11.1911 9.80482 11.1277C9.81275 11.1356 9.8286 11.1356 9.84445 11.1356C9.90787 11.1356 9.95543 11.088 9.95543 11.0246C9.95543 10.985 9.93165 10.9454 9.89202 10.9295C9.92372 10.8661 9.9475 10.8106 9.97921 10.7551L11.0731 11.4685L11.7548 11.7777L11.1445 11.3417L9.97921 10.7472C10.0109 10.6917 10.0506 10.6362 10.0823 10.5807C10.0981 10.5966 10.1219 10.6045 10.1457 10.6045C10.2012 10.6045 10.2567 10.5569 10.2567 10.5015C10.2567 10.4697 10.2408 10.438 10.217 10.4143C10.2567 10.3667 10.3042 10.3191 10.3518 10.2716L11.2237 11.2386L11.8024 11.7143L11.3268 11.1356L10.3597 10.2636C10.4073 10.2161 10.4548 10.1764 10.5024 10.1289C10.5182 10.1527 10.5499 10.1685 10.5896 10.1685C10.6451 10.1685 10.6926 10.121 10.6926 10.0575C10.6926 10.0338 10.6847 10.01 10.6688 9.99413C10.7243 9.9545 10.7798 9.92279 10.8353 9.89108L11.4298 11.0563L11.8658 11.6667L11.5567 10.985L10.8432 9.89108C10.8987 9.85938 10.9542 9.82767 11.0176 9.80389C11.0335 9.84352 11.0731 9.87523 11.1207 9.87523C11.1762 9.87523 11.2317 9.82767 11.2317 9.77218C11.2317 9.75633 11.2317 9.74047 11.2237 9.72462C11.2871 9.70084 11.3506 9.68499 11.414 9.66913L11.6914 10.9454L11.953 11.6429L11.8262 10.9057L11.4219 9.66121C11.4853 9.64535 11.5487 9.6295 11.6121 9.62157C11.6201 9.67706 11.6676 9.71669 11.7152 9.71669C11.7707 9.71669 11.8262 9.66913 11.8262 9.60572V9.59779C11.9054 9.61364 11.9688 9.60572 12.0402 9.60572Z" fill="#16007E"/>
<path d="M12.0408 11.5637C12.2548 11.5637 12.4292 11.738 12.4292 11.9521C12.4292 12.1661 12.2548 12.3405 12.0408 12.3405C11.8267 12.3405 11.6523 12.1661 11.6523 11.9521C11.6523 11.738 11.8267 11.5637 12.0408 11.5637Z" fill="white"/>
<path d="M12.0406 11.6509C12.2071 11.6509 12.3419 11.7857 12.3419 11.9521C12.3419 12.1186 12.2071 12.2533 12.0406 12.2533C11.8742 12.2533 11.7394 12.1186 11.7394 11.9521C11.7394 11.7857 11.8742 11.6509 12.0406 11.6509Z" fill="#16007E"/>
</g>
</svg>
