<svg width="24" height="24" viewBox="0 0 24 24" fill="none" xmlns="http://www.w3.org/2000/svg">
<mask id="mask0" mask-type="alpha" maskUnits="userSpaceOnUse" x="0" y="3" width="24" height="18">
<path d="M2.66667 3.33334H21.3333C22.0406 3.33334 22.7189 3.6143 23.219 4.11439C23.719 4.61449 24 5.29277 24 6.00001V18C24 18.7072 23.719 19.3855 23.219 19.8856C22.7189 20.3857 22.0406 20.6667 21.3333 20.6667H2.66667C1.95942 20.6667 1.28115 20.3857 0.781049 19.8856C0.280952 19.3855 0 18.7072 0 18V6.00001C0 5.29277 0.280952 4.61449 0.781049 4.11439C1.28115 3.6143 1.95942 3.33334 2.66667 3.33334Z" fill="#808A9B"/>
</mask>
<g mask="url(#mask0)">
<path d="M24.0001 3H9.15527e-05V21H24.0001V3Z" fill="#EEEEEE"/>
<path d="M24.0001 5H9.15527e-05V7H24.0001V5Z" fill="#17229E"/>
<path d="M24.0001 17H9.15527e-05V19H24.0001V17Z" fill="#17229E"/>
<path d="M13.8996 12.2L15.1141 10.1408H12.738L11.5764 8.08151L10.4148 10.1408H8.0387L9.25313 12.2L8.0387 14.2593H10.4148L11.5764 16.3185L12.738 14.2593H15.1141L13.8996 12.2ZM11.154 10.1408L11.5764 9.40155L11.9988 10.1408H11.154ZM13.53 12.8336L13.9524 13.5201H13.1076L13.53 12.8336ZM13.1076 10.8272H13.9524L13.53 11.5136L13.1076 10.8272ZM11.9988 14.2593L11.5764 14.9985L11.154 14.2593H11.9988ZM10.7316 13.5729L9.93955 12.2L10.7316 10.8272H12.3684L13.1604 12.2L12.3684 13.5729H10.7316ZM9.99235 13.5729H9.14752L9.56994 12.8864L9.99235 13.5729ZM9.14752 10.8272H9.99235L9.56994 11.5136L9.14752 10.8272Z" fill="#17229E"/>
</g>
</svg>
