<svg width="24" height="24" viewBox="0 0 24 24" fill="none" xmlns="http://www.w3.org/2000/svg">
<mask id="mask0" mask-type="alpha" maskUnits="userSpaceOnUse" x="0" y="3" width="24" height="18">
<path d="M2.66667 3.33334H21.3333C22.0406 3.33334 22.7189 3.6143 23.219 4.11439C23.719 4.61449 24 5.29277 24 6.00001V18C24 18.7072 23.719 19.3855 23.219 19.8856C22.7189 20.3857 22.0406 20.6667 21.3333 20.6667H2.66667C1.95942 20.6667 1.28115 20.3857 0.781049 19.8856C0.280952 19.3855 0 18.7072 0 18V6.00001C0 5.29277 0.280952 4.61449 0.781049 4.11439C1.28115 3.6143 1.95942 3.33334 2.66667 3.33334Z" fill="#808A9B"/>
</mask>
<g mask="url(#mask0)">
<path d="M24 3H0V12H24V3Z" fill="#DA1841"/>
<path d="M24 12H0V21H24V12Z" fill="#EEEEEE"/>
<path d="M8.22339 7.50004C8.22339 9.37101 6.71295 10.8871 4.849 10.8871C2.98505 10.8871 1.47461 9.37101 1.47461 7.50004C1.47461 5.62907 2.98505 4.11295 4.849 4.11295C6.71295 4.11295 8.22339 5.62907 8.22339 7.50004Z" fill="white"/>
<path d="M9.28354 7.5C9.28354 9.2742 7.85344 10.6936 6.10198 10.6936C4.33444 10.6936 2.92041 9.25807 2.92041 7.5C2.92041 5.72581 4.35051 4.30646 6.10198 4.30646C7.85344 4.30646 9.28354 5.74194 9.28354 7.5Z" fill="#DA1841"/>
<path d="M5.26622 7.58061L4.8163 7.22577L4.35031 7.58061L4.52707 7.01609L4.07715 6.66126H4.63955L4.8163 6.09674L4.99305 6.66126H5.55545L5.08946 7.01609L5.26622 7.58061Z" fill="white"/>
<path d="M8.86578 7.58061L8.41586 7.22577L7.94988 7.58061L8.12663 7.01609L7.66064 6.66126H8.23911L8.41586 6.09674L8.57655 6.66126H9.15502L8.68903 7.01609L8.86578 7.58061Z" fill="white"/>
<path d="M7.06602 6.24196L6.61611 5.88712L6.15012 6.24196L6.32687 5.67744L5.87695 5.3226H6.43935L6.61611 4.75809L6.79286 5.3226H7.35526L6.88927 5.67744L7.06602 6.24196Z" fill="white"/>
<path d="M5.94151 9.72575L5.49159 9.37091L5.02561 9.72575L5.20236 9.16124L4.75244 8.8064H5.31484L5.49159 8.24188L5.66835 8.8064H6.23074L5.76476 9.16124L5.94151 9.72575Z" fill="white"/>
<path d="M8.19102 9.72575L7.74111 9.37091L7.27512 9.72575L7.45187 9.16124L7.00195 8.8064H7.56435L7.74111 8.24188L7.90179 8.8064H8.48026L8.01427 9.16124L8.19102 9.72575Z" fill="white"/>
</g>
</svg>
