<svg width="24" height="24" viewBox="0 0 24 24" fill="none" xmlns="http://www.w3.org/2000/svg">
<mask id="mask0" mask-type="alpha" maskUnits="userSpaceOnUse" x="0" y="3" width="24" height="18">
<path d="M2.66667 3.33334H21.3333C22.0406 3.33334 22.7189 3.6143 23.219 4.11439C23.719 4.61449 24 5.29277 24 6.00001V18C24 18.7072 23.719 19.3855 23.219 19.8856C22.7189 20.3857 22.0406 20.6667 21.3333 20.6667H2.66667C1.95942 20.6667 1.28115 20.3857 0.781049 19.8856C0.280952 19.3855 0 18.7072 0 18V6.00001C0 5.29277 0.280952 4.61449 0.781049 4.11439C1.28115 3.6143 1.95942 3.33334 2.66667 3.33334Z" fill="#808A9B"/>
</mask>
<g mask="url(#mask0)">
<path d="M0 21H24V3H0V21Z" fill="#EEEEEE"/>
<path d="M3.5463 3L11.1388 9.01744H24.9994V3H3.5463Z" fill="#D03033"/>
<path d="M11.1388 14.9826L3.54639 21H24.9995V14.9826H11.1388Z" fill="#1F189B"/>
<path d="M-1 9.01747H2.04581L-1 6.6105V9.01747Z" fill="black"/>
<path d="M-1 9.01746V14.9826H2.04581L5.84204 12L2.04581 9.01746H-1Z" fill="black"/>
<path d="M-1 14.9826V17.3895L2.04581 14.9826H-1Z" fill="black"/>
<path d="M-1 6.61043L5.84204 12L-1 17.3895V18.8023L7.65187 12L-1 5.14532V6.61043Z" fill="#F2B126"/>
<path d="M-1 3V5.14535L7.65188 12L-1 18.8023V21H1.73682L10.8301 13.7791H24.9998V10.2209H10.8301L1.73682 3H-1Z" fill="#32784C"/>
</g>
</svg>
