<svg width="24" height="24" viewBox="0 0 24 24" fill="none" xmlns="http://www.w3.org/2000/svg">
<mask id="mask0" mask-type="alpha" maskUnits="userSpaceOnUse" x="0" y="3" width="24" height="18">
<path d="M2.66667 3.33334H21.3333C22.0406 3.33334 22.7189 3.6143 23.219 4.11439C23.719 4.61449 24 5.29277 24 6.00001V18C24 18.7072 23.719 19.3855 23.219 19.8856C22.7189 20.3857 22.0406 20.6667 21.3333 20.6667H2.66667C1.95942 20.6667 1.28115 20.3857 0.781049 19.8856C0.280952 19.3855 0 18.7072 0 18V6.00001C0 5.29277 0.280952 4.61449 0.781049 4.11439C1.28115 3.6143 1.95942 3.33334 2.66667 3.33334Z" fill="#808A9B"/>
</mask>
<g mask="url(#mask0)">
<path d="M24 15H0V9H24V15Z" fill="#EEEEEE"/>
<path d="M24 21H0V15H24V21Z" fill="#80A7D8"/>
<path d="M24 9H0V3H24V9Z" fill="#80A7D8"/>
<path d="M12.646 11.9933L12.5291 14.9294C12.5291 14.9294 12.5291 14.9867 12.4852 14.9867C12.4414 14.9867 12.4414 14.9294 12.4414 14.9294L12.3245 11.9933L12.646 11.9933Z" fill="#F1BD51"/>
<path d="M12.4999 14.9867C12.5438 14.9867 12.5438 14.9437 12.5438 14.9294L12.6607 11.9933L12.6461 11.9933L12.5292 14.9294C12.5292 14.9294 12.5292 14.9724 12.4999 14.9724C12.4707 14.9724 12.4707 14.9294 12.4707 14.9294L12.3538 11.9933L12.4561 14.9151C12.4561 14.9437 12.4707 14.9867 12.4999 14.9867Z" fill="#7A361D"/>
<path d="M12.5731 11.9933L12.5 13.9984L12.4269 11.9933L12.5731 11.9933Z" fill="#7A361D"/>
<path d="M12.7777 12.9386C12.9531 13.311 12.8069 13.6117 12.9677 13.9268C13.1431 14.2419 13.0261 14.514 13.0408 14.6573C13.0554 14.8005 13.1723 14.8435 13.1431 14.8864C13.1138 14.9151 12.9823 14.8578 12.9384 14.6573C12.8946 14.4568 13.0115 14.3422 12.8069 13.9555C12.6023 13.5545 12.7631 13.3826 12.5584 13.0245L12.7777 12.9386Z" fill="#F1BD51"/>
<path d="M13.1286 14.9008L13.1725 14.8864C13.1871 14.8721 13.1725 14.8435 13.1432 14.8148C13.114 14.7862 13.0701 14.7289 13.0701 14.6573C13.0701 14.6143 13.0701 14.5713 13.0848 14.5141C13.0994 14.3565 13.1286 14.156 12.9971 13.9125C12.9094 13.755 12.9094 13.5974 12.8948 13.4399C12.8948 13.2823 12.8801 13.1105 12.7925 12.9243L12.7778 12.9386C12.8655 13.1248 12.8655 13.2823 12.8801 13.4542C12.8801 13.6118 12.8948 13.7693 12.9825 13.9412C13.114 14.1703 13.0848 14.3708 13.0701 14.5284C13.0701 14.5857 13.0555 14.6286 13.0555 14.6716C13.0555 14.7575 13.114 14.8148 13.1432 14.8435C13.1725 14.8721 13.1725 14.8721 13.1725 14.8864C13.0994 14.8721 13.0117 14.8005 12.9825 14.6573C12.9678 14.5857 12.9678 14.5284 12.9678 14.4711C12.9678 14.3422 12.9825 14.2133 12.8363 13.9412C12.734 13.7407 12.7194 13.5974 12.7194 13.4685C12.7048 13.3253 12.7048 13.1964 12.5878 13.0102C12.6755 13.1964 12.6901 13.3253 12.6901 13.4685C12.7048 13.6118 12.7048 13.755 12.8217 13.9555C12.9532 14.2133 12.9532 14.3565 12.9386 14.4711C12.9386 14.5284 12.9386 14.5857 12.9532 14.6573C12.9825 14.8005 13.0555 14.8864 13.1286 14.9008Z" fill="#7A361D"/>
<path d="M12.7341 13.0245C12.8656 13.3969 12.7195 13.6404 12.9095 13.9412C12.7049 13.712 12.8364 13.4256 12.661 13.0532L12.7341 13.0245Z" fill="#7A361D"/>
<path d="M12.3538 11.9933L12.4561 9.05729C12.4561 9.05729 12.4561 9 12.4999 9C12.5438 9 12.5438 9.05729 12.5438 9.05729L12.6607 11.9933L12.3538 11.9933Z" fill="#F1BD51"/>
<path d="M12.3537 11.9933L12.4706 9.05729C12.4706 9.05729 12.4706 9.01432 12.4998 9.01432C12.5291 9.01432 12.5291 9.05729 12.5291 9.05729L12.646 11.9933L12.5583 9.05729C12.5583 9.04297 12.5437 9 12.5145 9C12.4852 9 12.4706 9.04297 12.4706 9.05729L12.3537 11.9933V11.9933Z" fill="#7A361D"/>
<path d="M12.4269 11.9933L12.5 9.97391L12.5731 11.9933L12.4269 11.9933Z" fill="#7A361D"/>
<path d="M12.2221 11.0481C12.0467 10.6757 12.1929 10.3749 12.0321 10.0598C11.8567 9.74475 11.9736 9.47263 11.959 9.32941C11.9444 9.18619 11.8275 9.14322 11.8567 9.10025C11.8859 9.07161 12.0175 9.1289 12.0613 9.32941C12.1052 9.52992 11.9882 9.6445 12.1928 10.0312C12.3975 10.4322 12.2367 10.6041 12.4413 10.9621L12.2221 11.0481Z" fill="#F1BD51"/>
<path d="M12.2078 11.0481L12.2224 11.0338C12.1347 10.8476 12.1347 10.69 12.1201 10.5182C12.1201 10.3463 12.1055 10.2031 12.0178 10.0312C11.9009 9.80204 11.9155 9.60153 11.9301 9.44399C11.9301 9.3867 11.9447 9.34373 11.9447 9.30076C11.9447 9.21483 11.8863 9.15754 11.857 9.1289C11.8278 9.10025 11.8278 9.10025 11.8278 9.08593C11.9009 9.08593 11.9886 9.15754 12.0178 9.31509C12.0324 9.3867 12.0324 9.44399 12.0324 9.50128C12.0324 9.63018 12.0178 9.75908 12.164 10.0312C12.2663 10.2317 12.2809 10.3749 12.2809 10.5038C12.2955 10.6471 12.2955 10.776 12.4124 10.9621C12.3248 10.776 12.3101 10.6471 12.3101 10.5038C12.2955 10.3606 12.2955 10.2174 12.1786 10.0169C12.0471 9.75908 12.0471 9.61585 12.0617 9.50128C12.0617 9.44399 12.0617 9.3867 12.0471 9.31509C12.0032 9.15754 11.9155 9.08593 11.8717 9.07161L11.8278 9.08593C11.8132 9.10025 11.8278 9.1289 11.857 9.15754C11.8863 9.18619 11.9301 9.24348 11.9301 9.31509C11.9301 9.35805 11.9301 9.40102 11.9155 9.45831C11.9009 9.61585 11.8717 9.81636 12.0032 10.0598C12.0909 10.2174 12.0909 10.3749 12.1055 10.5325C12.1201 10.69 12.1201 10.8619 12.2078 11.0481Z" fill="#7A361D"/>
<path d="M12.2664 10.9478C12.1349 10.5754 12.281 10.332 12.091 10.0312C12.2956 10.2604 12.1641 10.5468 12.3395 10.9192L12.2664 10.9478Z" fill="#7A361D"/>
<path d="M12.5 11.8358L15.4962 11.9504C15.4962 11.9504 15.5547 11.9504 15.5547 11.9933C15.5547 12.0363 15.4962 12.0363 15.4962 12.0363L12.5 12.1509L12.5 11.8358Z" fill="#F1BD51"/>
<path d="M12.5 12.1222L15.4962 12.0363C15.5255 12.0363 15.5547 12.022 15.5547 11.9933C15.5547 11.9504 15.5108 11.9504 15.4962 11.9504L12.5 11.8358L12.5 11.8501L15.4962 11.9647C15.4962 11.9647 15.5401 11.9647 15.5401 11.9933C15.5401 12.022 15.4962 12.022 15.4962 12.022L12.5 12.1222Z" fill="#7A361D"/>
<path d="M12.4998 11.9217L14.5606 11.9933L12.4998 12.065L12.4998 11.9217Z" fill="#7A361D"/>
<path d="M13.4649 11.7069C13.8449 11.535 14.1518 11.6783 14.4734 11.5207C14.8095 11.3488 15.0726 11.4634 15.2188 11.4491C15.3649 11.4348 15.4088 11.3202 15.4526 11.3488C15.4819 11.3775 15.4234 11.5064 15.2188 11.5494C15.0142 11.5923 14.8972 11.4777 14.5026 11.6783C14.0934 11.8788 13.918 11.7212 13.5526 11.9217L13.4649 11.7069Z" fill="#F1BD51"/>
<path d="M13.5524 11.9217C13.7425 11.8358 13.874 11.8215 14.0201 11.8215C14.1663 11.8072 14.3125 11.8072 14.5171 11.6926C14.7802 11.5637 14.9263 11.5637 15.0432 11.5637C15.1017 11.5637 15.1602 11.5637 15.2333 11.5494C15.3794 11.5064 15.4671 11.4348 15.4817 11.3775L15.4671 11.3345C15.4525 11.3202 15.4233 11.3345 15.394 11.3632C15.3648 11.3918 15.3063 11.4348 15.2333 11.4348C15.1894 11.4348 15.1456 11.4348 15.0871 11.4205C14.9409 11.4061 14.7217 11.3775 14.4732 11.5064C14.3125 11.5923 14.1517 11.5923 13.9909 11.6066C13.8301 11.6066 13.6548 11.621 13.4648 11.7069L13.4794 11.7212C13.6694 11.6353 13.8301 11.6353 14.0055 11.621C14.1663 11.621 14.3271 11.6066 14.5025 11.5207C14.7363 11.4061 14.9556 11.4205 15.1017 11.4348C15.1602 11.4348 15.204 11.4491 15.2479 11.4491C15.3356 11.4348 15.394 11.3918 15.4233 11.3632C15.4525 11.3488 15.4525 11.3345 15.4671 11.3345C15.4525 11.4061 15.394 11.4921 15.2333 11.5207C15.1602 11.535 15.1163 11.535 15.0432 11.535C14.9117 11.535 14.7802 11.5207 14.5025 11.6639C14.2978 11.7642 14.1517 11.7785 14.0201 11.7785C13.874 11.8072 13.7425 11.8215 13.5524 11.9217Z" fill="#7A361D"/>
<path d="M13.567 11.7642C13.947 11.6353 14.1955 11.7642 14.5024 11.5923C14.2685 11.7928 13.9762 11.6639 13.5962 11.8358L13.567 11.7642Z" fill="#7A361D"/>
<path d="M12.5001 12.1366L9.50387 12.022C9.50387 12.022 9.44541 12.022 9.44541 11.979C9.44541 11.936 9.50387 11.936 9.50387 11.936L12.5001 11.8358L12.5001 12.1366Z" fill="#F1BD51"/>
<path d="M12.5001 12.1509L12.5001 12.1366L9.50387 12.022C9.50387 12.022 9.46002 12.022 9.46002 11.9933C9.46002 11.9647 9.50387 11.9647 9.50387 11.9647L12.5001 11.8501L9.50387 11.9361C9.47464 11.9361 9.44541 11.9504 9.44541 11.979C9.44541 12.022 9.48926 12.022 9.50387 12.022L12.5001 12.1509Z" fill="#7A361D"/>
<path d="M12.5001 12.065L10.4393 11.9933L12.5001 11.9217L12.5001 12.065Z" fill="#7A361D"/>
<path d="M11.5354 12.2655C11.1554 12.4373 10.8485 12.2941 10.527 12.4516C10.2054 12.6235 9.92771 12.5089 9.78155 12.5233C9.6354 12.5376 9.59155 12.6522 9.56232 12.6235C9.53309 12.5949 9.59155 12.466 9.79617 12.423C10.0008 12.38 10.1177 12.4946 10.5123 12.2941C10.9216 12.0936 11.097 12.2511 11.4624 12.0506L11.5354 12.2655Z" fill="#F1BD51"/>
<path d="M9.56231 12.6522C9.57693 12.6522 9.59154 12.6378 9.60616 12.6235C9.63539 12.5949 9.69385 12.5519 9.76693 12.5519C9.81078 12.5519 9.85463 12.5519 9.91309 12.5662C10.0739 12.5806 10.2785 12.6092 10.5269 12.4803C10.6877 12.3944 10.8485 12.3944 11.0093 12.38C11.17 12.38 11.3454 12.3657 11.5354 12.2798L11.5208 12.2655C11.3308 12.3514 11.17 12.3514 11.0093 12.3657C10.8339 12.3657 10.6877 12.38 10.5123 12.466C10.2785 12.5806 10.0739 12.5662 9.91309 12.5519C9.85463 12.5519 9.81078 12.5376 9.76693 12.5376C9.67924 12.5376 9.62077 12.5949 9.59154 12.6235C9.56231 12.6522 9.56231 12.6522 9.5477 12.6522C9.5477 12.5806 9.62077 12.4946 9.78155 12.466C9.85462 12.4517 9.89847 12.4517 9.97155 12.4517C10.1031 12.4517 10.2346 12.466 10.5123 12.3228C10.717 12.2225 10.8631 12.2082 10.9947 12.2082C11.1408 12.1938 11.2723 12.1938 11.4624 12.0793C11.2723 12.1652 11.1408 12.1795 10.9947 12.1795C10.8485 12.1938 10.7023 12.2082 10.4977 12.3084C10.2346 12.4373 10.1031 12.4373 9.97155 12.423C9.91309 12.423 9.85462 12.423 9.78155 12.4373C9.62077 12.4803 9.5477 12.5662 9.53308 12.6092L9.5477 12.6522C9.5477 12.6522 9.54769 12.6522 9.56231 12.6522Z" fill="#7A361D"/>
<path d="M11.4331 12.2225C11.0531 12.3514 10.8046 12.2225 10.4977 12.3944C10.7315 12.1939 11.0238 12.3227 11.4038 12.1509L11.4331 12.2225Z" fill="#7A361D"/>
<path d="M12.6025 11.8788L14.6341 14.0271C14.6341 14.0271 14.678 14.0701 14.6487 14.0987C14.6195 14.1273 14.5757 14.0844 14.5757 14.0844L12.3833 12.0936L12.6025 11.8788Z" fill="#F1BD51"/>
<path d="M14.6338 14.113C14.6923 14.0701 14.663 14.0414 14.6484 14.0271L12.6168 11.8788L12.6022 11.8931L14.6338 14.0414C14.6338 14.0414 14.663 14.0701 14.6484 14.0987C14.6338 14.113 14.5899 14.0844 14.5899 14.0844L12.3976 12.0936L14.5753 14.0987C14.5899 14.0987 14.6046 14.113 14.6338 14.113Z" fill="#7A361D"/>
<path d="M12.5586 11.9361L13.9471 13.4112L12.4417 12.0363L12.5586 11.9361Z" fill="#7A361D"/>
<path d="M13.3768 12.466C13.7568 12.6092 13.8737 12.9243 14.2245 13.0245C14.5753 13.1391 14.6922 13.3969 14.8091 13.4972C14.926 13.5974 15.043 13.5401 15.043 13.5831C15.043 13.6261 14.9114 13.669 14.7214 13.5688C14.546 13.4685 14.546 13.2967 14.1222 13.1678C13.6983 13.0389 13.6837 12.7954 13.2745 12.6808L13.3768 12.466Z" fill="#F1BD51"/>
<path d="M14.9554 13.6404C14.9847 13.6404 15.0139 13.6261 15.0431 13.6261L15.0724 13.5831C15.0724 13.5545 15.0431 13.5545 15.0139 13.5545C14.97 13.5545 14.897 13.5401 14.8385 13.4972C14.8093 13.4685 14.78 13.4399 14.7362 13.3969C14.6339 13.2823 14.5023 13.1105 14.2393 13.0389C14.0639 12.9816 13.9469 12.8813 13.83 12.7667C13.7131 12.6522 13.5816 12.5376 13.3915 12.466L13.3915 12.4803C13.5816 12.5519 13.7131 12.6665 13.83 12.7667C13.9469 12.8813 14.0639 12.9816 14.2539 13.0389C14.517 13.1248 14.6485 13.2823 14.7362 13.3969C14.7654 13.4399 14.8093 13.4828 14.8385 13.5115C14.9116 13.5688 14.9847 13.5688 15.0285 13.5831C15.0577 13.5831 15.0724 13.5831 15.0724 13.5974C15.0139 13.6404 14.897 13.6547 14.7654 13.5688C14.707 13.5401 14.6631 13.4972 14.6193 13.4542C14.5316 13.3683 14.4439 13.268 14.1516 13.1678C13.9323 13.0962 13.83 13.0102 13.7277 12.9243C13.6108 12.8383 13.5085 12.7524 13.3185 12.6951C13.5085 12.7667 13.6108 12.8527 13.7277 12.9386C13.83 13.0245 13.9469 13.1248 14.1662 13.1964C14.4439 13.2823 14.5462 13.3826 14.6193 13.4685C14.6631 13.5115 14.707 13.5545 14.7654 13.5974C14.8239 13.6261 14.897 13.6404 14.9554 13.6404Z" fill="#7A361D"/>
<path d="M13.4208 12.5662C13.7862 12.7381 13.8592 13.0102 14.21 13.0962C13.9031 13.0818 13.7862 12.7811 13.3915 12.6378L13.4208 12.5662Z" fill="#7A361D"/>
<path d="M12.3979 12.0936L10.3663 9.94526C10.3663 9.94526 10.3225 9.9023 10.3517 9.87365C10.3809 9.84501 10.4248 9.88798 10.4248 9.88798L12.6171 11.8788L12.3979 12.0936Z" fill="#F1BD51"/>
<path d="M12.3832 12.0936L10.3662 9.93094C10.3662 9.93094 10.337 9.9023 10.3516 9.87365C10.3662 9.85933 10.4101 9.88798 10.4101 9.88798L12.6024 11.8788L10.4247 9.87365C10.4101 9.85933 10.3662 9.83069 10.3516 9.85933C10.3224 9.88798 10.3516 9.91662 10.3662 9.93094L12.3832 12.0936Z" fill="#7A361D"/>
<path d="M12.4414 12.0363L11.0529 10.5611L12.5583 11.936L12.4414 12.0363Z" fill="#7A361D"/>
<path d="M11.6231 11.5207C11.2431 11.3775 11.1262 11.0624 10.7754 10.9621C10.4246 10.8476 10.3077 10.5898 10.1908 10.4895C10.0739 10.3893 9.95693 10.4465 9.95693 10.4036C9.95693 10.3606 10.0885 10.3176 10.2785 10.4179C10.4539 10.5182 10.4539 10.69 10.8777 10.8189C11.3016 10.9478 11.3162 11.1913 11.7254 11.3059L11.6231 11.5207Z" fill="#F1BD51"/>
<path d="M11.6083 11.5207L11.6083 11.5064C11.4183 11.4348 11.2867 11.3202 11.1698 11.2199C11.0529 11.1054 10.9359 11.0051 10.7459 10.9478C10.4975 10.8762 10.3659 10.7043 10.2636 10.5898C10.2198 10.5468 10.1905 10.5038 10.1613 10.4752C10.0882 10.4179 10.0298 10.4179 9.9713 10.4036C9.94207 10.4036 9.92745 10.4036 9.92745 10.3892C9.98591 10.3463 10.1028 10.332 10.2344 10.4179C10.2928 10.4465 10.3367 10.4895 10.3805 10.5325C10.4682 10.6184 10.5559 10.7187 10.8482 10.8189C11.0675 10.8905 11.1698 10.9765 11.2721 11.0624C11.3744 11.1483 11.4913 11.2343 11.6813 11.2915C11.4913 11.2199 11.389 11.134 11.2721 11.0481C11.1698 10.9621 11.0529 10.8619 10.8336 10.7903C10.5559 10.7043 10.4536 10.6041 10.3805 10.5181C10.3367 10.4752 10.2928 10.4322 10.2344 10.3892C10.1028 10.3176 9.98591 10.3176 9.92745 10.3463L9.89822 10.3892C9.89822 10.4179 9.92745 10.4179 9.95668 10.4179C10.0005 10.4179 10.059 10.4179 10.1321 10.4752C10.1613 10.5038 10.1905 10.5325 10.2344 10.5898C10.3367 10.7043 10.4682 10.8762 10.7313 10.9478C10.9067 11.0051 11.0236 11.1054 11.1406 11.2199C11.2867 11.3345 11.4183 11.4491 11.6083 11.5207Z" fill="#7A361D"/>
<path d="M11.5791 11.4205C11.2137 11.2486 11.1407 10.9908 10.7899 10.8905C11.0968 10.9049 11.2137 11.2056 11.6084 11.3488L11.5791 11.4205Z" fill="#7A361D"/>
<path d="M12.3975 11.8788L14.5898 9.88798C14.5898 9.88798 14.6337 9.84501 14.6629 9.87365C14.6921 9.9023 14.6483 9.94527 14.6483 9.94527L12.6167 12.0936L12.3975 11.8788Z" fill="#F1BD51"/>
<path d="M12.6028 12.0936L14.649 9.95958C14.6636 9.94526 14.6928 9.9023 14.6636 9.88797C14.6343 9.85933 14.6051 9.88797 14.5905 9.9023L12.3981 11.8931L12.4128 11.9074L14.6051 9.91662C14.6051 9.91662 14.6343 9.88797 14.6636 9.9023C14.6782 9.91662 14.649 9.95958 14.649 9.95958L12.6028 12.0936Z" fill="#7A361D"/>
<path d="M12.4417 11.936L13.9471 10.5611L12.5586 12.0363L12.4417 11.936Z" fill="#7A361D"/>
<path d="M12.9827 11.1197C13.1288 10.733 13.4504 10.6327 13.5673 10.2747C13.6842 9.93094 13.9473 9.81637 14.0496 9.70179C14.1519 9.58721 14.0935 9.47263 14.1373 9.47263C14.1812 9.47263 14.225 9.60153 14.1227 9.78772C14.0204 9.95959 13.845 9.95959 13.7135 10.3749C13.5673 10.7903 13.3335 10.8046 13.2165 11.2056L12.9827 11.1197Z" fill="#F1BD51"/>
<path d="M13.2018 11.2056C13.2749 11.0194 13.3626 10.9192 13.4503 10.8046C13.5379 10.7043 13.6403 10.5898 13.7133 10.3749C13.801 10.1028 13.9033 10.0026 13.991 9.93095C14.0349 9.88798 14.0787 9.84501 14.1226 9.78772C14.2103 9.6445 14.1957 9.52992 14.1664 9.48696L14.1226 9.45831C14.0933 9.45831 14.0933 9.48696 14.0933 9.5156C14.0933 9.55857 14.0787 9.63018 14.0349 9.68747C14.0057 9.71611 13.9764 9.74476 13.918 9.78772C13.801 9.88798 13.6256 10.0169 13.5526 10.2747C13.4941 10.4465 13.3918 10.5611 13.2749 10.6757C13.1579 10.7903 13.041 10.9192 12.9679 11.1054L12.9826 11.1054C13.0556 10.9192 13.1726 10.7903 13.2749 10.6757C13.3918 10.5611 13.4941 10.4465 13.5526 10.2604C13.6256 10.0169 13.801 9.88798 13.918 9.78772C13.9618 9.75908 14.0057 9.71611 14.0349 9.68747C14.0933 9.61586 14.0933 9.54425 14.108 9.50128C14.108 9.47264 14.108 9.45831 14.1226 9.45831C14.1664 9.5156 14.181 9.61586 14.0933 9.75908C14.0641 9.81637 14.0203 9.85933 13.9764 9.9023C13.8887 9.98823 13.7864 10.0742 13.6841 10.3606C13.611 10.5754 13.5233 10.6757 13.4356 10.776C13.3479 10.9049 13.2456 11.0051 13.2018 11.2056Z" fill="#7A361D"/>
<path d="M13.0846 11.091C13.26 10.733 13.5377 10.6614 13.6254 10.3176C13.6108 10.6184 13.3038 10.733 13.1577 11.1197L13.0846 11.091Z" fill="#7A361D"/>
<path d="M12.6024 12.0936L10.4101 14.0844C10.4101 14.0844 10.3662 14.1273 10.337 14.0987C10.3078 14.0701 10.3516 14.0271 10.3516 14.0271L12.3832 11.8788L12.6024 12.0936Z" fill="#F1BD51"/>
<path d="M10.3663 14.113C10.3955 14.113 10.4101 14.0987 10.4101 14.0987L12.6024 12.1079L12.5878 12.0936L10.3955 14.0844C10.3955 14.0844 10.3663 14.113 10.337 14.0987C10.3224 14.0844 10.3516 14.0414 10.3516 14.0414L12.3832 11.8931L10.337 14.0271C10.3224 14.0414 10.2932 14.0844 10.3224 14.0987C10.3516 14.113 10.3516 14.113 10.3663 14.113Z" fill="#7A361D"/>
<path d="M12.5583 12.0363L11.0529 13.4112L12.4414 11.9361L12.5583 12.0363Z" fill="#7A361D"/>
<path d="M12.0178 12.8527C11.8716 13.225 11.5501 13.3396 11.4331 13.6834C11.3162 14.0271 11.0531 14.1417 10.9508 14.2562C10.8485 14.3708 10.907 14.4854 10.8631 14.4854C10.8193 14.4854 10.7754 14.3565 10.8777 14.1846C10.98 14.0128 11.1554 14.0128 11.287 13.5974C11.4331 13.1678 11.667 13.1678 11.7839 12.7667L12.0178 12.8527Z" fill="#F1BD51"/>
<path d="M10.8777 14.4997C10.907 14.4997 10.907 14.4711 10.907 14.4424C10.907 14.3995 10.907 14.3279 10.9654 14.2706C10.9947 14.2419 11.0239 14.2133 11.0677 14.1703C11.1847 14.0701 11.3601 13.9412 11.4331 13.6834C11.4916 13.5115 11.5939 13.3969 11.7108 13.2823C11.8278 13.1678 11.9447 13.0389 12.0178 12.8527L12.0031 12.8527C11.9301 13.0389 11.8131 13.1678 11.7108 13.2823C11.5939 13.3969 11.4916 13.5115 11.4331 13.6977C11.3601 13.9412 11.1847 14.0701 11.0677 14.1703C11.0239 14.199 10.98 14.2419 10.9508 14.2706C10.8924 14.3422 10.8924 14.4138 10.8777 14.4568C10.8777 14.4854 10.8777 14.4997 10.8631 14.4997C10.8193 14.4424 10.8047 14.3422 10.8924 14.199C10.9216 14.1417 10.9654 14.0987 11.0093 14.0557C11.097 13.9698 11.1993 13.8839 11.3016 13.5974C11.3747 13.3826 11.4624 13.2823 11.5501 13.1821C11.6378 13.0818 11.7401 12.9672 11.7839 12.7811C11.7108 12.9672 11.6231 13.0675 11.5354 13.1821C11.4478 13.2823 11.3454 13.3969 11.2724 13.6117C11.1847 13.8839 11.0824 13.9841 10.9947 14.0557C10.9508 14.0987 10.907 14.1417 10.8631 14.199C10.79 14.3279 10.79 14.4424 10.8193 14.4997L10.8777 14.4997Z" fill="#7A361D"/>
<path d="M11.9154 12.8813C11.74 13.2394 11.4623 13.311 11.3746 13.6547C11.3892 13.354 11.6962 13.2394 11.8423 12.8527L11.9154 12.8813Z" fill="#7A361D"/>
<path d="M12.6459 11.9361L13.6836 14.6859C13.6836 14.6859 13.6982 14.7432 13.669 14.7575C13.6398 14.7718 13.6106 14.7146 13.6106 14.7146L12.3682 12.0506L12.6459 11.9361Z" fill="#F1BD51"/>
<path d="M13.64 14.7575C13.6985 14.7432 13.6985 14.7002 13.6839 14.6859L12.6462 11.9361L12.6316 11.9361L13.6693 14.6859C13.6693 14.6859 13.6839 14.7289 13.6547 14.7432L13.6254 14.7002L12.3831 12.0363L13.6108 14.7146C13.6108 14.7146 13.6108 14.7432 13.64 14.7575Z" fill="#7A361D"/>
<path d="M12.5733 11.9647L13.2895 13.8552L12.4271 12.022L12.5733 11.9647Z" fill="#7A361D"/>
<path d="M13.128 12.7524C13.435 13.0245 13.4057 13.3683 13.6981 13.5974C13.9758 13.8266 13.9904 14.113 14.0488 14.2419C14.1219 14.3708 14.2535 14.3708 14.2242 14.4138C14.2096 14.4568 14.0635 14.4424 13.9465 14.2849C13.8296 14.1273 13.8881 13.9698 13.5373 13.6834C13.1865 13.3969 13.2742 13.1678 12.9527 12.9243L13.128 12.7524Z" fill="#F1BD51"/>
<path d="M14.1954 14.4424L14.21 14.4424L14.2539 14.4138C14.2685 14.3852 14.2393 14.3708 14.21 14.3565C14.1662 14.3422 14.1077 14.3135 14.0785 14.2419C14.0639 14.199 14.0493 14.156 14.0347 14.0987C13.9908 13.9555 13.9323 13.755 13.7277 13.5831C13.5816 13.4685 13.5231 13.3253 13.45 13.1821C13.3769 13.0389 13.3039 12.8813 13.1577 12.7381L13.1431 12.7524C13.2893 12.8956 13.3623 13.0389 13.4354 13.1821C13.5085 13.3253 13.567 13.4685 13.7131 13.5974C13.9177 13.7693 13.9762 13.9555 14.02 14.113C14.0347 14.1703 14.0493 14.2133 14.0639 14.2563C14.1077 14.3422 14.1662 14.3708 14.21 14.3852C14.2393 14.3995 14.2539 14.3995 14.2539 14.4138C14.1808 14.4281 14.0785 14.3995 13.9908 14.2849C13.947 14.2276 13.9323 14.1703 13.9031 14.113C13.8593 13.9985 13.8154 13.8696 13.5816 13.6834C13.4062 13.5401 13.3477 13.4112 13.2893 13.2967C13.2308 13.1678 13.1577 13.0532 12.9969 12.9243C13.1431 13.0675 13.2016 13.1821 13.2746 13.2967C13.3331 13.4256 13.4062 13.5545 13.5816 13.6977C13.8008 13.8839 13.8593 14.0128 13.9031 14.1274C13.9177 14.1846 13.947 14.2419 13.9908 14.2992C14.0347 14.3995 14.137 14.4424 14.1954 14.4424Z" fill="#7A361D"/>
<path d="M13.1286 12.867C13.3917 13.1534 13.3624 13.4399 13.6548 13.6547C13.3771 13.5258 13.3917 13.2107 13.0847 12.9243L13.1286 12.867Z" fill="#7A361D"/>
<path d="M12.3683 12.0506L11.3306 9.30077C11.3306 9.30077 11.316 9.2578 11.3452 9.24348C11.3744 9.22916 11.4037 9.28645 11.4037 9.28645L12.646 11.9504L12.3683 12.0506Z" fill="#F1BD51"/>
<path d="M12.3536 12.0506L12.3682 12.0506L11.3305 9.30077C11.3305 9.30077 11.3159 9.2578 11.3451 9.24348L11.389 9.27212L12.6313 11.9361L11.4036 9.2578C11.4036 9.2578 11.389 9.22916 11.3598 9.21484L11.3013 9.22916C11.2867 9.2578 11.3013 9.28645 11.3013 9.28645L12.3536 12.0506Z" fill="#7A361D"/>
<path d="M12.4269 12.022L11.7107 10.1315L12.5731 11.9647L12.4269 12.022Z" fill="#7A361D"/>
<path d="M11.8717 11.2199C11.5648 10.9478 11.594 10.6041 11.3017 10.3749C11.0094 10.1458 11.0094 9.85933 10.9509 9.73043C10.8778 9.60153 10.7463 9.60153 10.7609 9.55856C10.7755 9.5156 10.9217 9.52992 11.0386 9.68746C11.1555 9.84501 11.0971 10.0026 11.4478 10.289C11.7986 10.5754 11.7109 10.8046 12.0325 11.0481L11.8717 11.2199Z" fill="#F1BD51"/>
<path d="M11.857 11.2199C11.7254 11.0767 11.6524 10.9192 11.5793 10.776C11.5062 10.6327 11.4477 10.4895 11.3016 10.3606C11.097 10.1887 11.0385 10.0026 10.9947 9.85933C10.98 9.80204 10.9654 9.75907 10.9508 9.71611C10.907 9.63017 10.8485 9.60153 10.8047 9.58721C10.7754 9.57288 10.7608 9.57288 10.7608 9.55856C10.8339 9.54424 10.9362 9.57288 11.0239 9.70178C11.0677 9.75907 11.0824 9.81636 11.1116 9.87365C11.1554 9.98823 11.1993 10.1171 11.4331 10.3033C11.6085 10.4465 11.667 10.5754 11.7254 10.69C11.7839 10.8189 11.857 10.9335 12.0178 11.0624C11.8716 10.9192 11.7985 10.8046 11.7401 10.69C11.6816 10.5611 11.6085 10.4322 11.4331 10.289C11.2139 10.1028 11.1554 9.97391 11.1116 9.85933C11.097 9.80204 11.0677 9.74475 11.0239 9.68746C10.9362 9.57288 10.8339 9.5156 10.7608 9.52992L10.717 9.55856C10.7023 9.58721 10.7316 9.60153 10.7608 9.61585C10.8047 9.63017 10.8631 9.65882 10.8923 9.73043C10.907 9.7734 10.9216 9.81636 10.9362 9.87365C10.98 10.0169 11.0385 10.2174 11.2431 10.3893C11.3893 10.5038 11.4477 10.6471 11.5208 10.7903C11.6378 10.9335 11.7108 11.091 11.857 11.2199Z" fill="#7A361D"/>
<path d="M11.8716 11.1197C11.6085 10.8332 11.6377 10.5468 11.3454 10.332C11.6231 10.4609 11.6085 10.776 11.9154 11.0624L11.8716 11.1197Z" fill="#7A361D"/>
<path d="M12.4416 11.8501L15.2478 10.8332C15.2478 10.8332 15.2917 10.8189 15.3209 10.8476C15.3355 10.8762 15.2771 10.9049 15.2771 10.9049L12.5585 12.1222L12.4416 11.8501Z" fill="#F1BD51"/>
<path d="M12.5585 12.1222L15.2917 10.9192C15.3063 10.9049 15.3501 10.8905 15.3355 10.8476C15.3209 10.8189 15.277 10.8189 15.2624 10.8332L12.4562 11.8501L12.4562 11.8644L15.2624 10.8476C15.2624 10.8476 15.3063 10.8332 15.3209 10.8619C15.3355 10.8905 15.2917 10.9049 15.2917 10.9049L12.5585 12.1222Z" fill="#7A361D"/>
<path d="M12.4708 11.9217L14.4 11.2199L12.5292 12.0506L12.4708 11.9217Z" fill="#7A361D"/>
<path d="M13.289 11.3775C13.5667 11.0767 13.9174 11.091 14.1513 10.8189C14.3851 10.5468 14.6775 10.5325 14.809 10.4752C14.9405 10.4036 14.9405 10.2747 14.9844 10.289C15.0282 10.3033 15.0136 10.4465 14.8528 10.5611C14.6921 10.6757 14.5313 10.6184 14.239 10.9478C13.9467 11.2915 13.7128 11.2056 13.4644 11.5207L13.289 11.3775Z" fill="#F1BD51"/>
<path d="M13.4502 11.535C13.5963 11.3918 13.7133 11.3202 13.8448 11.2629C13.9763 11.2056 14.1079 11.134 14.254 10.9621C14.444 10.7473 14.5756 10.69 14.6925 10.647C14.751 10.6327 14.8094 10.6041 14.8679 10.5611C14.9848 10.4752 15.0433 10.3606 15.0287 10.3033L14.9994 10.2603C14.9702 10.246 14.9556 10.2747 14.941 10.3033C14.9264 10.3463 14.8971 10.4036 14.8241 10.4322C14.7948 10.4465 14.7364 10.4609 14.6925 10.4752C14.5464 10.5181 14.3417 10.5754 14.1663 10.7759C14.0494 10.9192 13.9033 10.9765 13.7571 11.0481C13.611 11.1197 13.4502 11.1913 13.304 11.3345L13.3186 11.3488C13.4648 11.2056 13.611 11.134 13.7571 11.0624C13.9033 10.9908 14.0494 10.9335 14.181 10.7903C14.3564 10.5898 14.561 10.5325 14.7071 10.4895C14.7656 10.4752 14.8094 10.4609 14.8387 10.4465C14.9264 10.4036 14.9556 10.3463 14.9702 10.3033C14.9848 10.2747 14.9848 10.2603 14.9994 10.2603C15.0141 10.332 14.9848 10.4322 14.8533 10.5181C14.7948 10.5611 14.7364 10.5754 14.6925 10.6041C14.5756 10.647 14.444 10.69 14.254 10.9192C14.1079 11.091 13.9763 11.1483 13.8594 11.2056C13.6986 11.3059 13.5817 11.3632 13.4502 11.535Z" fill="#7A361D"/>
<path d="M13.3915 11.3775C13.6838 11.1197 13.9761 11.1483 14.1953 10.8619C14.0638 11.134 13.7423 11.1197 13.4499 11.4205L13.3915 11.3775Z" fill="#7A361D"/>
<path d="M12.5583 12.1222L9.75214 13.1391C9.75214 13.1391 9.69367 13.1534 9.67906 13.1248C9.66444 13.0962 9.72291 13.0675 9.72291 13.0675L12.4414 11.8501L12.5583 12.1222Z" fill="#F1BD51"/>
<path d="M9.7229 13.1534C9.73752 13.1534 9.75213 13.1534 9.75213 13.1534L12.5583 12.1366L12.5583 12.1222L9.75213 13.1391C9.75213 13.1391 9.70829 13.1534 9.69367 13.1248C9.67905 13.0961 9.7229 13.0818 9.7229 13.0818L12.4414 11.8644L9.70828 13.0675C9.69367 13.0818 9.64982 13.0961 9.66444 13.1391C9.67905 13.1534 9.70829 13.1534 9.7229 13.1534Z" fill="#7A361D"/>
<path d="M12.5295 12.0506L10.6002 12.7524L12.471 11.9217L12.5295 12.0506Z" fill="#7A361D"/>
<path d="M11.7107 12.6092C11.433 12.91 11.0822 12.8813 10.8484 13.1678C10.6145 13.4399 10.3222 13.4542 10.1907 13.5115C10.0591 13.5831 10.0591 13.712 10.0153 13.6834C9.97145 13.669 9.98606 13.5258 10.1468 13.4112C10.3076 13.2967 10.4684 13.3539 10.7607 13.0245C11.053 12.6808 11.2869 12.7667 11.5353 12.4373L11.7107 12.6092Z" fill="#F1BD51"/>
<path d="M10.0299 13.6977C10.0445 13.6977 10.0592 13.669 10.0738 13.6547C10.0884 13.6117 10.1176 13.5545 10.1907 13.5258C10.2199 13.5115 10.2784 13.4972 10.3222 13.4828C10.4684 13.4399 10.673 13.3826 10.8484 13.1821C10.9653 13.0389 11.1115 12.9816 11.2576 12.91C11.4038 12.8384 11.5646 12.7667 11.7107 12.6235L11.6961 12.6092C11.55 12.7524 11.4038 12.824 11.2576 12.8956C11.1115 12.9673 10.9653 13.0245 10.8338 13.1678C10.6584 13.3683 10.4538 13.4256 10.3076 13.4685C10.2492 13.4829 10.2053 13.4972 10.1615 13.5115C10.0738 13.5545 10.0445 13.6117 10.0299 13.6547C10.0153 13.6834 10.0007 13.6977 10.0007 13.6977C9.98608 13.6261 10.0153 13.5258 10.1469 13.4399C10.2053 13.3969 10.2492 13.3826 10.3076 13.3539C10.4245 13.311 10.5561 13.268 10.7461 13.0389C10.8922 12.867 11.0238 12.8097 11.1407 12.7524C11.2723 12.6951 11.3892 12.6235 11.5207 12.466C11.3746 12.6092 11.2576 12.6808 11.1407 12.7381C11.0092 12.7954 10.8776 12.867 10.7315 13.0389C10.5415 13.2537 10.4099 13.311 10.293 13.3539C10.2345 13.3683 10.1761 13.3969 10.1176 13.4399C9.98608 13.5401 9.94223 13.6404 9.95685 13.6977L10.0299 13.6977C10.0299 13.6977 10.0153 13.6977 10.0299 13.6977Z" fill="#7A361D"/>
<path d="M11.6084 12.5949C11.3161 12.8527 11.0237 12.824 10.8045 13.1105C10.936 12.8384 11.2576 12.8527 11.5499 12.5519L11.6084 12.5949Z" fill="#7A361D"/>
<path d="M12.5585 11.8501L15.2771 13.0675C15.2771 13.0675 15.3355 13.0818 15.3209 13.1248C15.3063 13.1534 15.2478 13.1391 15.2478 13.1391L12.4416 12.1222L12.5585 11.8501Z" fill="#F1BD51"/>
<path d="M15.2771 13.1534C15.2917 13.1534 15.3063 13.1534 15.3209 13.1248C15.3355 13.0961 15.3063 13.0675 15.2771 13.0532L12.5585 11.8358L12.5439 11.8501L15.2624 13.0675C15.2624 13.0675 15.3063 13.0818 15.2917 13.1105C15.2771 13.1391 15.2332 13.1248 15.2332 13.1248L12.427 12.1079L15.2332 13.1391C15.2624 13.1534 15.2624 13.1534 15.2771 13.1534Z" fill="#7A361D"/>
<path d="M12.5292 11.9217L14.4 12.7524L12.4708 12.0506L12.5292 11.9217Z" fill="#7A361D"/>
<path d="M13.5088 12.0936C13.9181 12.0793 14.1519 12.3228 14.5173 12.2941C14.8827 12.2655 15.1019 12.466 15.2335 12.5089C15.3796 12.5519 15.4673 12.466 15.4819 12.4946C15.4965 12.5376 15.3942 12.6235 15.1896 12.5949C14.985 12.5662 14.9265 12.4087 14.4734 12.4517C14.0204 12.4803 13.9181 12.2655 13.5088 12.3228L13.5088 12.0936V12.0936Z" fill="#F1BD51"/>
<path d="M15.2621 12.6235C15.379 12.6235 15.4521 12.5805 15.4813 12.5519L15.4959 12.5089C15.4813 12.4803 15.4521 12.4946 15.4228 12.5089C15.379 12.5233 15.3205 12.5376 15.2328 12.5233C15.189 12.5089 15.1451 12.4946 15.1013 12.466C14.9697 12.3944 14.7797 12.2941 14.502 12.3084C14.312 12.3227 14.1659 12.2655 14.0197 12.2082C13.859 12.1509 13.7128 12.0936 13.4936 12.1079L13.4936 12.1222C13.6982 12.1222 13.859 12.1652 14.0051 12.2225C14.1659 12.2798 14.312 12.3371 14.502 12.3227C14.7651 12.2941 14.9551 12.3944 15.0867 12.466C15.1305 12.4946 15.189 12.5233 15.2182 12.5233C15.3059 12.5519 15.3644 12.5233 15.4082 12.5089C15.4374 12.4946 15.4521 12.4946 15.4521 12.5089C15.4228 12.5662 15.3205 12.6235 15.1597 12.5949C15.0867 12.5805 15.0428 12.5662 14.9844 12.5376C14.8674 12.4803 14.7505 12.423 14.4436 12.4516C14.2243 12.466 14.0782 12.423 13.9466 12.38C13.8151 12.3371 13.6836 12.2941 13.4643 12.3227C13.6836 12.3084 13.8005 12.3514 13.932 12.3944C14.0636 12.4373 14.2097 12.4803 14.429 12.466C14.7213 12.4373 14.8528 12.4946 14.9551 12.5519C15.0136 12.5805 15.0721 12.6092 15.1305 12.6092C15.2182 12.6092 15.2474 12.6235 15.2621 12.6235Z" fill="#7A361D"/>
<path d="M13.567 12.1795C13.9616 12.1938 14.137 12.423 14.5024 12.38C14.2101 12.4803 13.9908 12.2511 13.567 12.2655L13.567 12.1795Z" fill="#7A361D"/>
<path d="M12.4414 12.1222L9.72291 10.9049C9.72291 10.9049 9.66444 10.8905 9.67906 10.8476C9.69367 10.8189 9.75214 10.8332 9.75214 10.8332L12.5583 11.8501L12.4414 12.1222Z" fill="#F1BD51"/>
<path d="M12.4415 12.1366L12.4561 12.1222L9.73761 10.9049C9.73761 10.9049 9.69376 10.8905 9.70838 10.8619C9.72299 10.8332 9.76684 10.8476 9.76684 10.8476L12.5731 11.8644L9.76684 10.8332C9.75223 10.8189 9.70838 10.8189 9.69376 10.8476C9.67915 10.8762 9.72299 10.9049 9.73761 10.9192L12.4415 12.1366Z" fill="#7A361D"/>
<path d="M12.471 12.0506L10.6002 11.2199L12.5295 11.9217L12.471 12.0506Z" fill="#7A361D"/>
<path d="M11.4913 11.8788C11.0821 11.8931 10.8482 11.6496 10.4829 11.6783C10.1175 11.7069 9.89822 11.5064 9.76668 11.4634C9.62053 11.4205 9.53283 11.5207 9.51821 11.4777C9.5036 11.4348 9.60591 11.3488 9.81053 11.3775C10.0151 11.4061 10.0736 11.5637 10.5267 11.5207C10.9798 11.4921 11.0821 11.7069 11.4913 11.6496L11.4913 11.8788Z" fill="#F1BD51"/>
<path d="M11.4624 11.8931C11.477 11.8931 11.4916 11.8931 11.5062 11.8931L11.5062 11.8788C11.3016 11.8788 11.1408 11.8358 10.9946 11.7785C10.8339 11.7212 10.6877 11.6639 10.4977 11.6783C10.2346 11.7069 10.0446 11.6066 9.91309 11.535C9.86924 11.5064 9.82539 11.4777 9.78155 11.4777C9.69385 11.4491 9.63539 11.4777 9.59154 11.4921C9.56231 11.5064 9.5477 11.5064 9.5477 11.4921C9.57693 11.4348 9.67924 11.3775 9.84001 11.4061C9.91309 11.4205 9.95693 11.4348 10.0154 11.4634C10.1323 11.5207 10.2639 11.578 10.5562 11.5494C10.7754 11.535 10.9216 11.578 11.0531 11.621C11.1847 11.6639 11.3162 11.7069 11.5354 11.6783C11.3308 11.6926 11.1993 11.6496 11.0677 11.6066C10.9362 11.5637 10.79 11.5207 10.5708 11.535C10.2785 11.5637 10.1469 11.5064 10.0446 11.4491C9.98617 11.4205 9.9277 11.3918 9.86924 11.3918C9.72308 11.3632 9.60616 11.4061 9.57693 11.4634L9.56231 11.5064C9.57693 11.535 9.60616 11.5207 9.63539 11.5064C9.67924 11.4921 9.7377 11.4777 9.82539 11.4921C9.86924 11.5064 9.91309 11.5207 9.95693 11.5494C10.0885 11.621 10.2785 11.7212 10.5562 11.7069C10.7316 11.6926 10.8923 11.7499 11.0385 11.8072C11.1262 11.8358 11.2723 11.8931 11.4624 11.8931Z" fill="#7A361D"/>
<path d="M11.4331 11.8072C11.0385 11.7928 10.8631 11.5637 10.4977 11.6066C10.79 11.5064 11.0092 11.7355 11.4331 11.7355L11.4331 11.8072Z" fill="#7A361D"/>
<path d="M12.3682 11.9361L13.6106 9.27213C13.6106 9.27213 13.6252 9.21484 13.669 9.22916C13.6982 9.24348 13.6836 9.28645 13.6836 9.28645L12.6459 12.0363L12.3682 11.9361Z" fill="#F1BD51"/>
<path d="M12.6317 12.0363L13.6986 9.28645C13.6986 9.28645 13.7133 9.2578 13.6986 9.22916L13.6402 9.20052C13.6109 9.21484 13.5963 9.24348 13.5963 9.24348L12.354 11.9074L12.3686 11.9217L13.6402 9.21484L13.6548 9.22916L13.6694 9.28645L12.6317 12.0363Z" fill="#7A361D"/>
<path d="M12.4271 11.9647L13.2895 10.1315L12.5733 12.022L12.4271 11.9647Z" fill="#7A361D"/>
<path d="M12.6025 11.0051C12.5879 10.6041 12.8364 10.3749 12.8072 10.0169C12.7779 9.65882 12.9825 9.44399 13.0264 9.31509C13.0702 9.17187 12.9679 9.08594 13.0118 9.07161C13.0556 9.05729 13.1433 9.15755 13.1141 9.35806C13.0849 9.55857 12.9241 9.61586 12.9679 10.0598C12.9972 10.5038 12.7779 10.6041 12.8364 11.0051L12.6025 11.0051Z" fill="#F1BD51"/>
<path d="M12.6022 11.0051L12.6168 11.0051C12.6022 10.8046 12.6753 10.6471 12.7191 10.5038C12.7776 10.3463 12.8361 10.2031 12.8215 10.0169C12.7922 9.75907 12.8945 9.57288 12.9676 9.44399C12.9968 9.40102 13.0261 9.35805 13.0261 9.31509C13.0553 9.22915 13.0261 9.17186 13.0115 9.1289C12.9968 9.10025 12.9968 9.08593 13.0115 9.08593C13.0845 9.11457 13.1284 9.21483 13.0992 9.37237C13.0845 9.44399 13.0699 9.48695 13.0407 9.54424C12.9822 9.65882 12.9238 9.7734 12.953 10.0742C12.9676 10.289 12.9238 10.4322 12.8799 10.5611C12.8361 10.69 12.7922 10.8189 12.8215 11.0194C12.8068 10.8189 12.8507 10.69 12.8945 10.5611C12.9384 10.4322 12.9822 10.289 12.9676 10.0742C12.9384 9.78772 12.9968 9.65882 13.0553 9.55856C13.0845 9.50127 13.1138 9.44399 13.1138 9.3867C13.143 9.24347 13.0992 9.1289 13.0407 9.10025L12.9968 9.08593C12.9676 9.10025 12.9822 9.1289 12.9968 9.15754C13.0115 9.20051 13.0261 9.2578 13.0115 9.34373C12.9968 9.3867 12.9822 9.42966 12.953 9.47263C12.8799 9.60153 12.7776 9.78772 12.8068 10.0598C12.8215 10.246 12.763 10.3893 12.7045 10.5325C12.6461 10.6471 12.5876 10.8046 12.6022 11.0051Z" fill="#7A361D"/>
<path d="M12.6904 10.9335C12.705 10.5468 12.9389 10.3749 12.895 10.0169C12.9973 10.3033 12.7635 10.5181 12.7781 10.9335L12.6904 10.9335Z" fill="#7A361D"/>
<path d="M12.646 12.0506L11.4037 14.7146C11.4037 14.7146 11.389 14.7718 11.3452 14.7575C11.316 14.7432 11.3306 14.6859 11.3306 14.6859L12.3683 11.9361L12.646 12.0506Z" fill="#F1BD51"/>
<path d="M11.3306 14.7575C11.3891 14.7432 11.4037 14.7146 11.4037 14.7146L12.646 12.0506L12.6314 12.0363L11.389 14.7002C11.389 14.7002 11.3744 14.7432 11.3452 14.7289C11.316 14.7146 11.3306 14.6716 11.3306 14.6716L12.3683 11.9217L11.316 14.6716C11.3014 14.7002 11.3014 14.7432 11.3306 14.7575Z" fill="#7A361D"/>
<path d="M12.5731 12.022L11.7107 13.8552L12.4269 11.9647L12.5731 12.022Z" fill="#7A361D"/>
<path d="M12.3977 12.9672C12.4123 13.3683 12.1638 13.5974 12.193 13.9555C12.2223 14.3135 12.0177 14.5284 11.9738 14.6573C11.93 14.8005 12.0323 14.8864 11.9884 14.9007C11.9446 14.9151 11.8569 14.8148 11.8861 14.6143C11.9153 14.4138 12.0761 14.3565 12.0323 13.9125C11.9884 13.4685 12.2223 13.3683 12.1638 12.9672L12.3977 12.9672Z" fill="#F1BD51"/>
<path d="M11.9885 14.9151C12.0177 14.9007 12.0031 14.8721 11.9885 14.8435C11.9739 14.8005 11.9593 14.7432 11.9739 14.6573C11.9885 14.6143 12.0031 14.5713 12.0323 14.5284C12.1054 14.3995 12.2077 14.2133 12.1785 13.9412C12.1639 13.7693 12.2223 13.6118 12.2808 13.4685C12.3393 13.311 12.3977 13.1534 12.3977 12.9529L12.3831 12.9529C12.3977 13.1534 12.3393 13.311 12.2808 13.4542C12.2223 13.6118 12.1639 13.755 12.1785 13.9412C12.2077 14.199 12.1054 14.3851 12.0323 14.514C12.0031 14.557 11.9739 14.6143 11.9739 14.6429C11.9446 14.7289 11.9739 14.7862 11.9885 14.8291C12.0031 14.8578 12.0031 14.8721 11.9885 14.8721C11.93 14.8435 11.8716 14.7432 11.9008 14.5857C11.9154 14.514 11.93 14.4711 11.9593 14.4138C12.0177 14.2992 12.0762 14.1846 12.047 13.8839C12.0323 13.669 12.0762 13.5258 12.12 13.3969C12.1639 13.268 12.2077 13.1391 12.1785 12.9243C12.1931 13.1248 12.1493 13.2537 12.1054 13.3826C12.0616 13.5115 12.0177 13.6547 12.0323 13.8696C12.0616 14.156 12.0031 14.2849 11.9446 14.3851C11.9154 14.4424 11.8862 14.4997 11.8862 14.557C11.8716 14.7002 11.9154 14.8148 11.9593 14.8435L11.9885 14.9151Z" fill="#7A361D"/>
<path d="M12.3101 13.0389C12.2955 13.4256 12.0616 13.5974 12.1055 13.9555C12.0032 13.669 12.237 13.4542 12.237 13.0389L12.3101 13.0389Z" fill="#7A361D"/>
<path d="M12.4999 10.7903C11.8276 10.7903 11.2868 11.3202 11.2868 11.979C11.2868 12.6378 11.8276 13.1678 12.4999 13.1678C13.1722 13.1678 13.713 12.6378 13.713 11.979C13.713 11.3345 13.1722 10.7903 12.4999 10.7903Z" fill="#F1BD51"/>
<path d="M12.5 13.1964C13.1723 13.1964 13.7277 12.6522 13.7277 11.9933C13.7277 11.3345 13.1723 10.7903 12.5 10.7903C11.8276 10.7903 11.2723 11.3345 11.2723 11.9933C11.2723 12.6522 11.8276 13.1964 12.5 13.1964ZM12.5 10.8046C13.1723 10.8046 13.7131 11.3345 13.7131 11.9933C13.7131 12.6522 13.1723 13.1821 12.5 13.1821C11.8276 13.1821 11.2869 12.6522 11.2869 11.9933C11.2869 11.3345 11.8276 10.8046 12.5 10.8046Z" fill="#7A361D"/>
<path d="M11.7256 11.7355C11.9449 11.5494 12.2079 11.5207 12.3687 11.6639C12.471 11.8072 12.471 11.979 12.3395 12.1509C12.3541 12.1509 12.3687 12.1652 12.3833 12.1652C12.471 11.9933 12.5003 11.8072 12.4272 11.6353C12.2226 11.4777 11.9302 11.4491 11.7256 11.7355Z" fill="#7A361D"/>
<path d="M12.0616 11.6783C12.1785 11.6783 12.2077 11.7069 12.2662 11.7499C12.3247 11.7928 12.3539 11.7928 12.3539 11.7928C12.3685 11.8072 12.3539 11.8358 12.3393 11.8215C12.3247 11.8072 12.2808 11.7928 12.2224 11.7499C12.1639 11.7069 12.1054 11.7069 12.047 11.7069C11.8862 11.7069 11.7839 11.8501 11.7693 11.8358C11.7693 11.8215 11.8862 11.6783 12.0616 11.6783Z" fill="#7A361D"/>
<path d="M11.8569 11.8358C11.9739 11.7069 12.2077 11.6926 12.2954 11.8501L12.2516 11.8501C12.1639 11.7069 11.93 11.7642 11.9154 11.8358L11.8569 11.8358Z" fill="#7A361D"/>
<path d="M12.0907 11.7355C12.0468 11.7355 12.003 11.7785 12.003 11.8215C12.003 11.8644 12.0468 11.9074 12.0907 11.9074C12.1345 11.9074 12.1784 11.8644 12.1784 11.8215C12.1784 11.7785 12.1345 11.7355 12.0907 11.7355Z" fill="#7A361D"/>
<path d="M12.2954 11.8358C12.2077 11.9217 12.0031 11.9217 11.8569 11.8215L11.9154 11.8072C12.0031 11.9074 12.1639 11.8931 12.2516 11.8215L12.2516 11.8072L12.2954 11.8358Z" fill="#7A361D"/>
<path d="M11.842 11.8788C12.0028 11.9933 12.1636 11.9933 12.2513 11.9361C12.339 11.8788 12.339 11.8644 12.3244 11.8644C12.3097 11.8644 12.2805 11.8788 12.2074 11.9217C12.149 11.9504 12.032 11.9504 11.842 11.8788Z" fill="#7A361D"/>
<path d="M12.3102 12.1509C12.281 12.1652 12.2664 12.1939 12.281 12.2225C12.2956 12.2511 12.3249 12.2655 12.3541 12.2511C12.3687 12.2511 12.3833 12.2225 12.3979 12.2082C12.4126 12.2225 12.4418 12.2798 12.5149 12.2798L12.5295 12.2798L12.5149 12.3084C12.5002 12.3084 12.4418 12.3084 12.3979 12.2798C12.3687 12.3228 12.3249 12.3228 12.281 12.2941C12.2372 12.2655 12.2372 12.2225 12.2664 12.1795C12.2664 12.1652 12.281 12.1509 12.3102 12.1509Z" fill="#7A361D"/>
<path d="M12.1927 12.5376C12.2804 12.4803 12.3096 12.3944 12.4119 12.3944C12.4266 12.3944 12.4704 12.4087 12.4996 12.423L12.5143 12.423L12.4996 12.4516C12.4558 12.4516 12.4119 12.4087 12.3389 12.4373C12.2804 12.4803 12.2366 12.5233 12.1927 12.5376Z" fill="#7A361D"/>
<path d="M12.2219 12.5376C12.4119 12.4803 12.4412 12.5233 12.4996 12.5233L12.5143 12.5233L12.4996 12.5662C12.4266 12.5519 12.3827 12.5089 12.2219 12.5376Z" fill="#7A361D"/>
<path d="M12.1927 12.5376C12.3973 12.5233 12.3389 12.6378 12.4996 12.6378L12.5143 12.6378L12.4996 12.6665C12.295 12.6665 12.3827 12.5519 12.1927 12.5376Z" fill="#7A361D"/>
<path d="M12.3246 12.8384C12.3246 12.7524 12.3977 12.6665 12.5 12.6665C12.5877 12.6665 12.6754 12.7381 12.6754 12.8384C12.6608 12.7524 12.5585 12.6951 12.4708 12.7094C12.3977 12.7238 12.3538 12.7667 12.3246 12.8384Z" fill="#7A361D"/>
<path d="M13.2747 11.7355C13.0555 11.5494 12.7924 11.5207 12.6317 11.6639C12.5294 11.8072 12.5294 11.979 12.6609 12.1509C12.6463 12.1509 12.6317 12.1652 12.617 12.1652C12.5294 11.9933 12.5001 11.8072 12.5732 11.6353C12.7778 11.4777 13.0701 11.4491 13.2747 11.7355Z" fill="#7A361D"/>
<path d="M12.9384 11.6783C12.8214 11.6783 12.7922 11.7069 12.7337 11.7499C12.6753 11.7928 12.6461 11.7928 12.6461 11.7928C12.6314 11.8072 12.6461 11.8358 12.6607 11.8215C12.6753 11.8072 12.7191 11.7928 12.7776 11.7499C12.8361 11.7069 12.8945 11.7069 12.953 11.7069C13.1138 11.7069 13.2161 11.8501 13.2307 11.8358C13.2307 11.8215 13.1138 11.6783 12.9384 11.6783Z" fill="#7A361D"/>
<path d="M13.143 11.8358C13.0261 11.7069 12.7923 11.6926 12.7046 11.8501L12.7484 11.8501C12.8361 11.7069 13.07 11.7642 13.0846 11.8358L13.143 11.8358Z" fill="#7A361D"/>
<path d="M12.9094 11.7355C12.9533 11.7355 12.9971 11.7785 12.9971 11.8215C12.9971 11.8644 12.9533 11.9074 12.9094 11.9074C12.8656 11.9074 12.8217 11.8644 12.8217 11.8215C12.8364 11.7785 12.8656 11.7355 12.9094 11.7355Z" fill="#7A361D"/>
<path d="M12.7046 11.8358C12.7923 11.9217 12.9969 11.9217 13.143 11.8215L13.0846 11.8072C12.9969 11.9074 12.8361 11.8931 12.7484 11.8215L12.7484 11.8072L12.7046 11.8358Z" fill="#7A361D"/>
<path d="M13.1577 11.8788C12.9969 11.9933 12.8362 11.9933 12.7485 11.9361C12.6608 11.8788 12.6608 11.8644 12.6754 11.8644C12.69 11.8644 12.7192 11.8788 12.7923 11.9217C12.8508 11.9504 12.9677 11.9504 13.1577 11.8788Z" fill="#7A361D"/>
<path d="M12.7046 12.1509C12.7338 12.1652 12.7484 12.1939 12.7338 12.2225C12.7192 12.2511 12.69 12.2655 12.6607 12.2511C12.6461 12.2511 12.6315 12.2225 12.6169 12.2082C12.6023 12.2225 12.573 12.2798 12.5 12.2798L12.4853 12.2798L12.5 12.3084C12.5146 12.3084 12.573 12.3084 12.6169 12.2798C12.6461 12.3228 12.69 12.3228 12.7338 12.2941C12.7777 12.2655 12.7777 12.2225 12.7484 12.1795C12.7338 12.1652 12.7192 12.1509 12.7046 12.1509Z" fill="#7A361D"/>
<path d="M12.8066 12.5376C12.7189 12.4803 12.6897 12.3944 12.5874 12.3944C12.5728 12.3944 12.5289 12.4087 12.4851 12.423L12.4704 12.423L12.4851 12.4516C12.5289 12.4516 12.5874 12.4087 12.6458 12.4373C12.7189 12.4803 12.7628 12.5233 12.8066 12.5376Z" fill="#7A361D"/>
<path d="M12.7777 12.5376C12.5877 12.4803 12.5585 12.5233 12.5 12.5233L12.4854 12.5233L12.5 12.5662C12.5731 12.5519 12.617 12.5089 12.7777 12.5376Z" fill="#7A361D"/>
<path d="M12.8066 12.5376C12.602 12.5233 12.6605 12.6378 12.4997 12.6378L12.4851 12.6378L12.4997 12.6665C12.7043 12.6665 12.6166 12.5519 12.8066 12.5376Z" fill="#7A361D"/>
<path d="M12.6754 12.8384C12.6754 12.7524 12.6023 12.6665 12.5 12.6665C12.4123 12.6665 12.3246 12.7381 12.3246 12.8384C12.3392 12.7524 12.4415 12.6951 12.5292 12.7094C12.6023 12.7238 12.6608 12.7667 12.6754 12.8384Z" fill="#7A361D"/>
</g>
</svg>
