<svg width="24" height="24" viewBox="0 0 24 24" fill="none" xmlns="http://www.w3.org/2000/svg">
<g clip-path="url(#clip0)">
<path d="M4 19.9733H21.3333C22.0406 19.9733 22.7189 19.7149 23.219 19.2548C23.719 18.7947 24 18.1707 24 17.52V15.0667H4V19.9733Z" fill="#4AA657"/>
<path d="M21.3333 4.02667H4V15.0667H24V6.48001C24 5.82934 23.719 5.20533 23.219 4.74524C22.7189 4.28515 22.0406 4.02667 21.3333 4.02667V4.02667Z" fill="#C8313E"/>
<path d="M2.66667 4.02667C1.95942 4.02667 1.28115 4.28515 0.781049 4.74524C0.280952 5.20533 0 5.82934 0 6.48001L0 17.52C0 18.1707 0.280952 18.7947 0.781049 19.2548C1.28115 19.7149 1.95942 19.9733 2.66667 19.9733H4V4.02667H2.66667Z" fill="white"/>
<path d="M0.510668 18.862L0.927335 18.1818L1.35467 18.8816L0.993335 19.4158C1.10701 19.5011 1.22833 19.5775 1.356 19.644L1.884 18.7626L0.937335 17.3667L0.192668 18.4253C0.314668 18.7074 0.493335 18.9601 0.713335 19.1797L0.510668 18.862V18.862ZM3.98733 18.8062L2.98933 17.4433L1.988 18.7749L2.84533 19.9733H3.27667L3.98733 18.8062V18.8062ZM3.01867 18.1812L3.446 18.881L3.01867 19.5133L2.602 18.862L3.01867 18.1812ZM4 12.2042V11.6559L3.79133 11.9233L4 12.2042ZM1.88333 5.26929L1.28733 4.38977C0.765428 4.68162 0.36873 5.12998 0.164001 5.65937L1.02067 6.71001L1.88333 5.26929ZM0.510668 5.36865L0.927335 4.68846L1.35467 5.38827L0.927335 6.02001L0.510668 5.36865ZM3.078 6.80569L3.98733 5.31222L3.046 4.02667H2.932L1.98867 5.28155L3.078 6.80569V6.80569ZM3.44533 5.38766L3.01867 6.02001L2.602 5.36865L3.01867 4.68846L3.44533 5.38766Z" fill="#C8313E"/>
<path d="M3.302 10.16L3.88533 9.26884L4 9.31545V8.93334L3.06267 7.59137L1.93733 9.02902L0.937333 7.55334L0 8.88612V9.28478L0.572667 10.16L0.978667 9.61353L0.687333 9.24001L0.906 8.97137L1.54133 9.72822L0.604 11.1463L0 10.3814V11.3339L0.0386667 11.2867L0.674 12.0436L0 13.0641V13.786L0.604 13.0206L1.54133 14.4386L1.01467 15.0667L0.906 15.1961L0.800667 15.0667L0.687333 14.9275L0.979333 14.5539L0.573333 14.0075L0 14.8833V15.236L0.958667 16.581L1.892 15.0667L1.92733 15.009L1.966 15.0667L3.042 16.6669L4 15.1047V14.8649L3.91667 14.8992L3.33333 14.0075L2.92667 14.5539L3.21867 14.9275L3.10533 15.0667L3 15.1961L2.89133 15.0667L2.36467 14.4392L3.302 13.0212L4 13.905V13.2046L3.22867 12.038L3.864 11.2812L4 11.448V10.2232L3.27067 11.1475L2.33333 9.72884L2.96867 8.97198L3.18733 9.24001L2.89533 9.61353L3.302 10.16V10.16ZM2.85667 11.4057V12.5882L1.92667 13.9394L1.05067 12.5827V11.4124L1.92667 10.0551L2.85667 11.4057Z" fill="#C8313E"/>
<path d="M1.354 11.2781L1.75267 11.9473L1.354 12.6164L1.646 12.7636L1.94267 12.2662L2.23933 12.7636L2.53133 12.6164L2.13267 11.9473L2.53133 11.2781L2.23933 11.1309L1.94267 11.6283L1.646 11.1309L1.354 11.2781ZM0.017334 17.022L0.434001 17.6733L0.861334 17.041L0.434001 16.3412L0.017334 17.022ZM1.028 17.022L1.44467 17.6733L1.87133 17.041L1.44467 16.3412L1.028 17.022ZM2.01733 17.022L2.434 17.6733L2.86133 17.041L2.434 16.3412L2.01733 17.022ZM3.07867 17.022L3.49533 17.6733L3.922 17.041L3.49533 16.3412L3.07867 17.022ZM0.017334 7.17L0.434001 7.82197L0.861334 7.18901L0.434001 6.48981L0.017334 7.17ZM1.028 7.17L1.44467 7.82197L1.87133 7.18901L1.44467 6.48981L1.028 7.17ZM2.01733 7.17L2.434 7.82197L2.86133 7.18901L2.434 6.48981L2.01733 7.17ZM3.07867 7.17L3.49533 7.82197L3.922 7.18901L3.49533 6.48981L3.07867 7.17Z" fill="#C8313E"/>
</g>
<defs>
<clipPath id="clip0">
<rect width="24" height="24" fill="white"/>
</clipPath>
</defs>
</svg>
