<svg width="24" height="24" viewBox="0 0 24 24" fill="none" xmlns="http://www.w3.org/2000/svg">
<path d="M21.3333 3.33334H2.66667C1.95942 3.33334 1.28115 3.61429 0.781049 4.11439C0.280952 4.61449 0 5.29277 0 6.00001L0 9.33334H24V6.00001C24 5.29277 23.719 4.61449 23.219 4.11439C22.7189 3.61429 22.0406 3.33334 21.3333 3.33334V3.33334Z" fill="#EEEEEE"/>
<path d="M0 18C0 18.7072 0.280952 19.3855 0.781049 19.8856C1.28115 20.3857 1.95942 20.6667 2.66667 20.6667H21.3333C22.0406 20.6667 22.7189 20.3857 23.219 19.8856C23.719 19.3855 24 18.7072 24 18V14.6667H0V18Z" fill="#D62612"/>
<path d="M0 9.33334H24V14.6667H0V9.33334Z" fill="#00966E"/>
</svg>
