<svg width="24" height="24" viewBox="0 0 24 24" fill="none" xmlns="http://www.w3.org/2000/svg">
<mask id="mask0" mask-type="alpha" maskUnits="userSpaceOnUse" x="0" y="3" width="24" height="18">
<path d="M2.66667 3.33334H21.3333C22.0406 3.33334 22.7189 3.6143 23.219 4.11439C23.719 4.61449 24 5.29277 24 6.00001V18C24 18.7072 23.719 19.3855 23.219 19.8856C22.7189 20.3857 22.0406 20.6667 21.3333 20.6667H2.66667C1.95942 20.6667 1.28115 20.3857 0.781049 19.8856C0.280952 19.3855 0 18.7072 0 18V6.00001C0 5.29277 0.280952 4.61449 0.781049 4.11439C1.28115 3.6143 1.95942 3.33334 2.66667 3.33334Z" fill="#808A9B"/>
</mask>
<g mask="url(#mask0)">
<path d="M24 3H0V21H24V3Z" fill="#EEEEEE"/>
<path d="M9.12333 8.46952C9.12333 8.70732 9.16245 8.74391 9.16245 8.78049C9.18201 8.81708 9.20157 9.64025 9.06464 9.85976C8.92772 10.0793 8.67342 10.2073 8.57561 10.2256C8.4778 10.2439 8.14526 10.0244 7.85184 9.95122C7.55842 9.85976 7.55842 9.87805 7.44105 9.87805C7.30412 9.87805 7.03026 9.96952 6.95202 10.0427C6.89333 10.0427 6.89333 10.0061 6.85421 10.0427C6.81509 10.0793 6.69772 10.189 6.6586 10.2622C6.61948 10.3354 6.54123 10.6098 6.44342 10.6463C6.34562 10.6829 6.09132 10.9207 5.91527 10.9207C5.73921 10.939 5.7979 10.9207 5.68053 10.9024C5.56316 10.9024 5.56316 10.7927 5.44579 10.7195C5.32843 10.6646 5.30886 10.6098 5.30886 10.6098C5.30886 10.6098 5.26974 10.5 5.23062 10.5C5.1915 10.5 5.13281 10.7012 5.13281 10.7744C5.13281 10.8476 5.25018 11.0488 5.32843 11.1037C5.38711 11.1402 5.38711 11.4146 5.36755 11.4878C5.32843 11.561 5.42623 11.6342 5.44579 11.7073C5.46536 11.7805 5.34799 11.8354 5.40667 11.8537C5.44579 11.872 5.52404 11.9634 5.52404 12.0549C5.52404 12.1463 5.75878 12.1646 5.81746 12.2561C5.85658 12.3476 5.87614 12.4939 5.89571 12.5854C5.91527 12.6768 5.97395 12.6402 5.97395 12.8598C6.0522 12.8963 6.16956 12.9695 6.26737 13.0061C6.36518 13.0427 6.34562 13.1524 6.48255 13.2073C6.59991 13.2439 6.59991 13.2073 6.67816 13.2256C6.73684 13.2439 6.63904 13.2622 6.7564 13.2805C6.87377 13.3171 6.9129 13.2622 7.0107 13.3171C7.10851 13.3537 7.14763 13.4634 7.22588 13.5C7.28456 13.5366 7.55842 13.6098 7.57798 13.6281C7.59754 13.6463 7.7736 13.7012 7.79316 13.7012C7.83228 13.7012 7.93009 13.6463 7.93009 13.6463C7.93009 13.6463 8.04745 13.6829 8.14526 13.6463C8.24307 13.6098 8.30175 13.5366 8.36044 13.5366C8.41912 13.5366 8.43868 13.5732 8.49737 13.5732C8.55605 13.5732 8.65386 13.5366 8.65386 13.5366C8.65386 13.5366 8.79079 13.5 8.90815 13.5732C9.02552 13.6281 9.27982 13.9207 9.27982 14.0305C9.27982 14.1402 9.26026 14.2134 9.26026 14.2134C9.26026 14.2134 9.39719 14.1951 9.43631 14.2317C9.47543 14.2683 9.47543 14.2134 9.82754 14.2683C9.80798 14.1951 9.45587 13.9573 9.78841 13.6281C10.1014 13.2988 10.121 13.4268 10.1992 13.372C10.2774 13.3171 10.5709 13.1342 11.0599 13.2988C11.5294 13.2256 11.1773 13.1707 11.4511 13.1524C11.4903 13.1342 11.5881 13.1524 11.6859 13.189C11.725 13.1342 11.7837 13.0793 11.901 13.0976C11.9206 13.0427 12.0575 12.9695 12.1945 12.9695C12.214 12.8781 12.5466 12.75 12.7422 12.7317C12.8204 12.6585 12.9182 12.3659 13.3486 12.5122C13.3681 12.4207 13.4268 12.2561 13.5638 12.2378C13.5833 12.0366 13.5051 11.6342 13.7202 11.4878C13.9354 11.3049 14.131 11.3415 14.5027 11.3598C14.757 11.4146 14.8744 11.5793 14.9526 11.5976C15.0309 11.6159 15.07 11.6159 15.1678 11.561C15.2656 11.5061 15.1482 11.3781 15.2265 11.3781C15.3047 11.3781 15.2656 11.3963 15.4025 11.3781C15.5199 11.3598 15.5199 11.3232 15.5981 11.3049C15.7155 11.3598 15.872 11.3232 15.9307 11.3598C15.9894 11.3963 16.0089 11.3963 16.1459 11.4146C16.185 11.4878 16.3219 11.4878 16.3219 11.4878C16.3219 11.4878 16.2241 11.4512 16.2632 11.4146C16.3023 11.3781 16.2632 11.2317 16.2045 11.1768C16.1459 11.122 16.1067 11.1037 16.0676 11.0488C16.0285 10.9939 16.0872 10.9939 16.0089 10.9207C15.9307 10.8476 15.7546 10.7744 15.7155 10.6829C15.6764 10.5915 15.6764 10.5366 15.5981 10.4634C15.5199 10.3902 15.2069 10.1342 15.1873 9.87805C15.1678 9.60366 15.2069 9.34757 15.4025 9.27439C15.4025 9.10976 15.4416 9.09147 15.6177 9C15.7937 8.90854 15.8133 8.96342 15.9111 8.96342C16.0285 8.96342 16.0872 8.98171 16.2045 8.90854C16.3219 8.83537 16.2241 8.67074 16.498 8.43293C16.7914 8.19513 16.8892 8.08537 16.987 8.06708C17.0848 8.04878 17.4173 7.82927 17.5738 7.84757C17.6716 7.73781 17.789 7.59147 17.9064 7.5C18.0237 7.40854 18.1802 7.40854 18.2389 7.33537C18.2976 7.2622 18.278 7.13415 18.4737 7.0061C18.6693 6.89635 18.8258 6.80488 18.904 6.75C18.9822 6.69513 19.1583 6.73171 19.217 6.67683C19.2757 6.62196 19.2757 6.40244 19.3344 6.34757C19.393 6.31098 19.1192 6.45732 18.9823 6.5122C18.8453 6.56708 18.6301 6.67683 18.4541 6.65854C18.278 6.64025 18.3758 6.75 18.278 6.7683C18.1802 6.80488 18.0237 6.78659 17.9651 6.84147C17.9064 6.89635 17.789 7.04269 17.6912 7.11586C17.5934 7.17074 17.5543 7.15244 17.4565 7.20732C17.3587 7.24391 17.2804 7.29878 17.2022 7.31708C17.1239 7.35366 16.8892 7.33537 16.8892 7.33537C16.8892 7.33537 16.6936 7.59147 16.5958 7.68293C16.498 7.77439 16.3806 7.7561 16.3023 7.79269C16.2045 7.82927 15.4025 8.32317 14.8548 8.39635C14.3071 8.46952 14.5614 8.35976 14.3853 8.39635C14.2093 8.43293 13.955 8.74391 13.7594 8.7622C13.5442 8.78049 13.4855 8.7622 13.4464 8.7622C13.4073 8.7622 13.153 8.90854 12.9965 8.87196C12.7617 8.94513 12.5857 8.92683 12.527 8.90854C12.4683 8.90854 12.3314 8.98171 12.1553 8.90854C12.0184 8.87196 12.0184 8.96342 11.7641 8.87196C11.5098 8.79878 11.3142 8.90854 11.1968 8.83537C11.0599 8.78049 11.0795 8.72561 10.9817 8.72561C10.8838 8.72561 10.8838 8.78049 10.7665 8.78049C10.6491 8.78049 10.6491 8.72561 10.5513 8.72561C10.4535 8.72561 10.3361 8.78049 10.1992 8.7622C10.0623 8.74391 10.0036 8.68903 9.90578 8.68903C9.80798 8.68903 9.12333 8.46952 9.12333 8.46952Z" fill="#DD7D21"/>
<path d="M10.7275 17.5244C11.0014 17.3415 11.2361 17.2683 11.6274 17.2134C11.999 17.1585 12.3903 17.0488 12.6054 16.9939C12.8206 16.939 11.9012 17.2317 11.6665 17.3049C11.4317 17.3598 10.7275 17.5244 10.7275 17.5244Z" fill="#2C6752"/>
<path d="M12.2537 16.9756C12.1755 16.5366 12.3711 16.0793 12.8014 15.8781C12.8797 16.2074 12.5667 16.7561 12.2537 16.9756Z" fill="#2C6752"/>
<path d="M12.9771 16.7378C12.7423 16.372 13.1336 15.8963 13.427 15.6585C13.5443 15.8963 13.3096 16.5549 12.9771 16.7378Z" fill="#2C6752"/>
<path d="M13.642 16.4634C13.3877 16.1524 13.6811 15.6037 13.9941 15.3842C14.1115 15.6951 13.9941 16.2439 13.642 16.4634Z" fill="#2C6752"/>
<path d="M14.3075 16.0609C14.0923 15.7683 14.2488 15.3109 14.5618 15C14.7965 15.2561 14.6009 15.7866 14.3075 16.0609Z" fill="#2C6752"/>
<path d="M14.8551 15.6768C14.6594 15.4024 14.8942 14.7256 15.1876 14.5427C15.3245 14.7805 15.2267 15.4756 14.8551 15.6768Z" fill="#2C6752"/>
<path d="M15.2855 15.567C15.2268 15.1646 15.9702 14.7256 16.2831 14.7256C16.244 15.0549 15.931 15.4207 15.2855 15.567Z" fill="#2C6752"/>
<path d="M14.855 16.0244C15.2071 15.6768 15.8917 15.6768 16.1265 15.75C16.0678 15.9512 15.2658 16.3719 14.855 16.0244Z" fill="#2C6752"/>
<path d="M14.3857 16.3537C14.8748 16.2256 15.2073 16.1342 15.5007 16.4086C15.2856 16.6647 14.4835 16.5915 14.3857 16.3537Z" fill="#2C6752"/>
<path d="M13.6816 16.6646C14.1511 16.4268 14.7183 16.7744 14.8162 16.9756C14.288 17.1768 13.662 16.7012 13.6816 16.6646Z" fill="#2C6752"/>
<path d="M13.0166 16.9939C13.447 16.8476 13.936 17.0488 14.1316 17.2683C13.9164 17.378 13.31 17.4878 13.0166 16.9939Z" fill="#2C6752"/>
<path d="M12.4292 17.1768C12.9182 17.1219 13.4073 17.4695 13.5051 17.6707C12.8791 17.7256 12.6248 17.561 12.4292 17.1768Z" fill="#2C6752"/>
<path d="M12.2731 17.5244C11.9992 17.3415 11.7645 17.2683 11.3732 17.2134C11.0016 17.1585 10.6103 17.0488 10.3952 16.9939C10.18 16.939 11.0994 17.2317 11.3341 17.3049C11.5688 17.3598 12.2731 17.5244 12.2731 17.5244Z" fill="#2C6752"/>
<path d="M10.7666 16.9756C10.8448 16.5366 10.6492 16.0793 10.2189 15.8781C10.1211 16.2074 10.434 16.7561 10.7666 16.9756Z" fill="#2C6752"/>
<path d="M10.0427 16.7378C10.2774 16.372 9.8862 15.8963 9.59278 15.6585C9.47542 15.8963 9.69059 16.5549 10.0427 16.7378Z" fill="#2C6752"/>
<path d="M9.35803 16.4634C9.61233 16.1524 9.31891 15.6037 9.00593 15.3842C8.88856 15.6951 9.00593 16.2439 9.35803 16.4634Z" fill="#2C6752"/>
<path d="M8.69303 16.0609C8.9082 15.7683 8.75171 15.3109 8.43873 15C8.20399 15.2561 8.41917 15.7866 8.69303 16.0609Z" fill="#2C6752"/>
<path d="M8.1649 15.6768C8.36051 15.4024 8.12578 14.7256 7.83236 14.5427C7.67587 14.7805 7.77367 15.4756 8.1649 15.6768Z" fill="#2C6752"/>
<path d="M7.73445 15.567C7.79313 15.1646 7.0498 14.7256 6.73682 14.7256C6.75638 15.0549 7.06936 15.4207 7.73445 15.567Z" fill="#2C6752"/>
<path d="M8.14551 16.0244C7.79341 15.6768 7.10876 15.6768 6.87402 15.75C6.93271 15.9512 7.73472 16.3719 8.14551 16.0244Z" fill="#2C6752"/>
<path d="M8.63404 16.3537C8.14501 16.2256 7.81246 16.1342 7.51904 16.4086C7.73422 16.6647 8.53623 16.5915 8.63404 16.3537Z" fill="#2C6752"/>
<path d="M9.33866 16.6646C8.86919 16.4268 8.30191 16.7744 8.2041 16.9756C8.73226 17.1768 9.33866 16.7012 9.33866 16.6646Z" fill="#2C6752"/>
<path d="M9.98414 16.9939C9.55379 16.8476 9.06475 17.0488 8.86914 17.2683C9.08432 17.378 9.69072 17.4878 9.98414 16.9939Z" fill="#2C6752"/>
<path d="M10.571 17.1768C10.082 17.1219 9.59292 17.4695 9.49512 17.6707C10.1406 17.7256 10.3754 17.561 10.571 17.1768Z" fill="#2C6752"/>
</g>
</svg>
