<svg width="24" height="24" viewBox="0 0 24 24" fill="none" xmlns="http://www.w3.org/2000/svg">
<path d="M21.3333 3H2.66667C1.95942 3 1.28115 3.29176 0.781049 3.81109C0.280952 4.33042 0 5.03478 0 5.76923L0 12H24V5.76923C24 5.03478 23.719 4.33042 23.219 3.81109C22.7189 3.29176 22.0406 3 21.3333 3Z" fill="#BC0030"/>
<path d="M24 18.2308C24 18.9652 23.719 19.6696 23.219 20.1889C22.7189 20.7082 22.0406 21 21.3333 21H2.66667C1.95942 21 1.28115 20.7082 0.781049 20.1889C0.280952 19.6696 0 18.9652 0 18.2308V12H24V18.2308Z" fill="#EEEEEE"/>
</svg>
