<svg width="24" height="24" viewBox="0 0 24 24" fill="none" xmlns="http://www.w3.org/2000/svg">
<g clip-path="url(#clip0)">
<path d="M2.77778 3.33333C2.04107 3.33333 1.33453 3.61428 0.813592 4.11438C0.292658 4.61447 0 5.29275 0 5.99999L0 18C0 18.7072 0.292658 19.3855 0.813592 19.8856C1.33453 20.3857 2.04107 20.6667 2.77778 20.6667H8V3.33333L2.77778 3.33333Z" fill="#3D9348"/>
<path d="M7.99984 3.33332L15.9998 3.33333V20.6667L7.99984 20.6667V3.33332Z" fill="#EEEEEE"/>
<path d="M21.2223 3.33334H16.0001V20.6667H21.2223C21.959 20.6667 22.6656 20.3857 23.1865 19.8856C23.7074 19.3855 24.0001 18.7072 24.0001 18V6C24.0001 5.29276 23.7074 4.61448 23.1865 4.11438C22.6656 3.61429 21.959 3.33334 21.2223 3.33334Z" fill="#D80031"/>
</g>
<defs>
<clipPath id="clip0">
<rect width="24" height="24" fill="white"/>
</clipPath>
</defs>
</svg>
