<svg width="24" height="24" viewBox="0 0 24 24" fill="none" xmlns="http://www.w3.org/2000/svg">
<g clip-path="url(#clip0)">
<path d="M2.77778 3.33331C2.04107 3.33331 1.33453 3.61426 0.813592 4.11436C0.292658 4.61446 0 5.29274 0 5.99998L0 18C0 18.7072 0.292658 19.3855 0.813592 19.8856C1.33453 20.3857 2.04107 20.6666 2.77778 20.6666H8V3.33331L2.77778 3.33331Z" fill="#2A680B"/>
<path d="M21.2223 3.33334H8.00009V20.6667H21.2223C21.959 20.6667 22.6656 20.3857 23.1865 19.8856C23.7074 19.3855 24.0001 18.7073 24.0001 18V6.00001C24.0001 5.29277 23.7074 4.61449 23.1865 4.11439C22.6656 3.61429 21.959 3.33334 21.2223 3.33334Z" fill="#EA0020"/>
<path d="M11.6213 14.8233C10.1716 14.7775 3.50577 10.6364 3.45975 9.97173L3.82794 9.3605C4.48762 10.3155 11.2992 14.3496 11.9665 14.2044L11.6213 14.8233Z" fill="#FCFF2C"/>
<path d="M3.75123 9.2841C3.62083 9.63555 5.49247 10.7892 7.73997 12.1492C9.98747 13.5092 11.9282 14.3573 12.0739 14.235C12.0816 14.2197 12.1429 14.1128 12.1353 14.1128C12.1122 14.151 12.0432 14.1662 11.9435 14.1357C11.3375 13.96 9.74968 13.2341 7.786 12.0499C5.82231 10.8656 4.11942 9.77308 3.85095 9.30702C3.83561 9.27646 3.82027 9.21534 3.82027 9.16949H3.81259L3.7589 9.26882L3.75123 9.2841ZM11.6597 14.8462C11.6367 14.8921 11.5906 14.8921 11.4986 14.8844C10.954 14.8233 9.30479 14.0211 7.35644 12.8598C5.08592 11.5074 3.21428 10.2697 3.41372 9.9488L3.46741 9.84948H3.47509C3.29099 10.3919 7.17234 12.6076 7.40246 12.7528C9.64997 14.1433 11.5446 14.9532 11.7134 14.7393L11.6597 14.8462Z" fill="#FCFF2C"/>
<path fill-rule="evenodd" clip-rule="evenodd" d="M3.79507 9.13931H3.85087V9.16947C3.85087 9.21043 3.86494 9.26623 3.87798 9.29273C3.9423 9.40386 4.0948 9.55618 4.32246 9.7423C4.54956 9.92797 4.84813 10.1447 5.20018 10.3842C5.90421 10.8631 6.82027 11.432 7.80202 12.024C9.76519 13.208 11.3503 13.9321 11.9523 14.1067L11.9528 14.1068C11.9997 14.1212 12.0373 14.1241 12.0642 14.1201C12.0915 14.1162 12.1046 14.1059 12.1099 14.0972L12.1187 14.0826H12.1357C12.1403 14.0826 12.1459 14.0836 12.1514 14.0869C12.1569 14.0902 12.1606 14.0946 12.1628 14.0988C12.1667 14.1061 12.1666 14.1129 12.1665 14.1151C12.1663 14.1203 12.1649 14.1248 12.1643 14.1267C12.1627 14.1315 12.1602 14.1371 12.1578 14.1424C12.1526 14.1535 12.1451 14.168 12.1374 14.1824C12.1287 14.1986 12.12 14.2143 12.1132 14.2266C12.1074 14.2371 12.103 14.2451 12.1013 14.2485L12.0985 14.2541L12.0937 14.2581C12.0761 14.2729 12.0506 14.2766 12.0266 14.2768C12.0009 14.277 11.9692 14.2731 11.9326 14.2658C11.8591 14.2513 11.761 14.2223 11.6417 14.1803C11.4029 14.0963 11.0754 13.9588 10.6828 13.7752C9.89739 13.408 8.8494 12.8555 7.72481 12.175C6.60125 11.4951 5.57068 10.8662 4.83728 10.3633C4.47074 10.1119 4.17726 9.89126 3.98332 9.71085C3.88648 9.62077 3.81312 9.53951 3.768 9.46848C3.72375 9.39882 3.70194 9.33146 3.72341 9.27358L3.72399 9.27203L3.73281 9.25444L3.79507 9.13931ZM3.80167 9.25392L3.7861 9.28273L3.77945 9.29598C3.76909 9.32598 3.77763 9.37115 3.81891 9.43614C3.85996 9.50078 3.92899 9.57794 4.02439 9.66669C4.21494 9.84394 4.50539 10.0626 4.87139 10.3136C5.60309 10.8153 6.63209 11.4433 7.75603 12.1234C8.87895 12.8029 9.92505 13.3544 10.7083 13.7206C11.1 13.9038 11.4255 14.0403 11.6617 14.1234C11.78 14.165 11.875 14.1929 11.9443 14.2067C11.9791 14.2135 12.0063 14.2166 12.0261 14.2165C12.036 14.2164 12.0433 14.2155 12.0484 14.2143C12.0497 14.214 12.0508 14.2137 12.0517 14.2133C12.0543 14.2086 12.0577 14.2024 12.0615 14.1955C12.0641 14.1907 12.067 14.1856 12.0699 14.1802C12.0323 14.1852 11.9866 14.1802 11.9353 14.1646C11.3253 13.9876 9.73488 13.2601 7.77087 12.0757C6.78894 11.4835 5.87171 10.914 5.16626 10.434C4.81356 10.1941 4.51335 9.97627 4.28428 9.789C4.05631 9.60261 3.89545 9.44388 3.82527 9.32205L3.82484 9.3213L3.82445 9.32052C3.81602 9.30373 3.80787 9.27982 3.80167 9.25392ZM3.44989 9.8193H3.51762L3.50409 9.85915C3.49577 9.88366 3.49785 9.91622 3.51479 9.95869C3.53166 10.001 3.56212 10.0501 3.60567 10.1053C3.69272 10.2157 3.82828 10.3457 3.99853 10.4884C4.33873 10.7735 4.81263 11.1051 5.30043 11.4249C6.06772 11.9279 6.86436 12.3986 7.22773 12.6132C7.32676 12.6718 7.39361 12.7112 7.41891 12.7272C8.54173 13.4219 9.57605 13.9713 10.3503 14.3202C10.7376 14.4947 11.0589 14.6187 11.2934 14.6857C11.4108 14.7192 11.505 14.738 11.5741 14.7422C11.6087 14.7443 11.6357 14.7427 11.6555 14.7381C11.6755 14.7335 11.6854 14.7266 11.6901 14.7206L11.7408 14.7528L11.6871 14.8597C11.6794 14.875 11.6692 14.8877 11.6556 14.8972C11.6421 14.9067 11.6269 14.9121 11.6109 14.915C11.5804 14.9207 11.5417 14.9182 11.4966 14.9145L11.4957 14.9144C11.3554 14.8986 11.1471 14.8357 10.8851 14.7337C10.6224 14.6313 10.3035 14.4886 9.94114 14.3117C9.21629 13.9579 8.31615 13.4666 7.34146 12.8856C6.20606 12.2094 5.16964 11.5614 4.44178 11.042C4.07806 10.7825 3.79021 10.5543 3.60551 10.3702C3.51334 10.2783 3.44531 10.1959 3.40671 10.1249C3.36896 10.0555 3.35484 9.98804 3.38805 9.93369L3.44989 9.8193ZM3.448 9.94961L3.44027 9.96392L3.43978 9.9647C3.42379 9.99043 3.42458 10.0315 3.45969 10.0961C3.49414 10.1595 3.55735 10.237 3.64808 10.3275C3.82917 10.508 4.11374 10.7339 4.47681 10.9929C5.20255 11.5107 6.23721 12.1577 7.37232 12.8338C8.34597 13.4142 9.24461 13.9046 9.96759 14.2575C10.3291 14.434 10.6464 14.5759 10.907 14.6775C11.1681 14.7792 11.37 14.8395 11.502 14.8544C11.5487 14.8583 11.5789 14.8596 11.6 14.8557C11.6099 14.8539 11.6163 14.8511 11.6208 14.8479C11.6252 14.8449 11.6293 14.8403 11.6332 14.8327L11.6494 14.8005C11.6261 14.8037 11.5996 14.8042 11.5705 14.8024C11.4949 14.7979 11.3959 14.7777 11.2768 14.7436C11.0383 14.6755 10.7139 14.5502 10.3255 14.3752C9.54839 14.025 8.51168 13.4742 7.38705 12.7784L7.38683 12.7783C7.36313 12.7633 7.29864 12.7252 7.20246 12.6684C6.84218 12.4556 6.03733 11.9801 5.26736 11.4753C4.77907 11.1552 4.30277 10.8221 3.9598 10.5346C3.78846 10.3911 3.6492 10.2579 3.55832 10.1427C3.51291 10.0851 3.47863 10.0308 3.45877 9.98103C3.45456 9.97048 3.45095 9.96 3.448 9.94961Z" fill="black"/>
<path d="M7.87024 10.3766C9.32766 10.369 11.1226 10.178 12.1505 9.76539L11.928 9.4063C11.3144 9.74247 9.51176 9.96404 7.8549 9.9946C5.89888 9.97932 4.51049 9.79595 3.82013 9.3299L3.61302 9.71191C4.88635 10.2544 6.19036 10.369 7.87024 10.3766Z" fill="#FCFF2C"/>
<path d="M12.212 9.77309C12.1736 9.82657 11.5063 10.0634 10.5091 10.2315C9.8341 10.3308 8.95964 10.4225 7.86274 10.4225C6.81953 10.4225 5.97575 10.3461 5.33142 10.2621C4.28821 10.1016 3.75126 9.87241 3.55183 9.79601C3.56717 9.75781 3.58251 9.73489 3.59785 9.69668C4.17315 9.92589 4.7101 10.0558 5.33909 10.1551C5.97575 10.2391 6.81953 10.3155 7.85506 10.3155C8.9443 10.3155 9.81108 10.2162 10.4784 10.1169C11.4986 9.95645 12.0509 9.74253 12.1276 9.6432L12.212 9.77309ZM12.0126 9.40635C11.9052 9.49804 11.3529 9.68904 10.3864 9.84185C9.74205 9.93353 8.92129 10.0176 7.87041 10.0176C6.87322 10.0176 6.06013 9.94881 5.43881 9.86477C4.45696 9.73488 3.93536 9.50568 3.74359 9.43691C3.75893 9.40635 3.78195 9.37579 3.80496 9.33759C3.9507 9.41399 4.45696 9.61264 5.45415 9.75781C6.0678 9.84185 6.88089 9.91061 7.87041 9.91061C8.91362 9.91061 9.72671 9.82657 10.3634 9.73489C11.3375 9.605 11.8591 9.35287 11.9359 9.29175L12.0126 9.40635Z" fill="#FCFF2C"/>
<path fill-rule="evenodd" clip-rule="evenodd" d="M11.9426 9.24777L12.0525 9.4119L12.0321 9.42931C12.0012 9.45568 11.9425 9.48631 11.8603 9.51957C11.7771 9.55326 11.6667 9.59084 11.5299 9.63019C11.2562 9.70891 10.8753 9.79511 10.391 9.87166L10.3906 9.87173C9.74512 9.96357 8.92292 10.0478 7.87035 10.0478C6.8718 10.0478 6.05738 9.9789 5.43476 9.89469C4.56139 9.77915 4.05007 9.58508 3.8118 9.49465C3.78122 9.48304 3.75513 9.47314 3.73335 9.46533L3.70131 9.45384L3.71658 9.42341C3.72507 9.40651 3.73546 9.39002 3.74605 9.37372C3.74838 9.37014 3.75071 9.36657 3.75305 9.36298C3.76162 9.34988 3.77031 9.3366 3.77907 9.32206L3.79373 9.29772L3.8189 9.31091C3.96051 9.38515 4.46306 9.58308 5.4583 9.72797C6.0706 9.81183 6.88229 9.88048 7.87035 9.88048C8.91185 9.88048 9.72348 9.79659 10.359 9.70507L10.3593 9.70502C10.8446 9.64032 11.2167 9.54523 11.4766 9.45894C11.6066 9.41579 11.7084 9.37487 11.7822 9.34111C11.8569 9.30696 11.9009 9.281 11.917 9.26819L11.9426 9.24777ZM11.4956 9.51618C11.232 9.60369 10.8563 9.6996 10.3675 9.76478C9.72968 9.85662 8.91517 9.94079 7.87035 9.94079C6.87945 9.94079 6.06499 9.87194 5.45 9.78771L5.44974 9.78768C4.50035 9.64947 3.99266 9.46257 3.81592 9.37691C3.81157 9.3837 3.8073 9.39022 3.80322 9.39646C3.80096 9.39992 3.79876 9.40329 3.79663 9.40657C3.79339 9.41155 3.79032 9.41633 3.78742 9.42096C3.80123 9.42613 3.81626 9.43184 3.83256 9.43802C4.07036 9.52827 4.57629 9.72029 5.4427 9.8349C6.06272 9.91877 6.87455 9.98745 7.87035 9.98745C8.91941 9.98745 9.73866 9.90357 10.3818 9.81205C10.864 9.73581 11.2424 9.65012 11.5132 9.57223C11.6487 9.53327 11.757 9.49635 11.8377 9.46367C11.8996 9.4386 11.9437 9.41668 11.9713 9.39906L11.9276 9.3338C11.9006 9.35047 11.8602 9.37176 11.8073 9.39596C11.7313 9.43073 11.6274 9.47242 11.4956 9.51618ZM12.1297 9.59114L12.2484 9.77395L12.2364 9.79069C12.2306 9.79889 12.2216 9.80549 12.2139 9.8105C12.2054 9.81607 12.1946 9.82201 12.1821 9.82825C12.1571 9.84076 12.123 9.85544 12.0808 9.87179C11.9962 9.90453 11.8772 9.94467 11.7285 9.98828C11.4311 10.0755 11.0138 10.177 10.5141 10.2613L10.5134 10.2614C9.83727 10.3609 8.96132 10.4527 7.86268 10.4527C6.81796 10.4527 5.97287 10.3762 5.32746 10.292L5.32677 10.2919C4.35635 10.1427 3.82203 9.93389 3.59 9.84324C3.57183 9.83614 3.55551 9.82976 3.54098 9.82419L3.51236 9.81323L3.52378 9.7848C3.53192 9.76453 3.54007 9.74831 3.54768 9.73314L3.54783 9.73284C3.55551 9.71754 3.56266 9.70327 3.56981 9.68547L3.58101 9.65757L3.60895 9.6687C4.18152 9.89682 4.71609 10.0262 5.34336 10.1253C5.97887 10.2092 6.82118 10.2854 7.855 10.2854C8.94226 10.2854 9.80746 10.1863 10.4738 10.0871C10.9827 10.0071 11.3743 9.91379 11.6478 9.82837C11.7846 9.78565 11.8913 9.74503 11.9683 9.70924C12.0067 9.69134 12.0373 9.67485 12.0602 9.66013C12.0837 9.6451 12.0973 9.63312 12.1037 9.6248L12.1297 9.59114ZM11.6658 9.88594C11.3889 9.97243 10.9943 10.0663 10.4831 10.1467L10.4828 10.1468C9.81448 10.2462 8.94614 10.3457 7.855 10.3457C6.81796 10.3457 5.97286 10.2692 5.33508 10.185L5.33432 10.1849C4.71363 10.0869 4.18144 9.95905 3.61373 9.73546C3.60969 9.74403 3.60572 9.75195 3.60188 9.75961L3.60173 9.7599C3.59844 9.76645 3.59525 9.7728 3.59212 9.77932C3.59833 9.78175 3.60479 9.78427 3.61151 9.78689C3.84207 9.87699 4.37171 10.084 5.3356 10.2322C5.97881 10.3161 6.82116 10.3924 7.86268 10.3924C8.95767 10.3924 9.83054 10.3009 10.5044 10.2017C11.0017 10.1179 11.4165 10.017 11.7116 9.93041C11.8592 9.88711 11.9765 9.84751 12.059 9.81555C12.1003 9.79955 12.1325 9.78563 12.1552 9.7743C12.1614 9.77121 12.1667 9.76838 12.1712 9.76582L12.1221 9.6902C12.1134 9.69712 12.1035 9.70403 12.0928 9.7109C12.0669 9.72753 12.0337 9.7453 11.9937 9.76392C11.9136 9.80119 11.8042 9.84271 11.6658 9.88594Z" fill="black"/>
<path d="M3.09143 12.1186C3.9889 12.6 5.9756 12.8368 7.85491 12.8598C9.56547 12.8598 11.7976 12.5923 12.6337 12.1568L12.6107 11.6755C12.3499 12.0804 9.96434 12.4701 7.83957 12.4548C5.72247 12.4395 3.75111 12.111 3.09143 11.6908V12.1186Z" fill="#FCFF2C"/>
<path d="M12.6723 12.0498V12.1644C12.5495 12.3172 11.7594 12.5388 10.7776 12.6992C10.0259 12.8138 9.0517 12.8979 7.83207 12.8979C6.6738 12.8979 5.75332 12.8138 5.03228 12.7069C3.90469 12.5388 3.17598 12.2561 3.03024 12.1721V12.0422C3.46746 12.3325 4.64874 12.5388 5.04762 12.6076C5.76099 12.7145 6.6738 12.7986 7.83207 12.7986C9.04403 12.7986 10.0182 12.7145 10.7623 12.5999C11.468 12.493 12.4728 12.2255 12.6723 12.0498ZM12.6799 11.6449V11.7595C12.5572 11.9123 11.7671 12.1339 10.7853 12.2943C10.0335 12.4089 9.05937 12.493 7.83974 12.493C6.68147 12.493 5.76099 12.4089 5.03995 12.3019C3.91236 12.1339 3.18365 11.8512 3.03791 11.7671V11.6372C3.47513 11.9276 4.65642 12.1339 5.05529 12.2026C5.76866 12.3096 6.68147 12.3936 7.83974 12.3936C9.0517 12.3936 10.0259 12.3096 10.7699 12.195C11.468 12.088 12.4805 11.8206 12.6799 11.6449Z" fill="#FCFF2C"/>
<path fill-rule="evenodd" clip-rule="evenodd" d="M12.7099 11.5781V11.7701L12.7033 11.7784C12.6846 11.8016 12.6552 11.824 12.6188 11.8457C12.5819 11.8676 12.5358 11.8901 12.4817 11.9128C12.3734 11.9582 12.2312 12.0056 12.0628 12.0531C11.7258 12.148 11.2817 12.2437 10.79 12.3241L10.7897 12.3241C10.0363 12.439 9.06059 12.5231 7.83958 12.5231C6.67982 12.5231 5.75787 12.439 5.03537 12.3318C4.47009 12.2475 4.0046 12.1345 3.66193 12.0319C3.32015 11.9296 3.09874 11.8371 3.02269 11.7933L3.00759 11.7846V11.581L3.05443 11.6121C3.26799 11.7539 3.66754 11.8771 4.0679 11.9737C4.46646 12.0699 4.86043 12.1385 5.05993 12.1729C5.77177 12.2796 6.68298 12.3635 7.83958 12.3635C9.05018 12.3635 10.0228 12.2795 10.7652 12.1652C11.1129 12.1119 11.5394 12.0186 11.9036 11.9167C12.0857 11.8657 12.2518 11.8128 12.3845 11.7618C12.5186 11.7103 12.6145 11.6622 12.6598 11.6223L12.7099 11.5781ZM3.0679 11.6916V11.7493C3.15051 11.7928 3.36004 11.8786 3.67923 11.9741C4.01925 12.0759 4.48192 12.1883 5.04424 12.2721C5.76382 12.3789 6.68281 12.4628 7.83958 12.4628C9.05776 12.4628 10.0304 12.3789 10.7804 12.2645C11.2705 12.1844 11.7123 12.0892 12.0464 11.995C12.2136 11.9479 12.3533 11.9013 12.4584 11.8572C12.5109 11.8351 12.5543 11.8139 12.588 11.7939C12.6165 11.7768 12.6367 11.7615 12.6496 11.7481V11.7041C12.5907 11.7411 12.5064 11.7796 12.4062 11.8181C12.2711 11.87 12.1031 11.9235 11.9199 11.9748C11.5535 12.0772 11.1247 12.1711 10.7744 12.2248C10.0286 12.3397 9.05291 12.4238 7.83958 12.4238C6.67982 12.4238 5.76552 12.3396 5.05066 12.2324L5.05001 12.2324C4.85053 12.198 4.45464 12.1291 4.05375 12.0323C3.68089 11.9424 3.29896 11.8273 3.0679 11.6916ZM12.7023 11.9831V12.175L12.6956 12.1833C12.6769 12.2066 12.6476 12.2289 12.6111 12.2506C12.5743 12.2726 12.5281 12.295 12.474 12.3177C12.3658 12.3631 12.2235 12.4105 12.0551 12.458C11.7182 12.5529 11.274 12.6487 10.7823 12.729L10.782 12.7291C10.0286 12.8439 9.05292 12.928 7.83191 12.928C6.67215 12.928 5.7502 12.8439 5.0277 12.7367C4.46242 12.6525 3.99692 12.5394 3.65426 12.4368C3.31248 12.3345 3.09107 12.242 3.01501 12.1982L2.99992 12.1895V11.986L3.04676 12.0171C3.26032 12.1589 3.65987 12.2821 4.06023 12.3786C4.45879 12.4748 4.85276 12.5434 5.05226 12.5778C5.7641 12.6845 6.67531 12.7684 7.83191 12.7684C9.04251 12.7684 10.0151 12.6845 10.7575 12.5701C11.109 12.5168 11.5355 12.4235 11.8988 12.3216C12.0804 12.2707 12.2458 12.2177 12.3779 12.1667C12.5113 12.1152 12.6068 12.0672 12.6522 12.0272L12.7023 11.9831ZM3.06023 12.0965V12.1542C3.14284 12.1978 3.35237 12.2835 3.67156 12.3791C4.01158 12.4809 4.47424 12.5932 5.03655 12.6771C5.75613 12.7838 6.67513 12.8677 7.83191 12.8677C9.05009 12.8677 10.0227 12.7838 10.7727 12.6695C11.2628 12.5894 11.7046 12.4941 12.0388 12.3999C12.2059 12.3528 12.3456 12.3062 12.4507 12.2621C12.5032 12.24 12.5466 12.2188 12.5803 12.1988C12.6089 12.1818 12.6291 12.1664 12.6419 12.153V12.1091C12.5833 12.1461 12.4994 12.1845 12.3996 12.223C12.2651 12.2749 12.0978 12.3284 11.9151 12.3797C11.5497 12.4822 11.1208 12.576 10.7667 12.6297C10.0209 12.7446 9.04523 12.8287 7.83191 12.8287C6.67215 12.8287 5.75785 12.7446 5.04299 12.6374L5.04234 12.6373C4.84286 12.6029 4.44697 12.534 4.04608 12.4373C3.67322 12.3473 3.29129 12.2323 3.06023 12.0965Z" fill="black"/>
<path d="M7.85474 7.58798C10.2173 7.58798 12.1273 9.5057 12.1273 11.8589C12.1273 14.2121 10.2173 16.1145 7.85474 16.1145C5.49218 16.1145 3.58218 14.2045 3.58218 11.8513C3.57451 9.49042 5.49218 7.58798 7.85474 7.58798ZM7.85474 7.16013C10.4397 7.16013 12.5569 9.26885 12.5569 11.8436C12.5569 14.4184 10.4474 16.5271 7.85474 16.5271C5.26973 16.5271 3.15263 14.4184 3.15263 11.8436C3.15263 9.26885 5.26206 7.16013 7.85474 7.16013Z" fill="#FCFF2C"/>
<path d="M7.85491 7.10666C10.4783 7.10666 12.6184 9.2383 12.6184 11.8513C12.6184 14.4643 10.4783 16.5959 7.85491 16.5959C5.23154 16.5959 3.09143 14.4643 3.09143 11.8513C3.09143 9.2383 5.23154 7.10666 7.85491 7.10666ZM7.85491 7.21362C10.4092 7.21362 12.511 9.29942 12.511 11.8513C12.511 14.4031 10.4092 16.4966 7.85491 16.4966C5.30058 16.4966 3.19882 14.4108 3.19882 11.8513C3.19882 9.29942 5.30058 7.21362 7.85491 7.21362Z" fill="#FCFF2C"/>
<path fill-rule="evenodd" clip-rule="evenodd" d="M7.85475 7.13679C5.24793 7.13679 3.12143 9.25504 3.12143 11.8513C3.12143 14.4475 5.24793 16.5657 7.85475 16.5657C10.4616 16.5657 12.5881 14.4475 12.5881 11.8513C12.5881 9.25504 10.4616 7.13679 7.85475 7.13679ZM3.06112 11.8513C3.06112 9.22151 5.21485 7.07648 7.85475 7.07648C10.4947 7.07648 12.6484 9.22151 12.6484 11.8513C12.6484 14.481 10.4947 16.626 7.85475 16.626C5.21485 16.626 3.06112 14.481 3.06112 11.8513ZM7.85475 7.24375C5.31693 7.24375 3.22882 9.3162 3.22882 11.8513C3.22882 14.394 5.31696 16.4664 7.85475 16.4664C10.3925 16.4664 12.4807 14.3864 12.4807 11.8513C12.4807 9.3162 10.3926 7.24375 7.85475 7.24375ZM3.16851 11.8513C3.16851 9.2826 5.28391 7.18344 7.85475 7.18344C10.4256 7.18344 12.541 9.2826 12.541 11.8513C12.541 14.4198 10.4257 16.5267 7.85475 16.5267C5.28388 16.5267 3.16851 14.4275 3.16851 11.8513Z" fill="black"/>
<path d="M7.86267 7.50391C10.2559 7.50391 12.2196 9.45982 12.2196 11.8512C12.2196 14.2426 10.2482 16.1986 7.86267 16.1986C5.46943 16.1986 3.49807 14.2426 3.49807 11.8512C3.49807 9.45982 5.46943 7.50391 7.86267 7.50391ZM7.86267 7.60323C10.1946 7.60323 12.1199 9.5133 12.1199 11.8436C12.1199 14.1739 10.1946 16.0916 7.86267 16.0916C5.52312 16.0916 3.60546 14.1815 3.60546 11.8512C3.60546 9.52094 5.52312 7.60323 7.86267 7.60323Z" fill="#FCFF2C"/>
<path fill-rule="evenodd" clip-rule="evenodd" d="M7.86251 7.53407C5.48578 7.53407 3.52806 9.47663 3.52806 11.8512C3.52806 14.2258 5.48578 16.1684 7.86251 16.1684C10.2315 16.1684 12.1893 14.2259 12.1893 11.8512C12.1893 9.47656 10.2392 7.53407 7.86251 7.53407ZM3.46775 11.8512C3.46775 9.44302 5.45276 7.47375 7.86251 7.47375C10.2723 7.47375 12.2496 9.44309 12.2496 11.8512C12.2496 14.2594 10.2646 16.2287 7.86251 16.2287C5.45276 16.2287 3.46775 14.2594 3.46775 11.8512ZM7.86251 7.63339C5.53958 7.63339 3.63545 9.53764 3.63545 11.8512C3.63545 14.1648 5.5395 16.0614 7.86251 16.0614C10.1778 16.0614 12.0896 14.1572 12.0896 11.8436C12.0896 9.53011 10.1779 7.63339 7.86251 7.63339ZM3.57514 11.8512C3.57514 9.50425 5.50635 7.57308 7.86251 7.57308C10.2109 7.57308 12.1499 9.49651 12.1499 11.8436C12.1499 14.1906 10.211 16.1218 7.86251 16.1218C5.50642 16.1218 3.57514 14.1983 3.57514 11.8512Z" fill="black"/>
<path d="M3.09944 11.6474C3.69149 11.1006 5.86995 10.7512 7.80551 10.7588C9.74107 10.7664 12.0334 11.1689 12.5268 11.6398L12.5343 12.0424C12.1169 11.6474 10.3407 11.1841 7.8131 11.1765C5.28548 11.1689 3.4486 11.655 3.10703 12.0575V11.6474H3.09944Z" fill="#FCFF2C"/>
<path d="M7.85508 11.1178C8.98267 11.1178 10.0719 11.2248 10.9387 11.3929C11.8362 11.5686 12.4575 11.7902 12.6723 12.0423V12.1645C12.4115 11.8513 11.5677 11.6221 10.9157 11.4922C10.0566 11.3241 8.97499 11.2171 7.85508 11.2171C6.6738 11.2171 5.57689 11.3318 4.73312 11.4922C4.0581 11.6297 3.1453 11.8971 3.03791 12.1569V12.0423C3.09927 11.8589 3.77429 11.5915 4.71778 11.4005C5.56922 11.2324 6.6738 11.1255 7.85508 11.1178ZM7.85508 10.7129C8.98267 10.7129 10.0719 10.8199 10.9387 10.9879C11.8285 11.1637 12.4575 11.3852 12.6723 11.6374V11.7596C12.4115 11.4464 11.5677 11.2172 10.9157 11.0873C10.0566 10.9192 8.97499 10.8122 7.85508 10.8122C6.6738 10.8122 5.58456 10.9268 4.73312 11.0949C4.08112 11.2171 3.13762 11.4922 3.03024 11.7596V11.6297C3.0916 11.4464 3.78196 11.1713 4.71011 10.9879C5.56922 10.8275 6.6738 10.7129 7.85508 10.7129Z" fill="#FCFF2C"/>
<path fill-rule="evenodd" clip-rule="evenodd" d="M7.85492 10.743C6.67553 10.743 5.57287 10.8574 4.71564 11.0175C4.25287 11.109 3.85006 11.2231 3.55585 11.3369C3.40863 11.3939 3.28947 11.4504 3.20381 11.5035C3.16097 11.53 3.12721 11.5553 3.10266 11.5788C3.07991 11.6006 3.06654 11.6194 3.06023 11.6351V11.6628C3.06865 11.654 3.07768 11.6453 3.08725 11.6368C3.12667 11.6016 3.17677 11.5672 3.23476 11.5339C3.35071 11.4674 3.50098 11.4034 3.6672 11.3444C3.99977 11.2263 4.40015 11.1266 4.72727 11.0653C5.58074 10.8968 6.67189 10.782 7.85492 10.782C8.97659 10.782 10.0601 10.8891 10.9213 11.0576C11.248 11.1227 11.6235 11.2128 11.9504 11.3262C12.1138 11.3828 12.2657 11.4455 12.3935 11.5141C12.4916 11.5667 12.5766 11.6233 12.6419 11.6842V11.6486C12.5377 11.5318 12.3358 11.4184 12.048 11.3123C11.7548 11.2042 11.3768 11.1052 10.9328 11.0175C10.068 10.8498 8.98076 10.743 7.85492 10.743ZM4.70442 10.9583C5.56539 10.7975 6.67182 10.6827 7.85492 10.6827C8.98425 10.6827 10.0754 10.7898 10.9443 10.9583C11.39 11.0463 11.7715 11.1461 12.0689 11.2557C12.365 11.3648 12.5823 11.4854 12.6951 11.6178L12.7023 11.6262V11.8429L12.6489 11.7789C12.5873 11.7048 12.4895 11.634 12.365 11.5672C12.2409 11.5007 12.0922 11.4392 11.9306 11.3831C11.6074 11.2711 11.2349 11.1816 10.9096 11.1168C10.0526 10.9491 8.97304 10.8423 7.85492 10.8423C6.67546 10.8423 5.58819 10.9568 4.73881 11.1245L4.73852 11.1245C4.41366 11.1854 4.01636 11.2844 3.68738 11.4012C3.52281 11.4597 3.37631 11.5222 3.26479 11.5863C3.20903 11.6183 3.16271 11.6502 3.12743 11.6818C3.09193 11.7134 3.0691 11.7433 3.05806 11.7708L2.99992 11.7596V11.6248L3.00148 11.6201C3.01134 11.5907 3.03267 11.5623 3.06096 11.5352C3.08953 11.5079 3.12703 11.4801 3.17204 11.4522C3.26209 11.3964 3.38503 11.3383 3.53409 11.2807C3.83241 11.1653 4.2388 11.0503 4.70411 10.9583L4.70442 10.9583ZM7.85473 11.0876L7.85492 11.0876C8.98425 11.0876 10.0754 11.1948 10.9443 11.3632C11.3939 11.4513 11.7753 11.551 12.0718 11.6606C12.367 11.7698 12.5824 11.8904 12.6951 12.0227L12.7023 12.0312V12.2479L12.6489 12.1838C12.5873 12.1098 12.4895 12.0389 12.365 11.9722C12.2409 11.9056 12.0922 11.8441 11.9306 11.7881C11.6074 11.676 11.2349 11.5866 10.9096 11.5218C10.0526 11.3541 8.97305 11.2473 7.85492 11.2473C6.67555 11.2473 5.58061 11.3617 4.73879 11.5218C4.40221 11.5903 4.00682 11.6912 3.68265 11.8071C3.52044 11.8651 3.37704 11.9264 3.268 11.9889C3.21349 12.0202 3.16826 12.0513 3.13375 12.0819C3.09904 12.1127 3.07664 12.1417 3.06562 12.1684L3.00759 12.1569V12.0374L3.00915 12.0327C3.01898 12.0033 3.03998 11.9751 3.06792 11.9482C3.09612 11.921 3.13309 11.8935 3.17753 11.8659C3.2664 11.8107 3.38793 11.7533 3.53603 11.6961C3.83242 11.5817 4.23877 11.4667 4.71164 11.3709L4.71178 11.3709C5.56543 11.2024 6.67194 11.0953 7.85473 11.0876ZM10.9328 11.4225C10.0681 11.2548 8.98083 11.148 7.85502 11.148C6.67532 11.1556 5.57275 11.2624 4.72354 11.4301C4.25295 11.5253 3.85007 11.6395 3.55775 11.7524C3.41148 11.8089 3.29379 11.8647 3.20935 11.9171C3.16713 11.9433 3.13393 11.9683 3.10978 11.9916C3.08742 12.0132 3.07421 12.0319 3.0679 12.0476V12.0615C3.07597 12.0531 3.0846 12.0449 3.09372 12.0368C3.13232 12.0026 3.1813 11.9691 3.23801 11.9366C3.35143 11.8716 3.49855 11.8088 3.66235 11.7503C3.99012 11.6331 4.38855 11.5316 4.72694 11.4626L4.72733 11.4625C5.57303 11.3017 6.67183 11.187 7.85492 11.187C8.97659 11.187 10.0601 11.2941 10.9213 11.4626C11.248 11.5277 11.6235 11.6178 11.9504 11.7311C12.1138 11.7878 12.2657 11.8504 12.3935 11.919C12.4916 11.9716 12.5766 12.0282 12.6419 12.0892V12.0536C12.5377 11.9367 12.3376 11.8233 12.0509 11.7172C11.7586 11.6091 11.3806 11.5101 10.9328 11.4225Z" fill="black"/>
<path d="M7.83178 8.63469C9.60371 8.62705 11.1455 8.87918 11.8589 9.24591L12.1197 9.68905C11.506 9.36052 9.83382 9.0167 7.83945 9.07019C6.21327 9.07783 4.47203 9.24591 3.59758 9.71197L3.90441 9.20007C4.61778 8.8257 6.31299 8.63469 7.83178 8.63469Z" fill="#FCFF2C"/>
<path d="M7.85483 9.00143C8.86736 9.00143 9.84153 9.05491 10.6163 9.19244C11.3373 9.32996 12.0277 9.52861 12.1274 9.63558L12.2041 9.7731C11.9663 9.6203 11.368 9.44457 10.6009 9.2994C9.83386 9.15424 8.85202 9.1084 7.84716 9.1084C6.70423 9.1084 5.82211 9.16188 5.06271 9.2994C4.25729 9.45221 3.69733 9.66614 3.55926 9.76546L3.63597 9.6203C3.90444 9.48277 4.32633 9.32232 5.0397 9.19244C5.83745 9.05491 6.72724 9.00907 7.85483 9.00143ZM7.85483 8.5965C8.82133 8.5965 9.78017 8.64998 10.5242 8.77986C11.1149 8.89447 11.6902 9.07019 11.9049 9.23064L12.02 9.40637C11.8282 9.19244 11.1149 8.99379 10.4782 8.88683C9.74181 8.75694 8.82133 8.7111 7.85483 8.70346C6.8423 8.70346 5.89881 8.76458 5.1701 8.90211C4.47974 9.03199 4.02717 9.19244 3.8354 9.31468L3.93512 9.16952C4.19593 9.03199 4.61781 8.90211 5.15476 8.80278C5.89114 8.65762 6.83463 8.5965 7.85483 8.5965Z" fill="#FCFF2C"/>
<path fill-rule="evenodd" clip-rule="evenodd" d="M7.85518 8.62663C6.83585 8.62663 5.89457 8.68772 5.16094 8.83234L5.1606 8.83241C4.62935 8.93068 4.21349 9.05854 3.9561 9.19273L3.93236 9.22728C4.16692 9.1135 4.5831 8.9819 5.16486 8.87245C5.89618 8.73443 6.84176 8.67328 7.85518 8.67328H7.85542C8.8223 8.68092 9.74476 8.72677 10.4837 8.85708C10.803 8.91073 11.1419 8.98742 11.4254 9.07773C11.5672 9.12288 11.6957 9.17161 11.8012 9.22283C11.8358 9.23959 11.8681 9.25675 11.8978 9.27429L11.883 9.25165C11.779 9.17557 11.5876 9.09393 11.3467 9.01675C11.1036 8.9389 10.8134 8.86661 10.5191 8.80949C9.77755 8.68007 8.82079 8.62663 7.85518 8.62663ZM5.14945 8.77314C5.88856 8.62745 6.8342 8.56631 7.85518 8.56631C8.82246 8.56631 9.78325 8.61982 10.5298 8.75013L10.5303 8.75023C10.8266 8.80771 11.1192 8.88057 11.3651 8.95932C11.6098 9.03771 11.8116 9.12298 11.9233 9.20646L11.9276 9.20964L12.0456 9.38982L11.9979 9.42647C11.9539 9.37739 11.8776 9.32692 11.7749 9.27708C11.6728 9.22754 11.5473 9.17982 11.4071 9.13519C11.1269 9.04596 10.7909 8.96985 10.4736 8.91654L10.4733 8.9165C9.7395 8.78707 8.82109 8.74123 7.85506 8.73359C6.84347 8.73359 5.90212 8.79469 5.17604 8.93171C4.48633 9.06148 4.03859 9.22112 3.85197 9.34009L3.8109 9.29758L3.91483 9.14629L3.92141 9.14282C4.18613 9.00322 4.61142 8.87267 5.14945 8.77314ZM10.6112 9.22207C9.839 9.08502 8.86695 9.03156 7.85529 9.03156C6.72831 9.0392 5.84054 9.08503 5.04532 9.2221C4.34181 9.3502 3.92426 9.50783 3.65852 9.6428L3.63508 9.68717C3.72893 9.64033 3.87079 9.58342 4.05164 9.52382C4.31088 9.43839 4.65351 9.34639 5.05744 9.26975L5.05769 9.2697C5.81965 9.13171 6.70383 9.07821 7.84751 9.07821C8.85283 9.07821 9.83697 9.12404 10.6069 9.26975C10.9911 9.34246 11.3335 9.4229 11.6099 9.50444C11.8244 9.56771 12.0007 9.63209 12.1262 9.69471L12.1034 9.65375C12.0938 9.64442 12.0763 9.63235 12.0495 9.61804C12.0211 9.60282 11.9842 9.58621 11.9398 9.56854C11.851 9.53322 11.7338 9.49436 11.5967 9.45439C11.3227 9.37449 10.9708 9.29068 10.6112 9.22207ZM7.85498 8.97125L7.85518 8.97125C8.86845 8.97125 9.84463 9.02475 10.6219 9.16272L10.6223 9.16279C10.9836 9.2317 11.3374 9.31596 11.6136 9.39649C11.7517 9.43674 11.8709 9.4762 11.9621 9.5125C12.0077 9.53065 12.0468 9.54819 12.078 9.56484C12.1085 9.58116 12.1338 9.59785 12.1498 9.61499L12.1523 9.61766L12.2308 9.75839L12.1881 9.79844C12.0731 9.72452 11.8676 9.64335 11.5928 9.56228C11.3188 9.48146 10.9785 9.40146 10.5957 9.32901C9.83146 9.18438 8.8519 9.13852 7.84751 9.13852C6.7054 9.13852 5.82535 9.19198 5.06856 9.32903C4.66713 9.40519 4.32711 9.49655 4.07052 9.5811C3.81252 9.66612 3.64209 9.74325 3.57722 9.78991L3.53295 9.75135L3.6141 9.59777L3.62257 9.59343C3.89419 9.45429 4.319 9.29304 5.03465 9.16274L5.03493 9.16269C5.83514 9.02474 6.7269 8.97889 7.85498 8.97125Z" fill="black"/>
<path d="M3.86602 9.19239C5.33112 9.17711 12.089 13.3105 12.1043 14.0669L11.6824 14.7087C11.4907 13.8224 4.64076 9.80362 3.5055 9.88002L3.86602 9.19239Z" fill="#FCFF2C"/>
<path fill-rule="evenodd" clip-rule="evenodd" d="M3.8845 9.22258L3.55605 9.84903C3.70535 9.85297 3.92169 9.90802 4.18519 10.0008C4.48287 10.1056 4.84534 10.2602 5.24823 10.4504C6.05411 10.8307 7.0236 11.3541 7.96332 11.9074C8.90302 12.4606 9.81359 13.0442 10.5015 13.5452C10.8454 13.7956 11.1343 14.0258 11.3434 14.2216C11.448 14.3195 11.5332 14.4092 11.5955 14.489C11.6378 14.5432 11.6705 14.594 11.6913 14.6406L12.0739 14.0587C12.0701 14.0215 12.0472 13.9703 12.001 13.9047C11.9517 13.835 11.8791 13.7533 11.7851 13.6612C11.5974 13.4772 11.3277 13.2546 10.9988 13.0081C10.3413 12.5153 9.45024 11.9288 8.51354 11.3661C7.57687 10.8035 6.59521 10.2651 5.75654 9.86849C5.33718 9.67016 4.95401 9.50748 4.63037 9.39492C4.31656 9.28579 4.06156 9.22482 3.8845 9.22258ZM12.0502 13.87C12.1016 13.9427 12.1336 14.0095 12.1347 14.0663L12.1349 14.0756L11.6684 14.7853L11.6532 14.7151C11.6427 14.6664 11.6081 14.6032 11.5479 14.5261C11.4883 14.4497 11.4055 14.3623 11.3022 14.2656C11.0956 14.0723 10.809 13.8437 10.466 13.5939C9.78018 13.0945 8.87138 12.512 7.93272 11.9593C6.99409 11.4067 6.02626 10.8843 5.22249 10.5049C4.82056 10.3152 4.46014 10.1615 4.16517 10.0577C3.86864 9.95328 3.6428 9.90102 3.50777 9.91011L3.45403 9.91373L3.84793 9.16243L3.86596 9.16224C4.05465 9.16028 4.32467 9.22475 4.65018 9.33796C4.97659 9.45148 5.36187 9.61512 5.78232 9.81397C6.62329 10.2117 7.60676 10.7511 8.5446 11.3144C9.48242 11.8778 10.3753 12.4654 11.035 12.9599C11.3647 13.207 11.6369 13.4314 11.8274 13.6181C11.9226 13.7114 11.9981 13.796 12.0502 13.87Z" fill="black"/>
<path d="M3.46735 9.84946C3.73582 9.66609 5.73787 10.5524 7.82429 11.8054C9.91071 13.066 11.8974 14.4871 11.7133 14.7545L11.6519 14.8462L11.6213 14.8691C11.6289 14.8691 11.6596 14.8309 11.6213 14.7316C11.5369 14.4413 10.1178 13.3182 7.77826 11.9047C5.49241 10.5447 3.59008 9.72721 3.40599 9.96406L3.46735 9.84946ZM12.1429 14.1127C12.3116 13.7766 10.463 12.386 8.16947 11.0337C5.82224 9.70429 4.12703 8.92498 3.8202 9.16183L3.75117 9.28408C3.75117 9.29172 3.75117 9.27644 3.76651 9.26116C3.8202 9.21531 3.91225 9.21531 3.95827 9.21531C4.48755 9.22295 6.00634 9.91822 8.13878 11.1407C9.0746 11.6831 12.0892 13.6085 12.0738 14.1509C12.0738 14.1968 12.0738 14.2044 12.0585 14.2273L12.1429 14.1127Z" fill="#FCFF2C"/>
<path fill-rule="evenodd" clip-rule="evenodd" d="M5.24207 9.48287C5.99903 9.81488 7.01067 10.3426 8.1846 11.0075L8.18506 11.0078C9.3325 11.6844 10.3691 12.3708 11.0982 12.9304C11.4625 13.2101 11.751 13.4589 11.9381 13.6595C12.0315 13.7596 12.1008 13.849 12.1415 13.9253C12.1813 13.9998 12.1982 14.0703 12.1701 14.1263L12.1689 14.1286L12.083 14.2453L12.0337 14.2106C12.0403 14.2008 12.0417 14.1971 12.0425 14.1924C12.0438 14.1852 12.0439 14.1752 12.0439 14.151V14.1502C12.0447 14.123 12.036 14.0887 12.0156 14.047C11.9954 14.0055 11.9647 13.9586 11.9241 13.9068C11.8428 13.8031 11.7241 13.6826 11.5772 13.5505C11.2834 13.2864 10.8798 12.9787 10.4458 12.6705C9.57793 12.0541 8.59115 11.4377 8.12397 11.1668C7.05823 10.5559 6.1463 10.077 5.43502 9.7499C5.07934 9.58636 4.77425 9.46098 4.52543 9.37607C4.27599 9.29095 4.08565 9.24742 3.95833 9.24553C3.93521 9.24553 3.90304 9.2456 3.87035 9.25088C3.83765 9.25616 3.80801 9.26615 3.78733 9.28334C3.78638 9.28434 3.78557 9.28532 3.78487 9.28626L3.78133 9.29253C3.78112 9.29306 3.78095 9.29354 3.78079 9.29401L3.78049 9.29492C3.78041 9.29515 3.78007 9.29615 3.77966 9.29717C3.77949 9.29761 3.77886 9.29918 3.77781 9.30101C3.77731 9.30189 3.77616 9.30383 3.7743 9.30597C3.77296 9.3075 3.76814 9.31287 3.75959 9.31524C3.7479 9.31847 3.73715 9.31422 3.73055 9.30784C3.72562 9.30307 3.7237 9.29793 3.72314 9.29637C3.72186 9.29283 3.72155 9.28979 3.72149 9.2892C3.72132 9.28758 3.7213 9.28606 3.72129 9.28573L3.72129 9.28414V9.27622L3.72743 9.26534C3.729 9.26201 3.73105 9.25822 3.73372 9.25421L3.79722 9.14176L3.80205 9.13803C3.84848 9.10219 3.9169 9.08837 3.99964 9.08965C4.08323 9.09094 4.18632 9.10773 4.30682 9.13828C4.54796 9.19941 4.86374 9.31693 5.24207 9.48287ZM3.83567 9.19631L3.84354 9.18238C3.87434 9.16109 3.92469 9.14881 3.99871 9.14995C4.07573 9.15114 4.17375 9.16676 4.292 9.19674C4.52837 9.25666 4.84062 9.37264 5.21785 9.5381C5.97196 9.86887 6.98146 10.3954 8.15466 11.0599C9.30065 11.7356 10.335 12.4206 11.0614 12.9783C11.4248 13.2573 11.7102 13.5037 11.894 13.7006C11.986 13.7993 12.0513 13.8842 12.0883 13.9537C12.1254 14.0231 12.13 14.069 12.1172 14.0972L12.1021 14.1177C12.0976 14.0868 12.0862 14.0542 12.0698 14.0206C12.0471 13.974 12.0137 13.9234 11.9715 13.8696C11.8872 13.762 11.7656 13.6388 11.6175 13.5057C11.3211 13.2393 10.9154 12.93 10.4807 12.6213C9.61122 12.0038 8.62284 11.3863 8.15418 11.1146L8.15406 11.1146C7.08739 10.5031 6.17374 10.0232 5.46021 9.69511C5.10348 9.53107 4.79636 9.4048 4.5449 9.31899C4.29421 9.23345 4.0963 9.18721 3.95898 9.18523L3.95803 9.18522C3.9351 9.18522 3.8986 9.18522 3.86073 9.19134C3.85257 9.19266 3.84416 9.19429 3.83567 9.19631ZM3.49035 9.87097L3.47597 9.89782C3.49924 9.89395 3.52547 9.89269 3.55418 9.89359C3.63169 9.89604 3.73262 9.91453 3.85348 9.94707C4.09558 10.0122 4.42367 10.1354 4.81637 10.308C5.60212 10.6534 6.65028 11.1984 7.79395 11.8788L7.79413 11.879C8.96454 12.5861 9.90508 13.2208 10.5638 13.7153C10.8931 13.9625 11.1525 14.1749 11.335 14.3441C11.4262 14.4287 11.4987 14.5028 11.5512 14.5654C11.6025 14.6265 11.6374 14.6794 11.6501 14.722C11.6571 14.7403 11.6621 14.7571 11.6654 14.7724L11.6885 14.7378L11.6887 14.7375C11.6943 14.7294 11.6975 14.7171 11.6936 14.697C11.6896 14.6765 11.6786 14.6504 11.6592 14.6185C11.6203 14.5547 11.5517 14.4744 11.4558 14.3797C11.2644 14.1907 10.9694 13.9496 10.6025 13.6767C9.86908 13.1312 8.85168 12.4613 7.80901 11.8313C6.76664 11.2053 5.74562 10.6711 4.95206 10.3164C4.55516 10.139 4.21589 10.0068 3.95965 9.93047C3.83142 9.89227 3.72502 9.86836 3.6431 9.85951C3.60215 9.85508 3.56819 9.85452 3.54116 9.85748C3.51809 9.86001 3.50161 9.86493 3.49035 9.87097ZM11.606 14.8432L11.5308 14.8994H11.6215C11.6332 14.8994 11.6414 14.8932 11.6445 14.8906C11.6462 14.8892 11.6478 14.8877 11.6492 14.8862L11.6744 14.8673L11.7384 14.7717C11.7385 14.7716 11.7385 14.7716 11.7385 14.7716C11.7558 14.7463 11.7587 14.7162 11.7528 14.6855C11.7469 14.6552 11.732 14.6221 11.7107 14.5871C11.6679 14.517 11.5952 14.4326 11.4982 14.3368C11.3037 14.1448 11.0061 13.9017 10.6385 13.6283C9.90303 13.0812 8.88389 12.4103 7.84015 11.7796C6.79611 11.1526 5.77284 10.6172 4.97667 10.2613C4.5787 10.0834 4.23672 9.95009 3.97687 9.87267C3.84705 9.834 3.73669 9.80896 3.64958 9.79955C3.60602 9.79484 3.5674 9.79394 3.5346 9.79753C3.50209 9.80109 3.47306 9.80929 3.45062 9.82462L3.44452 9.82878L3.37968 9.94989L3.43007 9.98263C3.43627 9.97466 3.44781 9.96667 3.4685 9.96105C3.48919 9.95542 3.51693 9.95276 3.55228 9.95387C3.62298 9.95611 3.71873 9.97325 3.83781 10.0053C4.0756 10.0693 4.40049 10.1911 4.7921 10.3632C5.57498 10.7074 6.62087 11.2511 7.76301 11.9306C8.93211 12.6369 9.87087 13.2705 10.5276 13.7635C10.8561 14.01 11.1136 14.2211 11.294 14.3884C11.3842 14.472 11.4547 14.5443 11.505 14.6042C11.5562 14.6651 11.5839 14.7103 11.5926 14.7401L11.5929 14.7413L11.5934 14.7425C11.6112 14.7887 11.6117 14.8174 11.6091 14.8325C11.6082 14.8377 11.6069 14.8411 11.606 14.8432Z" fill="black"/>
<path d="M8.07771 7.08371H7.6635V16.6341H8.07771V7.08371Z" fill="#FCFF2C"/>
<path fill-rule="evenodd" clip-rule="evenodd" d="M7.63319 7.05353H8.10771V16.6642H7.63319V7.05353ZM7.6935 7.11384V16.6039H8.0474V7.11384H7.6935Z" fill="black"/>
<path d="M8.00885 7.03015H8.11624V16.6798H8.00885V7.03015ZM7.6023 7.03015H7.70969V16.6798H7.6023V7.03015Z" fill="#FCFF2C"/>
<path fill-rule="evenodd" clip-rule="evenodd" d="M7.57188 7.00003H7.73958V16.71H7.57188V7.00003ZM7.63219 7.06034V16.6497H7.67927V7.06034H7.63219ZM7.97843 7.00003H8.14613V16.71H7.97843V7.00003ZM8.03874 7.06034V16.6497H8.08582V7.06034H8.03874Z" fill="black"/>
<path d="M4.70273 13.9828C5.66156 13.7078 6.76614 13.6085 7.85537 13.6161V13.2417C6.80449 13.2494 5.76895 13.3105 4.67205 13.6161C4.11209 13.7766 3.65185 13.9905 3.63651 14.0822L3.84362 14.4183C3.89731 14.2579 4.3959 14.0669 4.70273 13.9828Z" fill="#FCFF2C"/>
<path fill-rule="evenodd" clip-rule="evenodd" d="M7.88568 13.2114V13.6465L7.85531 13.6463C6.76776 13.6386 5.6663 13.7379 4.7112 14.0118L4.71085 14.0119C4.55869 14.0536 4.35895 14.1218 4.19104 14.1993C4.10702 14.2381 4.0319 14.2788 3.97492 14.3191C3.91654 14.3603 3.88251 14.3976 3.87237 14.4279L3.85191 14.489L3.60505 14.0884L3.60692 14.0772C3.61048 14.0559 3.62525 14.0369 3.64142 14.0209C3.65854 14.004 3.68178 13.9863 3.70965 13.968C3.76553 13.9314 3.84355 13.8903 3.93772 13.8475C4.12628 13.7618 4.38276 13.6677 4.66389 13.5871L4.66411 13.5871C5.76481 13.2804 6.80345 13.2192 7.85531 13.2116L7.88568 13.2114ZM7.82537 13.2721C6.78595 13.2807 5.76292 13.3435 4.6804 13.6451C4.40162 13.725 4.14804 13.8181 3.96268 13.9024C3.86987 13.9446 3.79496 13.9842 3.74273 14.0184C3.71655 14.0356 3.69694 14.0509 3.68377 14.0639C3.67713 14.0704 3.67296 14.0756 3.67037 14.0794L3.84253 14.3588C3.86624 14.3275 3.9007 14.2977 3.9401 14.2698C4.00129 14.2265 4.08007 14.1841 4.16577 14.1446C4.33722 14.0655 4.5401 13.9962 4.69474 13.9538C5.64833 13.6803 6.74435 13.5802 7.82537 13.5858V13.2721Z" fill="black"/>
<path d="M4.69489 14.0745C5.65373 13.7995 6.7583 13.7002 7.84753 13.7078L7.83986 13.6008C6.78898 13.6085 5.76111 13.662 4.66421 13.9676C4.10425 14.128 3.79743 14.3267 3.78209 14.4184L3.83578 14.51C3.88947 14.3496 4.38807 14.1586 4.69489 14.0745Z" fill="#FCFF2C"/>
<path d="M4.57216 13.6772C5.62304 13.3716 6.78131 13.2952 7.87822 13.2952V13.1883C6.77364 13.1883 5.61537 13.2647 4.54915 13.5703C4.08891 13.7078 3.58265 13.9064 3.56731 14.0593L3.621 14.1586C3.64401 13.9905 4.23465 13.7766 4.57216 13.6772Z" fill="#FCFF2C"/>
<path fill-rule="evenodd" clip-rule="evenodd" d="M4.55767 13.5992C4.32823 13.6678 4.08821 13.7513 3.90409 13.8364C3.81187 13.879 3.7349 13.9214 3.68051 13.9619C3.65332 13.9821 3.63267 14.0012 3.61864 14.0188C3.60768 14.0325 3.6016 14.0443 3.59889 14.0542L3.61865 14.0907C3.62273 14.085 3.62714 14.0795 3.63181 14.074C3.65299 14.0494 3.6814 14.0252 3.71448 14.0018C3.78066 13.9549 3.86921 13.9084 3.96629 13.8646C4.16073 13.7769 4.3942 13.6982 4.56369 13.6483C5.60898 13.3443 6.75907 13.2665 7.84811 13.2651V13.2184C6.75379 13.2198 5.61019 13.2975 4.55767 13.5992ZM4.54089 13.5413C5.61109 13.2345 6.77262 13.1581 7.87826 13.1581H7.90842V13.3254H7.87826C6.78241 13.3254 5.62748 13.4017 4.58067 13.7062C4.41266 13.7556 4.18208 13.8335 3.99109 13.9196C3.89545 13.9627 3.81092 14.0074 3.74934 14.051C3.71854 14.0728 3.69439 14.0937 3.67755 14.1133C3.66053 14.1332 3.65271 14.1496 3.65092 14.1626L3.63841 14.2541L3.53642 14.0654L3.53735 14.0562C3.54005 14.0293 3.55321 14.0041 3.57149 13.9812C3.58988 13.9581 3.6149 13.9355 3.64452 13.9135C3.70375 13.8694 3.78499 13.825 3.87879 13.7816C4.06665 13.6948 4.30981 13.6103 4.54056 13.5414L4.54089 13.5413ZM7.86796 13.5705L7.87999 13.7382L7.84737 13.7379C6.75981 13.7303 5.65835 13.8295 4.70325 14.1035L4.70291 14.1036C4.55075 14.1453 4.351 14.2135 4.18309 14.291C4.09907 14.3298 4.02396 14.3704 3.96698 14.4107C3.90859 14.452 3.87457 14.4893 3.86442 14.5196L3.84335 14.5825L3.75058 14.4241L3.75239 14.4133C3.75543 14.3952 3.76498 14.3775 3.7774 14.3611C3.79005 14.3443 3.80717 14.3268 3.82806 14.3089C3.86986 14.273 3.92909 14.2334 4.00451 14.1923C4.15551 14.1098 4.37436 14.0192 4.65595 13.9386L4.65616 13.9385C5.75695 13.6318 6.78801 13.5783 7.83969 13.5707L7.86796 13.5705ZM7.81185 13.6312C6.77168 13.6396 5.75562 13.6948 4.67245 13.9966C4.39414 14.0763 4.17964 14.1653 4.03342 14.2452C3.96021 14.2852 3.90487 14.3225 3.86732 14.3547C3.84854 14.3708 3.83479 14.3851 3.82555 14.3974C3.82033 14.4043 3.81696 14.41 3.81485 14.4145L3.83534 14.4495C3.85902 14.4185 3.89318 14.389 3.93216 14.3615C3.99335 14.3182 4.07213 14.2758 4.15782 14.2362C4.32927 14.1571 4.53215 14.0878 4.6868 14.0455C5.63973 13.7721 6.73488 13.672 7.81517 13.6774L7.81185 13.6312Z" fill="black"/>
<path d="M5.7775 14.6187C6.3338 15.1744 7.08127 15.4909 7.83845 15.4909C8.61109 15.4909 9.31617 15.1744 9.86474 14.6341C10.4133 14.086 10.7146 13.3682 10.7146 12.5963L10.6972 8.69824H4.90244L4.9276 12.5886C4.9276 13.3528 5.22893 14.0706 5.7775 14.6187Z" fill="white"/>
<path fill-rule="evenodd" clip-rule="evenodd" d="M10.7145 12.5963C10.7145 13.3682 10.4132 14.0861 9.86458 14.6341C9.31601 15.1745 8.61093 15.4909 7.8383 15.4909C7.08111 15.4909 6.33364 15.1745 5.77734 14.6187C5.22877 14.0707 4.92744 13.3528 4.92744 12.5886L4.90228 8.69828H10.697L10.7145 12.5963ZM4.86713 12.5888C4.86719 13.3692 5.17511 14.1023 5.73472 14.6614C6.30183 15.2279 7.06444 15.5512 7.8383 15.5512C8.6282 15.5512 9.34811 15.2275 9.90691 14.6771L9.90721 14.6768C10.4669 14.1176 10.7748 13.3845 10.7748 12.5963L10.7748 12.5961L10.7571 8.63797H4.84158L4.86713 12.5886C4.86713 12.5887 4.86713 12.5887 4.86713 12.5888Z" fill="black"/>
<path d="M5.88582 14.5039C6.41245 15.0344 7.12005 15.3365 7.83685 15.3365C8.56828 15.3365 9.23576 15.0344 9.75507 14.5186C10.2744 13.9955 10.5596 13.3102 10.5596 12.5734L10.5431 8.85257H5.05743L5.08125 12.5661C5.08125 13.2955 5.3665 13.9807 5.88582 14.5039Z" fill="#EA0020"/>
<path fill-rule="evenodd" clip-rule="evenodd" d="M10.5597 12.5734C10.5597 13.3102 10.2745 13.9955 9.75515 14.5186C9.23584 15.0344 8.56836 15.3364 7.83693 15.3364C7.12013 15.3364 6.41252 15.0344 5.88589 14.5038C5.36658 13.9807 5.08132 13.2955 5.08132 12.566L5.0575 8.85255H10.5432L10.5597 12.5734ZM5.02101 12.5662C5.02106 13.3118 5.31279 14.0121 5.84309 14.5463C6.38049 15.0877 7.10329 15.3968 7.83693 15.3968C8.58579 15.3968 9.26816 15.0873 9.79765 14.5614L9.79795 14.5611C10.3284 14.0268 10.62 13.3263 10.62 12.5734L10.6033 8.79224H4.9968L5.02101 12.566C5.02101 12.5661 5.02101 12.5662 5.02101 12.5662Z" fill="black"/>
<path d="M6.58961 13.6435C6.92339 13.9845 7.37187 14.1787 7.82618 14.1787C8.28977 14.1787 8.71281 13.9845 9.04196 13.653C9.3711 13.3167 9.5519 12.8761 9.5519 12.4025L9.54143 10.0105H6.06458L6.07967 12.3977C6.07967 12.8667 6.26047 13.3072 6.58961 13.6435Z" fill="white"/>
<path fill-rule="evenodd" clip-rule="evenodd" d="M6.03426 9.98026H9.57149L9.58209 12.4024C9.58209 12.884 9.39819 13.332 9.06354 13.674L9.06339 13.6741C8.7292 14.0108 8.29866 14.2088 7.82622 14.2088C7.36335 14.2088 6.90722 14.011 6.5681 13.6645C6.23351 13.3226 6.04958 12.8746 6.04955 12.3978C6.04955 12.3977 6.04955 12.3978 6.04955 12.3978L6.03426 9.98026ZM6.09496 10.0406L6.10986 12.3977C6.10986 12.8586 6.28753 13.2916 6.6112 13.6223C6.93963 13.9579 7.38047 14.1485 7.82622 14.1485C8.28091 14.1485 8.69644 13.9581 9.02052 13.6317C9.3441 13.301 9.52176 12.8682 9.52178 12.4025C9.52178 12.4025 9.52178 12.4025 9.52178 12.4025L9.51145 10.0406H6.09496Z" fill="black"/>
<path fill-rule="evenodd" clip-rule="evenodd" d="M7.57378 11.1914C7.50404 11.1142 7.46529 11.0216 7.46529 10.9135V10.3886H8.19375V10.9135C8.19375 11.0216 8.14726 11.1219 8.08526 11.1914C8.02326 11.2609 7.93027 11.3072 7.82952 11.3072C7.72878 11.3072 7.64353 11.2609 7.57378 11.1914ZM7.95759 10.5817C7.95759 10.5431 7.98859 10.5122 8.02734 10.5122C8.06608 10.5122 8.09708 10.5508 8.09708 10.5817C8.09708 10.6203 8.06608 10.6512 8.02734 10.6512C7.98859 10.6512 7.95759 10.6203 7.95759 10.5817ZM7.82562 10.7129C7.78687 10.7129 7.75587 10.7437 7.75587 10.7823C7.75587 10.8209 7.78687 10.8518 7.82562 10.8518C7.86436 10.8518 7.89536 10.8209 7.89536 10.7823C7.89536 10.7437 7.86436 10.7129 7.82562 10.7129ZM7.95759 10.983C7.95759 10.9445 7.98859 10.9136 8.02734 10.9136C8.06608 10.9136 8.09708 10.9445 8.09708 10.983C8.09708 11.0216 8.06608 11.0525 8.02734 11.0525C7.98859 11.0525 7.95759 11.0216 7.95759 10.983ZM7.63175 10.9136C7.593 10.9136 7.562 10.9445 7.562 10.983C7.562 11.0216 7.593 11.0525 7.63175 11.0525C7.67049 11.0525 7.70149 11.0216 7.70149 10.983C7.70924 10.9445 7.67049 10.9136 7.63175 10.9136ZM7.562 10.5817C7.562 10.5431 7.593 10.5122 7.63175 10.5122C7.67049 10.5122 7.70149 10.5508 7.70149 10.5817C7.70149 10.6203 7.67049 10.6512 7.63175 10.6512C7.593 10.6512 7.562 10.6203 7.562 10.5817Z" fill="#1A0095"/>
<path fill-rule="evenodd" clip-rule="evenodd" d="M7.57378 12.4728C7.50404 12.3956 7.46529 12.3029 7.46529 12.1949V11.67H8.19375V12.1949C8.19375 12.3029 8.14726 12.4033 8.08526 12.4728C8.02326 12.5422 7.93027 12.5885 7.82952 12.5885C7.72878 12.5885 7.64353 12.5422 7.57378 12.4728ZM7.95759 11.863C7.95759 11.8244 7.98859 11.7935 8.02734 11.7935C8.06608 11.7935 8.09708 11.8321 8.09708 11.863C8.09708 11.9016 8.06608 11.9325 8.02734 11.9325C7.98859 11.9325 7.95759 11.9016 7.95759 11.863ZM7.82562 11.9942C7.78687 11.9942 7.75587 12.025 7.75587 12.0636C7.75587 12.1022 7.78687 12.1331 7.82562 12.1331C7.86436 12.1331 7.89536 12.1022 7.89536 12.0636C7.89536 12.025 7.86436 11.9942 7.82562 11.9942ZM7.95759 12.2644C7.95759 12.2258 7.98859 12.1949 8.02734 12.1949C8.06608 12.1949 8.09708 12.2258 8.09708 12.2644C8.09708 12.303 8.06608 12.3338 8.02734 12.3338C7.98859 12.3338 7.95759 12.303 7.95759 12.2644ZM7.63175 12.1949C7.593 12.1949 7.562 12.2258 7.562 12.2644C7.562 12.303 7.593 12.3338 7.63175 12.3338C7.67049 12.3338 7.70149 12.303 7.70149 12.2644C7.70924 12.2258 7.67049 12.1949 7.63175 12.1949ZM7.562 11.863C7.562 11.8244 7.593 11.7935 7.63175 11.7935C7.67049 11.7935 7.70149 11.8321 7.70149 11.863C7.70149 11.9016 7.67049 11.9325 7.63175 11.9325C7.593 11.9325 7.562 11.9016 7.562 11.863Z" fill="#1A0095"/>
<path fill-rule="evenodd" clip-rule="evenodd" d="M6.56206 12.4728C6.49231 12.3956 6.45356 12.3029 6.45356 12.1949V11.67H7.18203V12.1949C7.18203 12.3029 7.13553 12.4033 7.07353 12.4728C7.01154 12.5422 6.91854 12.5885 6.81779 12.5885C6.71705 12.5885 6.6318 12.5422 6.56206 12.4728ZM6.94537 11.863C6.94537 11.8244 6.97637 11.7935 7.01512 11.7935C7.05387 11.7935 7.08487 11.8321 7.08487 11.863C7.08487 11.9016 7.05387 11.9325 7.01512 11.9325C6.97637 11.9325 6.94537 11.9016 6.94537 11.863ZM6.81389 11.9942C6.77514 11.9942 6.74414 12.025 6.74414 12.0636C6.74414 12.1022 6.77514 12.1331 6.81389 12.1331C6.85264 12.1331 6.88364 12.1022 6.88364 12.0636C6.88364 12.025 6.85264 11.9942 6.81389 11.9942ZM6.94537 12.2644C6.94537 12.2258 6.97637 12.1949 7.01512 12.1949C7.05387 12.1949 7.08487 12.2258 7.08487 12.2644C7.08487 12.303 7.05387 12.3338 7.01512 12.3338C6.97637 12.3338 6.94537 12.303 6.94537 12.2644ZM6.62002 12.1949C6.58127 12.1949 6.55027 12.2258 6.55027 12.2644C6.55027 12.303 6.58127 12.3338 6.62002 12.3338C6.65877 12.3338 6.68977 12.303 6.68977 12.2644C6.69752 12.2258 6.65877 12.1949 6.62002 12.1949ZM6.55027 11.863C6.55027 11.8244 6.58127 11.7935 6.62002 11.7935C6.65877 11.7935 6.68977 11.8321 6.68977 11.863C6.68977 11.9016 6.65877 11.9325 6.62002 11.9325C6.58127 11.9325 6.55027 11.9016 6.55027 11.863Z" fill="#1A0095"/>
<path fill-rule="evenodd" clip-rule="evenodd" d="M8.58437 12.4728C8.51462 12.3956 8.47587 12.3029 8.47587 12.1949V11.67H9.20433V12.1949C9.20433 12.3029 9.15784 12.4033 9.09584 12.4728C9.03384 12.5422 8.94085 12.5885 8.8401 12.5885C8.73936 12.5885 8.65411 12.5422 8.58437 12.4728ZM8.96766 11.863C8.96766 11.8244 8.99866 11.7935 9.03741 11.7935C9.07616 11.7935 9.10716 11.8321 9.10716 11.863C9.10716 11.9016 9.07616 11.9325 9.03741 11.9325C8.99866 11.9325 8.96766 11.9016 8.96766 11.863ZM8.83618 11.9942C8.79743 11.9942 8.76643 12.025 8.76643 12.0636C8.76643 12.1022 8.79743 12.1331 8.83618 12.1331C8.87493 12.1331 8.90592 12.1022 8.90592 12.0636C8.90592 12.025 8.87493 11.9942 8.83618 11.9942ZM8.96766 12.2644C8.96766 12.2258 8.99866 12.1949 9.03741 12.1949C9.07616 12.1949 9.10716 12.2258 9.10716 12.2644C9.10716 12.303 9.07616 12.3338 9.03741 12.3338C8.99866 12.3338 8.96766 12.303 8.96766 12.2644ZM8.64231 12.1949C8.60356 12.1949 8.57256 12.2258 8.57256 12.2644C8.57256 12.303 8.60356 12.3338 8.64231 12.3338C8.68106 12.3338 8.71205 12.303 8.71205 12.2644C8.7198 12.2258 8.68106 12.1949 8.64231 12.1949ZM8.57256 11.863C8.57256 11.8244 8.60356 11.7935 8.64231 11.7935C8.68106 11.7935 8.71205 11.8321 8.71205 11.863C8.71205 11.9016 8.68106 11.9325 8.64231 11.9325C8.60356 11.9325 8.57256 11.9016 8.57256 11.863Z" fill="#1A0095"/>
<path fill-rule="evenodd" clip-rule="evenodd" d="M7.57378 13.7232C7.50404 13.6461 7.46529 13.5534 7.46529 13.4454V12.9205H8.19375V13.4454C8.19375 13.5534 8.14726 13.6538 8.08526 13.7232C8.02326 13.7927 7.93027 13.839 7.82952 13.839C7.72878 13.839 7.64353 13.7927 7.57378 13.7232ZM7.95759 13.1134C7.95759 13.0748 7.98859 13.044 8.02734 13.044C8.06608 13.044 8.09708 13.0826 8.09708 13.1134C8.09708 13.152 8.06608 13.1829 8.02734 13.1829C7.98859 13.1829 7.95759 13.152 7.95759 13.1134ZM7.82562 13.2447C7.78687 13.2447 7.75587 13.2756 7.75587 13.3142C7.75587 13.3528 7.78687 13.3836 7.82562 13.3836C7.86436 13.3836 7.89536 13.3528 7.89536 13.3142C7.89536 13.2756 7.86436 13.2447 7.82562 13.2447ZM7.95759 13.5148C7.95759 13.4762 7.98859 13.4453 8.02734 13.4453C8.06608 13.4453 8.09708 13.4762 8.09708 13.5148C8.09708 13.5534 8.06608 13.5843 8.02734 13.5843C7.98859 13.5843 7.95759 13.5534 7.95759 13.5148ZM7.63175 13.4453C7.593 13.4453 7.562 13.4762 7.562 13.5148C7.562 13.5534 7.593 13.5843 7.63175 13.5843C7.67049 13.5843 7.70149 13.5534 7.70149 13.5148C7.70924 13.4762 7.67049 13.4453 7.63175 13.4453ZM7.562 13.1134C7.562 13.0748 7.593 13.044 7.63175 13.044C7.67049 13.044 7.70149 13.0826 7.70149 13.1134C7.70149 13.152 7.67049 13.1829 7.63175 13.1829C7.593 13.1829 7.562 13.152 7.562 13.1134Z" fill="#1A0095"/>
<path d="M7.76621 9.06723H7.71863V9.15455C7.71863 9.16127 7.73222 9.1747 7.74582 9.1747H7.75545L7.74294 9.42811H7.6982V9.30006H7.70503C7.71183 9.30006 7.72542 9.29334 7.72542 9.27991V9.19259H7.67104V9.23289H7.63705V9.19259H7.58267V9.23289H7.54868V9.19259H7.50109V9.27991C7.50109 9.28663 7.50789 9.30006 7.52149 9.30006H7.52825V9.42811H7.50501C7.48465 9.42811 7.47786 9.45135 7.47786 9.4746C7.47786 9.49784 7.49144 9.52109 7.50501 9.52109H7.50665L7.48198 9.76485H7.47391C7.46032 9.76485 7.44672 9.77829 7.44672 9.79844C7.44672 9.81859 7.46032 9.83202 7.47391 9.83202H8.19449C8.20808 9.83202 8.22168 9.81859 8.22168 9.79844C8.22168 9.77829 8.20808 9.76485 8.19449 9.76485H8.18609L8.15525 9.52109H8.16341C8.17698 9.52109 8.19056 9.49784 8.19056 9.4746C8.19056 9.45135 8.17698 9.42811 8.16341 9.42811H8.14691V9.30006H8.15374C8.16054 9.30006 8.17413 9.29334 8.17413 9.27991V9.19259H8.11975V9.23289H8.08576V9.19259H8.03138V9.23289H7.99739V9.19259H7.9498V9.27991C7.9498 9.28663 7.9566 9.30006 7.9702 9.30006H7.97696V9.42811H7.92553L7.91302 9.1747H7.93616C7.94296 9.1747 7.95655 9.16799 7.95655 9.15455V9.06723H7.90217V9.10753H7.86138V9.06723H7.807V9.10753H7.76621V9.06723Z" fill="#FCFF2C"/>
<path fill-rule="evenodd" clip-rule="evenodd" d="M7.6885 9.03711H7.98674V9.15459C7.98674 9.15733 7.98652 9.15996 7.98611 9.16247H8.20431V9.27994C8.20431 9.29802 8.19483 9.31111 8.18521 9.31871C8.18271 9.32069 8.17998 9.32248 8.17709 9.32403V9.40017C8.19282 9.40537 8.20303 9.41872 8.20814 9.42746C8.21589 9.44073 8.22074 9.45759 8.22074 9.47463C8.22074 9.49167 8.21589 9.50853 8.20814 9.5218C8.20439 9.52821 8.1979 9.5371 8.1885 9.54344L8.21312 9.73805C8.23681 9.7469 8.25186 9.77219 8.25186 9.79847C8.25186 9.83111 8.22865 9.86221 8.19452 9.86221H7.47394C7.43981 9.86221 7.41659 9.83111 7.41659 9.79847C7.41659 9.77254 7.43124 9.74759 7.45438 9.73842L7.47453 9.53925C7.46801 9.53355 7.46331 9.52689 7.46033 9.5218C7.45258 9.50853 7.44773 9.49167 7.44773 9.47463C7.44773 9.46088 7.44962 9.44404 7.45671 9.42947C7.46374 9.41504 7.47726 9.40098 7.49812 9.39841V9.32435C7.49175 9.32088 7.48661 9.31625 7.48278 9.31151C7.47581 9.3029 7.47096 9.29134 7.47096 9.27994V9.16247H7.68937C7.68883 9.16003 7.6885 9.15739 7.6885 9.15459V9.03711ZM7.53127 9.26308V9.26994H7.55843V9.4583H7.51001C7.50966 9.45946 7.50929 9.46094 7.50897 9.46277C7.50837 9.46619 7.50804 9.47022 7.50804 9.47463C7.50804 9.48063 7.50985 9.4868 7.51217 9.49097H7.54004L7.50927 9.79504H7.47742C7.47715 9.79578 7.4769 9.79689 7.4769 9.79847C7.4769 9.80006 7.47715 9.80117 7.47742 9.8019H8.19104C8.1913 9.80117 8.19155 9.80006 8.19155 9.79847C8.19155 9.79689 8.1913 9.79578 8.19104 9.79504H8.15954L8.12107 9.49097H8.1563C8.15862 9.4868 8.16043 9.48063 8.16043 9.47463C8.16043 9.46863 8.15862 9.46247 8.1563 9.4583H8.11678V9.26994H8.144V9.26308H7.97998V9.26994H8.00714V9.4583H7.89685L7.88136 9.14458H7.92643V9.13772H7.74881V9.14458H7.78715L7.77167 9.4583H7.66807V9.26994H7.69529V9.26308H7.53127Z" fill="black"/>
<path d="M7.6732 9.83922C7.6732 9.60125 7.83132 9.53326 7.83132 9.53326C7.83132 9.53326 8.00074 9.60125 8.00074 9.83922H7.6732Z" fill="#FCFF2C"/>
<path fill-rule="evenodd" clip-rule="evenodd" d="M7.83255 9.60324C7.82258 9.61082 7.81051 9.62152 7.79831 9.63595C7.77412 9.66455 7.74771 9.70975 7.73768 9.77891H7.93591C7.92522 9.71086 7.8973 9.66615 7.87134 9.6375C7.8575 9.62223 7.84375 9.61104 7.83255 9.60324ZM7.99685 9.77891C7.97156 9.58954 7.83132 9.53326 7.83132 9.53326C7.83132 9.53326 7.70044 9.58954 7.67683 9.77891C7.67449 9.79768 7.6732 9.81775 7.6732 9.83922H8.00074C8.00074 9.81775 7.99936 9.79768 7.99685 9.77891Z" fill="black"/>
<path d="M7.74355 9.77053C7.74355 9.63932 7.83073 9.60184 7.83073 9.60184C7.83073 9.60184 7.92414 9.63932 7.92414 9.77053H7.74355Z" fill="#FCFF2C"/>
<path fill-rule="evenodd" clip-rule="evenodd" d="M7.8323 9.67699C7.82603 9.68461 7.81904 9.69535 7.81356 9.71022H7.85315C7.84717 9.69558 7.83958 9.68502 7.83274 9.67748C7.83259 9.67731 7.83245 9.67715 7.8323 9.67699ZM7.91663 9.71022C7.89444 9.62741 7.83073 9.60184 7.83073 9.60184C7.83073 9.60184 7.77126 9.62741 7.75055 9.71022C7.74619 9.72768 7.74355 9.74769 7.74355 9.77053H7.92414C7.92414 9.74769 7.92131 9.72768 7.91663 9.71022Z" fill="black"/>
<path d="M7.57941 9.34177C7.57941 9.29361 7.61141 9.27985 7.61141 9.27985C7.61141 9.27985 7.6457 9.29361 7.6457 9.34177V9.39378H7.57941V9.34177Z" fill="black"/>
<path d="M8.03237 9.34177C8.03237 9.29361 8.06437 9.27985 8.06437 9.27985C8.06437 9.27985 8.09866 9.29361 8.09866 9.34177V9.39378H8.03237V9.34177Z" fill="black"/>
<path fill-rule="evenodd" clip-rule="evenodd" d="M8.15116 9.45853H7.52164V9.39822H8.15116V9.45853Z" fill="black"/>
<path fill-rule="evenodd" clip-rule="evenodd" d="M8.15104 9.55167L7.5062 9.55167L7.5062 9.49136L8.15104 9.49136L8.15104 9.55167Z" fill="black"/>
<path fill-rule="evenodd" clip-rule="evenodd" d="M8.18405 9.50306L7.47589 9.50306L7.47589 9.44275L8.18405 9.44275L8.18405 9.50306Z" fill="black"/>
<path fill-rule="evenodd" clip-rule="evenodd" d="M8.19213 9.79527L7.47589 9.79527L7.47589 9.73495L8.19213 9.73495L8.19213 9.79527Z" fill="black"/>
<path d="M7.8036 9.27064C7.8036 9.22247 7.83561 9.20871 7.83561 9.20871C7.83561 9.20871 7.8699 9.22247 7.8699 9.27064V9.32264H7.8036V9.27064Z" fill="black"/>
<path d="M5.7825 13.7568L5.74885 13.7903L5.81085 13.8521C5.81561 13.8568 5.83477 13.8568 5.84438 13.8472L5.85119 13.8404L6.02224 14.0284L5.9906 14.0599L5.8997 13.9694L5.90453 13.9645C5.90934 13.9598 5.91418 13.9454 5.90464 13.9359L5.84265 13.8742L5.8042 13.9125L5.83281 13.941L5.80877 13.9649L5.78016 13.9364L5.74171 13.9747L5.77032 14.0032L5.74629 14.0272L5.71767 13.9987L5.68403 14.0322L5.74602 14.0939C5.75079 14.0987 5.76513 14.1034 5.77474 14.0938L5.77953 14.0891L5.87043 14.1796L5.854 14.196C5.8396 14.2103 5.8513 14.2315 5.8678 14.248C5.88431 14.2644 5.91041 14.2713 5.92001 14.2617L5.92117 14.2606L6.07678 14.4503L6.07107 14.456C6.06145 14.4656 6.06138 14.4846 6.07568 14.4989C6.08999 14.5131 6.10914 14.5131 6.11875 14.5035L6.62828 13.996C6.63789 13.9864 6.63797 13.9673 6.62366 13.9531C6.60936 13.9388 6.59021 13.9389 6.58059 13.9485L6.57465 13.9544L6.3798 13.8037L6.38556 13.798C6.39516 13.7884 6.38826 13.7624 6.37176 13.746C6.35525 13.7296 6.32915 13.7227 6.31955 13.7323L6.30789 13.7439L6.21698 13.6533L6.22181 13.6485C6.22662 13.6437 6.23147 13.6294 6.22193 13.6199L6.15994 13.5582L6.12148 13.5965L6.15009 13.625L6.12606 13.6489L6.09745 13.6204L6.05899 13.6587L6.08761 13.6872L6.06357 13.7111L6.03496 13.6826L6.00131 13.7162L6.0633 13.7779C6.06807 13.7827 6.08242 13.7874 6.09203 13.7778L6.09681 13.773L6.18772 13.8636L6.15135 13.8998L5.96261 13.7294L5.97897 13.7131C5.98378 13.7083 5.98862 13.694 5.97909 13.6845L5.91709 13.6228L5.87864 13.6611L5.90725 13.6896L5.87841 13.7183L5.8498 13.6898L5.81134 13.7281L5.83996 13.7566L5.81111 13.7853L5.7825 13.7568Z" fill="#FCFF2C"/>
<path fill-rule="evenodd" clip-rule="evenodd" d="M5.70608 13.7903L5.91705 13.5802L6.00041 13.6632C6.00237 13.6652 6.00409 13.6672 6.0056 13.6693L6.1599 13.5156L6.24326 13.5986C6.25604 13.6114 6.25863 13.6272 6.25723 13.6394C6.25686 13.6426 6.2562 13.6458 6.25525 13.6489L6.3094 13.7029C6.32426 13.6954 6.34098 13.6977 6.35075 13.7003C6.36563 13.7042 6.38101 13.7127 6.39308 13.7247C6.40515 13.7368 6.41368 13.7521 6.41762 13.7669C6.41952 13.774 6.42125 13.7849 6.41908 13.796L6.57475 13.9164C6.59783 13.906 6.62641 13.9133 6.64499 13.9318C6.66806 13.9548 6.67384 13.9931 6.6496 14.0173L6.14008 14.5248C6.11584 14.5489 6.07735 14.5431 6.05428 14.5202C6.03595 14.5019 6.02854 14.474 6.03841 14.4511L5.91119 14.296C5.9025 14.2966 5.89443 14.2952 5.88873 14.2937C5.87385 14.2898 5.85847 14.2813 5.8464 14.2692C5.83664 14.2595 5.82605 14.2463 5.82073 14.231C5.81547 14.2159 5.81502 14.1965 5.82796 14.1799L5.77529 14.1274C5.7683 14.1295 5.76137 14.1298 5.75531 14.1292C5.74427 14.128 5.73267 14.1232 5.72461 14.1152L5.64126 14.0322L5.79571 13.8783C5.79358 13.877 5.79145 13.8754 5.78944 13.8734L5.70608 13.7903ZM5.75533 14.0607L5.76028 14.0656L5.77949 14.0465L5.91312 14.1796L5.87889 14.2137C5.87947 14.2148 5.88026 14.2161 5.88134 14.2176C5.88335 14.2205 5.88599 14.2236 5.88913 14.2267C5.89341 14.2309 5.89908 14.234 5.90369 14.2354L5.92339 14.2157L6.11742 14.4523L6.0949 14.4748C6.09524 14.4755 6.09587 14.4765 6.09701 14.4776C6.09815 14.4787 6.09914 14.4794 6.09986 14.4797L6.60436 13.9772C6.60402 13.9765 6.6034 13.9755 6.60226 13.9744C6.60112 13.9732 6.60013 13.9726 6.59941 13.9723L6.57714 13.9944L6.33416 13.8066L6.35906 13.7818C6.35774 13.7772 6.35463 13.7715 6.35035 13.7673C6.34607 13.763 6.3404 13.7599 6.33578 13.7586L6.30785 13.7864L6.17421 13.6533L6.19346 13.6342L6.18851 13.6292L6.07261 13.7447L6.07757 13.7496L6.09677 13.7305L6.23041 13.8636L6.15233 13.9413L5.91876 13.7305L5.95062 13.6988L5.94567 13.6938L5.82016 13.8188L5.82511 13.8238L5.85222 13.7968L6.0639 14.0294L5.99056 14.1025L5.85693 13.9694L5.87618 13.9502L5.87122 13.9452L5.75533 14.0607Z" fill="black"/>
<path d="M6.26506 14.3677C6.09613 14.1995 6.15967 14.04 6.15967 14.04C6.15967 14.04 6.32773 13.9688 6.49666 14.1371L6.26506 14.3677Z" fill="#FCFF2C"/>
<path fill-rule="evenodd" clip-rule="evenodd" d="M6.21018 14.0886C6.20854 14.101 6.20762 14.117 6.20923 14.1357C6.21243 14.173 6.22587 14.2236 6.268 14.2797L6.40803 14.1402C6.35205 14.0995 6.30046 14.0875 6.26172 14.0856C6.2412 14.0845 6.22361 14.0863 6.21018 14.0886ZM6.4512 14.0972C6.29884 13.981 6.15967 14.04 6.15967 14.04C6.15967 14.04 6.10705 14.1721 6.22489 14.3226C6.23654 14.3375 6.24986 14.3526 6.26506 14.3677L6.49666 14.1371C6.48146 14.1219 6.46627 14.1087 6.4512 14.0972Z" fill="black"/>
<path d="M6.26599 14.2698C6.17285 14.1771 6.20788 14.0891 6.20788 14.0891C6.20788 14.0891 6.30054 14.0499 6.39369 14.1426L6.26599 14.2698Z" fill="#FCFF2C"/>
<path fill-rule="evenodd" clip-rule="evenodd" d="M6.26237 14.1412C6.26337 14.151 6.26609 14.1635 6.2728 14.1779L6.30073 14.1501C6.28599 14.1439 6.27302 14.1417 6.26276 14.1412C6.26263 14.1412 6.2625 14.1412 6.26237 14.1412ZM6.34567 14.1053C6.27115 14.0623 6.20788 14.0891 6.20788 14.0891C6.20788 14.0891 6.18396 14.1492 6.2282 14.2224C6.2375 14.2377 6.24981 14.2537 6.26599 14.2698L6.39369 14.1426C6.37751 14.1265 6.36134 14.1144 6.34567 14.1053Z" fill="black"/>
<path d="M5.8459 14.0821C5.81171 14.0481 5.82457 14.0158 5.82457 14.0158C5.82457 14.0158 5.85859 14.0014 5.89278 14.0354L5.9297 14.0722L5.88282 14.1189L5.8459 14.0821Z" fill="black"/>
<path d="M6.16618 13.7629C6.13198 13.7288 6.14485 13.6966 6.14485 13.6966C6.14485 13.6966 6.17886 13.6822 6.21306 13.7162L6.24998 13.753L6.2031 13.7997L6.16618 13.7629Z" fill="black"/>
<path fill-rule="evenodd" clip-rule="evenodd" d="M6.3327 13.762L5.88756 14.2053L5.84483 14.1628L6.28997 13.7194L6.3327 13.762Z" fill="black"/>
<path fill-rule="evenodd" clip-rule="evenodd" d="M6.39844 13.8278L5.94247 14.282L5.89974 14.2394L6.35571 13.7852L6.39844 13.8278Z" fill="black"/>
<path fill-rule="evenodd" clip-rule="evenodd" d="M6.38717 13.7704L5.88642 14.2692L5.84369 14.2266L6.34444 13.7279L6.38717 13.7704Z" fill="black"/>
<path fill-rule="evenodd" clip-rule="evenodd" d="M6.60049 13.9713L6.09403 14.4757L6.0513 14.4332L6.55775 13.9287L6.60049 13.9713Z" fill="black"/>
<path d="M5.95399 13.8737C5.9198 13.8397 5.93266 13.8074 5.93266 13.8074C5.93266 13.8074 5.96668 13.793 6.00087 13.827L6.03779 13.8638L5.99091 13.9105L5.95399 13.8737Z" fill="black"/>
<path d="M9.81629 13.7568L9.84994 13.7903L9.78795 13.8521C9.78318 13.8568 9.76403 13.8568 9.75441 13.8472L9.74761 13.8404L9.57656 14.0284L9.60819 14.0599L9.6991 13.9694L9.69426 13.9645C9.68946 13.9598 9.68461 13.9454 9.69415 13.9359L9.75614 13.8742L9.7946 13.9125L9.76598 13.941L9.79002 13.9649L9.81863 13.9364L9.85708 13.9747L9.82847 14.0032L9.85251 14.0272L9.88112 13.9987L9.91477 14.0322L9.85277 14.0939C9.84801 14.0987 9.83366 14.1034 9.82405 14.0938L9.81927 14.0891L9.72836 14.1796L9.74479 14.196C9.75919 14.2103 9.74749 14.2315 9.73099 14.248C9.71449 14.2644 9.68839 14.2713 9.67879 14.2617L9.67763 14.2606L9.52202 14.4503L9.52772 14.456C9.53734 14.4656 9.53741 14.4846 9.52311 14.4989C9.5088 14.5131 9.48965 14.5131 9.48004 14.5035L8.97051 13.996C8.9609 13.9864 8.96082 13.9673 8.97513 13.9531C8.98943 13.9388 9.00859 13.9389 9.0182 13.9485L9.02414 13.9544L9.219 13.8037L9.21323 13.798C9.20363 13.7884 9.21054 13.7624 9.22704 13.746C9.24354 13.7296 9.26964 13.7227 9.27924 13.7323L9.29091 13.7439L9.38181 13.6533L9.37698 13.6485C9.37217 13.6437 9.36733 13.6294 9.37686 13.6199L9.43885 13.5582L9.47731 13.5965L9.4487 13.625L9.47273 13.6489L9.50134 13.6204L9.5398 13.6587L9.51119 13.6872L9.53522 13.7111L9.56383 13.6826L9.59748 13.7162L9.53549 13.7779C9.53072 13.7827 9.51638 13.7874 9.50676 13.7778L9.50198 13.773L9.41108 13.8636L9.44745 13.8998L9.63619 13.7294L9.61982 13.7131C9.61501 13.7083 9.61017 13.694 9.61971 13.6845L9.6817 13.6228L9.72015 13.6611L9.69154 13.6896L9.72038 13.7183L9.74899 13.6898L9.78745 13.7281L9.75884 13.7566L9.78768 13.7853L9.81629 13.7568Z" fill="#FCFF2C"/>
<path fill-rule="evenodd" clip-rule="evenodd" d="M9.8929 13.7903L9.68193 13.5802L9.59857 13.6632C9.59661 13.6652 9.59489 13.6672 9.59339 13.6693L9.43909 13.5156L9.35573 13.5986C9.34295 13.6114 9.34035 13.6272 9.34176 13.6394C9.34212 13.6426 9.34278 13.6458 9.34373 13.6489L9.28958 13.7029C9.27472 13.6954 9.25801 13.6977 9.24823 13.7003C9.23335 13.7042 9.21798 13.7127 9.2059 13.7247C9.19383 13.7368 9.1853 13.7521 9.18137 13.7669C9.17947 13.774 9.17774 13.7849 9.1799 13.796L9.02423 13.9164C9.00115 13.906 8.97257 13.9133 8.95399 13.9318C8.93093 13.9548 8.92514 13.9931 8.94938 14.0173L9.4589 14.5248C9.48314 14.5489 9.52164 14.5431 9.5447 14.5202C9.56303 14.5019 9.57045 14.474 9.56057 14.4511L9.6878 14.296C9.69648 14.2966 9.70455 14.2952 9.71026 14.2937C9.72514 14.2898 9.74051 14.2813 9.75259 14.2692C9.76234 14.2595 9.77294 14.2463 9.77826 14.231C9.78352 14.2159 9.78397 14.1965 9.77102 14.1799L9.82369 14.1274C9.83068 14.1295 9.83761 14.1298 9.84368 14.1292C9.85472 14.128 9.86631 14.1232 9.87437 14.1152L9.95773 14.0322L9.80328 13.8783C9.80541 13.877 9.80754 13.8754 9.80954 13.8734L9.8929 13.7903ZM9.84366 14.0607L9.8387 14.0656L9.8195 14.0465L9.68586 14.1796L9.72009 14.2137C9.71952 14.2148 9.71872 14.2161 9.71764 14.2176C9.71563 14.2205 9.71299 14.2236 9.70985 14.2267C9.70558 14.2309 9.6999 14.234 9.69529 14.2354L9.6756 14.2157L9.48156 14.4523L9.50408 14.4748C9.50374 14.4755 9.50312 14.4765 9.50197 14.4776C9.50083 14.4787 9.49985 14.4794 9.49912 14.4797L8.99462 13.9772C8.99496 13.9765 8.99558 13.9755 8.99673 13.9744C8.99787 13.9732 8.99885 13.9726 8.99958 13.9723L9.02185 13.9944L9.26482 13.8066L9.23992 13.7818C9.24125 13.7772 9.24436 13.7715 9.24863 13.7673C9.25291 13.763 9.25859 13.7599 9.2632 13.7586L9.29114 13.7864L9.42477 13.6533L9.40552 13.6342L9.41047 13.6292L9.52637 13.7447L9.52141 13.7496L9.50221 13.7305L9.36858 13.8636L9.44665 13.9413L9.68022 13.7305L9.64836 13.6988L9.65332 13.6938L9.77883 13.8188L9.77387 13.8238L9.74676 13.7968L9.53508 14.0294L9.60842 14.1025L9.74206 13.9694L9.7228 13.9502L9.72776 13.9452L9.84366 14.0607Z" fill="black"/>
<path d="M9.33373 14.3677C9.50267 14.1995 9.43913 14.04 9.43913 14.04C9.43913 14.04 9.27107 13.9688 9.10213 14.1371L9.33373 14.3677Z" fill="#FCFF2C"/>
<path fill-rule="evenodd" clip-rule="evenodd" d="M9.38861 14.0886C9.39026 14.101 9.39118 14.117 9.38957 14.1357C9.38637 14.173 9.37293 14.2236 9.3308 14.2797L9.19077 14.1402C9.24675 14.0995 9.29833 14.0875 9.33707 14.0856C9.3576 14.0845 9.37519 14.0863 9.38861 14.0886ZM9.1476 14.0972C9.29995 13.981 9.43913 14.04 9.43913 14.04C9.43913 14.04 9.49175 14.1721 9.37391 14.3226C9.36226 14.3375 9.34894 14.3526 9.33373 14.3677L9.10213 14.1371C9.11734 14.1219 9.13253 14.1087 9.1476 14.0972Z" fill="black"/>
<path d="M9.33337 14.2698C9.42652 14.1771 9.39148 14.0891 9.39148 14.0891C9.39148 14.0891 9.29882 14.0499 9.20567 14.1426L9.33337 14.2698Z" fill="#FCFF2C"/>
<path fill-rule="evenodd" clip-rule="evenodd" d="M9.337 14.1412C9.33599 14.151 9.33328 14.1635 9.32656 14.1779L9.29864 14.1501C9.31338 14.1439 9.32635 14.1417 9.3366 14.1412C9.33673 14.1412 9.33686 14.1412 9.337 14.1412ZM9.25369 14.1053C9.32822 14.0623 9.39148 14.0891 9.39148 14.0891C9.39148 14.0891 9.4154 14.1492 9.37117 14.2224C9.36187 14.2377 9.34956 14.2537 9.33337 14.2698L9.20567 14.1426C9.22186 14.1265 9.23802 14.1144 9.25369 14.1053Z" fill="black"/>
<path d="M9.75346 14.0821C9.78765 14.0481 9.77479 14.0158 9.77479 14.0158C9.77479 14.0158 9.74078 14.0014 9.70658 14.0354L9.66966 14.0722L9.71654 14.1189L9.75346 14.0821Z" fill="black"/>
<path d="M9.43319 13.7629C9.46738 13.7288 9.45452 13.6966 9.45452 13.6966C9.45452 13.6966 9.4205 13.6822 9.38631 13.7162L9.34939 13.753L9.39627 13.7997L9.43319 13.7629Z" fill="black"/>
<path fill-rule="evenodd" clip-rule="evenodd" d="M9.26666 13.762L9.7118 14.2053L9.75453 14.1628L9.3094 13.7194L9.26666 13.762Z" fill="black"/>
<path fill-rule="evenodd" clip-rule="evenodd" d="M9.20036 13.8278L9.65633 14.282L9.69906 14.2394L9.24309 13.7852L9.20036 13.8278Z" fill="black"/>
<path fill-rule="evenodd" clip-rule="evenodd" d="M9.21163 13.7704L9.71237 14.2692L9.7551 14.2266L9.25436 13.7279L9.21163 13.7704Z" fill="black"/>
<path fill-rule="evenodd" clip-rule="evenodd" d="M8.99831 13.9713L9.50477 14.4757L9.5475 14.4332L9.04104 13.9287L8.99831 13.9713Z" fill="black"/>
<path d="M9.6448 13.8737C9.67899 13.8397 9.66613 13.8074 9.66613 13.8074C9.66613 13.8074 9.63211 13.793 9.59792 13.827L9.561 13.8638L9.60788 13.9105L9.6448 13.8737Z" fill="black"/>
<path d="M5.45418 9.06723H5.40659V9.15455C5.40659 9.16127 5.42019 9.1747 5.43378 9.1747H5.44341L5.4309 9.42811H5.38616V9.30006H5.39299C5.39979 9.30006 5.41339 9.29334 5.41339 9.27991V9.19259H5.359V9.23289H5.32502V9.19259H5.27063V9.23289H5.23664V9.19259H5.18906V9.27991C5.18906 9.28663 5.19586 9.30006 5.20945 9.30006H5.21621V9.42811H5.19298C5.17261 9.42811 5.16583 9.45135 5.16583 9.4746C5.16583 9.49784 5.1794 9.52109 5.19298 9.52109H5.19462L5.16995 9.76485H5.16188C5.14828 9.76485 5.13469 9.77829 5.13469 9.79844C5.13469 9.81859 5.14828 9.83202 5.16188 9.83202H5.88245C5.89605 9.83202 5.90965 9.81859 5.90965 9.79844C5.90965 9.77829 5.89605 9.76485 5.88245 9.76485H5.87406L5.84322 9.52109H5.85137C5.86495 9.52109 5.87852 9.49784 5.87852 9.4746C5.87852 9.45135 5.86495 9.42811 5.85137 9.42811H5.83487V9.30006H5.8417C5.8485 9.30006 5.8621 9.29334 5.8621 9.27991V9.19259H5.80771V9.23289H5.77373V9.19259H5.71934V9.23289H5.68535V9.19259H5.63777V9.27991C5.63777 9.28663 5.64457 9.30006 5.65816 9.30006H5.66492V9.42811H5.61349L5.60098 9.1747H5.62413C5.63092 9.1747 5.64452 9.16799 5.64452 9.15455V9.06723H5.59014V9.10753H5.54935V9.06723H5.49497V9.10753H5.45418V9.06723Z" fill="#FCFF2C"/>
<path fill-rule="evenodd" clip-rule="evenodd" d="M5.37623 9.03711H5.67447V9.15459C5.67447 9.15733 5.67425 9.15996 5.67385 9.16247H5.89205V9.27994C5.89205 9.29802 5.88257 9.31111 5.87294 9.31871C5.87045 9.32069 5.86771 9.32248 5.86482 9.32403V9.40017C5.88056 9.40537 5.89077 9.41872 5.89587 9.42746C5.90362 9.44073 5.90847 9.45759 5.90847 9.47463C5.90847 9.49167 5.90362 9.50853 5.89587 9.5218C5.89213 9.52821 5.88563 9.5371 5.87623 9.54344L5.90085 9.73805C5.92454 9.7469 5.9396 9.77219 5.9396 9.79847C5.9396 9.83111 5.91638 9.86221 5.88225 9.86221H5.16167C5.12754 9.86221 5.10432 9.83111 5.10432 9.79847C5.10432 9.77254 5.11897 9.74759 5.14211 9.73842L5.16227 9.53925C5.15575 9.53355 5.15104 9.52689 5.14806 9.5218C5.14032 9.50853 5.13546 9.49167 5.13546 9.47463C5.13546 9.46088 5.13735 9.44404 5.14444 9.42947C5.15147 9.41504 5.16499 9.40098 5.18585 9.39841V9.32435C5.17948 9.32088 5.17435 9.31625 5.17051 9.31151C5.16354 9.3029 5.1587 9.29134 5.1587 9.27994V9.16247H5.37711C5.37656 9.16003 5.37623 9.15739 5.37623 9.15459V9.03711ZM5.21901 9.26308V9.26994H5.24616V9.4583H5.19775C5.19739 9.45946 5.19702 9.46094 5.1967 9.46277C5.1961 9.46619 5.19577 9.47022 5.19577 9.47463C5.19577 9.48063 5.19758 9.4868 5.1999 9.49097H5.22777L5.197 9.79504H5.16515C5.16489 9.79578 5.16463 9.79689 5.16463 9.79847C5.16463 9.80006 5.16489 9.80117 5.16515 9.8019H5.87877C5.87903 9.80117 5.87928 9.80006 5.87928 9.79847C5.87928 9.79689 5.87903 9.79578 5.87877 9.79504H5.84727L5.8088 9.49097H5.84403C5.84635 9.4868 5.84816 9.48063 5.84816 9.47463C5.84816 9.46863 5.84635 9.46247 5.84403 9.4583H5.80451V9.26994H5.83174V9.26308H5.66772V9.26994H5.69487V9.4583H5.58458L5.56909 9.14458H5.61416V9.13772H5.43654V9.14458H5.47489L5.4594 9.4583H5.3558V9.26994H5.38303V9.26308H5.21901Z" fill="black"/>
<path d="M5.36116 9.83922C5.36116 9.60125 5.51928 9.53326 5.51928 9.53326C5.51928 9.53326 5.6887 9.60125 5.6887 9.83922H5.36116Z" fill="#FCFF2C"/>
<path fill-rule="evenodd" clip-rule="evenodd" d="M5.52051 9.60324C5.51054 9.61082 5.49847 9.62152 5.48627 9.63595C5.46209 9.66455 5.43567 9.70975 5.42564 9.77891H5.62387C5.61318 9.71086 5.58526 9.66615 5.5593 9.6375C5.54546 9.62223 5.53171 9.61104 5.52051 9.60324ZM5.68481 9.77891C5.65952 9.58954 5.51928 9.53326 5.51928 9.53326C5.51928 9.53326 5.3884 9.58954 5.36479 9.77891C5.36245 9.79768 5.36116 9.81775 5.36116 9.83922H5.6887C5.6887 9.81775 5.68732 9.79768 5.68481 9.77891Z" fill="black"/>
<path d="M5.43208 9.77053C5.43208 9.63932 5.51927 9.60184 5.51927 9.60184C5.51927 9.60184 5.61268 9.63932 5.61268 9.77053H5.43208Z" fill="#FCFF2C"/>
<path fill-rule="evenodd" clip-rule="evenodd" d="M5.52084 9.67699C5.51457 9.68461 5.50758 9.69535 5.50209 9.71022H5.54168C5.53571 9.69558 5.52812 9.68502 5.52128 9.67748C5.52113 9.67731 5.52098 9.67715 5.52084 9.67699ZM5.60517 9.71022C5.58298 9.62741 5.51927 9.60184 5.51927 9.60184C5.51927 9.60184 5.4598 9.62741 5.43909 9.71022C5.43473 9.72768 5.43208 9.74769 5.43208 9.77053H5.61268C5.61268 9.74769 5.60984 9.72768 5.60517 9.71022Z" fill="black"/>
<path d="M5.26737 9.34177C5.26737 9.29361 5.29937 9.27985 5.29937 9.27985C5.29937 9.27985 5.33366 9.29361 5.33366 9.34177V9.39378H5.26737V9.34177Z" fill="black"/>
<path d="M5.7209 9.34177C5.7209 9.29361 5.75291 9.27985 5.75291 9.27985C5.75291 9.27985 5.7872 9.29361 5.7872 9.34177V9.39378H5.7209V9.34177Z" fill="black"/>
<path fill-rule="evenodd" clip-rule="evenodd" d="M5.8397 9.45853H5.21018V9.39822H5.8397V9.45853Z" fill="black"/>
<path fill-rule="evenodd" clip-rule="evenodd" d="M5.84015 9.55167L5.19531 9.55167L5.19531 9.49136L5.84015 9.49136L5.84015 9.55167Z" fill="black"/>
<path fill-rule="evenodd" clip-rule="evenodd" d="M5.87201 9.50306L5.16385 9.50306L5.16385 9.44275L5.87201 9.44275L5.87201 9.50306Z" fill="black"/>
<path fill-rule="evenodd" clip-rule="evenodd" d="M5.88009 9.79527L5.16385 9.79527L5.16385 9.73495L5.88009 9.73495L5.88009 9.79527Z" fill="black"/>
<path d="M5.49271 9.27064C5.49271 9.22247 5.52471 9.20871 5.52471 9.20871C5.52471 9.20871 5.559 9.22247 5.559 9.27064V9.32264H5.49271V9.27064Z" fill="black"/>
<path d="M5.45418 11.3952H5.40659V11.4825C5.40659 11.4892 5.42019 11.5027 5.43378 11.5027H5.44341L5.4309 11.7561H5.38616V11.628H5.39299C5.39979 11.628 5.41339 11.6213 5.41339 11.6079V11.5206H5.359V11.5609H5.32502V11.5206H5.27063V11.5609H5.23664V11.5206H5.18906V11.6079C5.18906 11.6146 5.19586 11.628 5.20945 11.628H5.21621V11.7561H5.19298C5.17261 11.7561 5.16583 11.7793 5.16583 11.8026C5.16583 11.8258 5.1794 11.8491 5.19298 11.8491H5.19462L5.16995 12.0928H5.16188C5.14828 12.0928 5.13469 12.1063 5.13469 12.1264C5.13469 12.1466 5.14828 12.16 5.16188 12.16H5.88245C5.89605 12.16 5.90965 12.1466 5.90965 12.1264C5.90965 12.1063 5.89605 12.0928 5.88245 12.0928H5.87406L5.84322 11.8491H5.85137C5.86495 11.8491 5.87852 11.8258 5.87852 11.8026C5.87852 11.7793 5.86495 11.7561 5.85137 11.7561H5.83487V11.628H5.8417C5.8485 11.628 5.8621 11.6213 5.8621 11.6079V11.5206H5.80771V11.5609H5.77373V11.5206H5.71934V11.5609H5.68535V11.5206H5.63777V11.6079C5.63777 11.6146 5.64457 11.628 5.65816 11.628H5.66492V11.7561H5.61349L5.60098 11.5027H5.62413C5.63092 11.5027 5.64452 11.496 5.64452 11.4825V11.3952H5.59014V11.4355H5.54935V11.3952H5.49497V11.4355H5.45418V11.3952Z" fill="#FCFF2C"/>
<path fill-rule="evenodd" clip-rule="evenodd" d="M5.37623 11.3651H5.67447V11.4826C5.67447 11.4853 5.67425 11.4879 5.67385 11.4904H5.89205V11.6079C5.89205 11.626 5.88257 11.6391 5.87294 11.6467C5.87045 11.6487 5.86771 11.6505 5.86482 11.652V11.7281C5.88056 11.7333 5.89077 11.7467 5.89587 11.7554C5.90362 11.7687 5.90847 11.7856 5.90847 11.8026C5.90847 11.8196 5.90362 11.8365 5.89587 11.8498C5.89213 11.8562 5.88563 11.8651 5.87623 11.8714L5.90085 12.066C5.92454 12.0749 5.9396 12.1002 5.9396 12.1264C5.9396 12.1591 5.91638 12.1902 5.88225 12.1902H5.16167C5.12754 12.1902 5.10432 12.1591 5.10432 12.1264C5.10432 12.1005 5.11897 12.0756 5.14211 12.0664L5.16227 11.8672C5.15575 11.8615 5.15104 11.8549 5.14806 11.8498C5.14032 11.8365 5.13546 11.8196 5.13546 11.8026C5.13546 11.7888 5.13735 11.772 5.14444 11.7574C5.15147 11.743 5.16499 11.729 5.18585 11.7264V11.6523C5.17948 11.6488 5.17435 11.6442 5.17051 11.6395C5.16354 11.6309 5.1587 11.6193 5.1587 11.6079V11.4904H5.37711C5.37656 11.488 5.37623 11.4854 5.37623 11.4826V11.3651ZM5.21901 11.5911V11.5979H5.24616V11.7863H5.19775C5.19739 11.7874 5.19702 11.7889 5.1967 11.7907C5.1961 11.7942 5.19577 11.7982 5.19577 11.8026C5.19577 11.8086 5.19758 11.8148 5.1999 11.8189H5.22777L5.197 12.123H5.16515C5.16489 12.1237 5.16463 12.1249 5.16463 12.1264C5.16463 12.128 5.16489 12.1291 5.16515 12.1299H5.87877C5.87903 12.1291 5.87928 12.128 5.87928 12.1264C5.87928 12.1249 5.87903 12.1237 5.87877 12.123H5.84727L5.8088 11.8189H5.84403C5.84635 11.8148 5.84816 11.8086 5.84816 11.8026C5.84816 11.7966 5.84635 11.7904 5.84403 11.7863H5.80451V11.5979H5.83174V11.5911H5.66772V11.5979H5.69487V11.7863H5.58458L5.56909 11.4726H5.61416V11.4657H5.43654V11.4726H5.47489L5.4594 11.7863H5.3558V11.5979H5.38303V11.5911H5.21901Z" fill="black"/>
<path d="M5.36116 12.1672C5.36116 11.9292 5.51928 11.8612 5.51928 11.8612C5.51928 11.8612 5.6887 11.9292 5.6887 12.1672H5.36116Z" fill="#FCFF2C"/>
<path fill-rule="evenodd" clip-rule="evenodd" d="M5.52051 11.9312C5.51054 11.9388 5.49847 11.9495 5.48627 11.9639C5.46209 11.9925 5.43567 12.0377 5.42564 12.1069H5.62387C5.61318 12.0388 5.58526 11.9941 5.5593 11.9655C5.54546 11.9502 5.53171 11.939 5.52051 11.9312ZM5.68481 12.1069C5.65952 11.9175 5.51928 11.8612 5.51928 11.8612C5.51928 11.8612 5.3884 11.9175 5.36479 12.1069C5.36245 12.1256 5.36116 12.1457 5.36116 12.1672H5.6887C5.6887 12.1457 5.68732 12.1256 5.68481 12.1069Z" fill="black"/>
<path d="M5.43208 12.0985C5.43208 11.9673 5.51927 11.9298 5.51927 11.9298C5.51927 11.9298 5.61268 11.9673 5.61268 12.0985H5.43208Z" fill="#FCFF2C"/>
<path fill-rule="evenodd" clip-rule="evenodd" d="M5.52084 12.0049C5.51457 12.0126 5.50758 12.0233 5.50209 12.0382H5.54168C5.53571 12.0235 5.52812 12.013 5.52128 12.0054C5.52113 12.0053 5.52098 12.0051 5.52084 12.0049ZM5.60517 12.0382C5.58298 11.9553 5.51927 11.9298 5.51927 11.9298C5.51927 11.9298 5.4598 11.9553 5.43909 12.0382C5.43473 12.0556 5.43208 12.0756 5.43208 12.0985H5.61268C5.61268 12.0756 5.60984 12.0556 5.60517 12.0382Z" fill="black"/>
<path d="M5.26737 11.6697C5.26737 11.6215 5.29937 11.6078 5.29937 11.6078C5.29937 11.6078 5.33366 11.6215 5.33366 11.6697V11.7217H5.26737V11.6697Z" fill="black"/>
<path d="M5.7209 11.6697C5.7209 11.6215 5.75291 11.6078 5.75291 11.6078C5.75291 11.6078 5.7872 11.6215 5.7872 11.6697V11.7217H5.7209V11.6697Z" fill="black"/>
<path fill-rule="evenodd" clip-rule="evenodd" d="M5.8397 11.7865H5.21018V11.7262H5.8397V11.7865Z" fill="black"/>
<path fill-rule="evenodd" clip-rule="evenodd" d="M5.84015 11.8796L5.19531 11.8796L5.19531 11.8193L5.84015 11.8193L5.84015 11.8796Z" fill="black"/>
<path fill-rule="evenodd" clip-rule="evenodd" d="M5.87201 11.8311L5.16385 11.8311L5.16385 11.7708L5.87201 11.7708L5.87201 11.8311Z" fill="black"/>
<path fill-rule="evenodd" clip-rule="evenodd" d="M5.88009 12.1232L5.16385 12.1232L5.16385 12.0629L5.88009 12.0629L5.88009 12.1232Z" fill="black"/>
<path d="M5.49271 11.5987C5.49271 11.5505 5.52471 11.5367 5.52471 11.5367C5.52471 11.5367 5.559 11.5505 5.559 11.5987V11.6507H5.49271V11.5987Z" fill="black"/>
<path d="M10.0249 9.06723H9.97734V9.15455C9.97734 9.16127 9.99094 9.1747 10.0045 9.1747H10.0142L10.0017 9.42811H9.95691V9.30006H9.96375C9.97054 9.30006 9.98414 9.29334 9.98414 9.27991V9.19259H9.92976V9.23289H9.89577V9.19259H9.84138V9.23289H9.80739V9.19259H9.75981V9.27991C9.75981 9.28663 9.76661 9.30006 9.7802 9.30006H9.78697V9.42811H9.76373C9.74336 9.42811 9.73658 9.45135 9.73658 9.4746C9.73658 9.49784 9.75015 9.52109 9.76373 9.52109H9.76537L9.7407 9.76485H9.73263C9.71903 9.76485 9.70544 9.77829 9.70544 9.79844C9.70544 9.81859 9.71903 9.83202 9.73263 9.83202H10.4532C10.4668 9.83202 10.4804 9.81859 10.4804 9.79844C10.4804 9.77829 10.4668 9.76485 10.4532 9.76485H10.4448L10.414 9.52109H10.4221C10.4357 9.52109 10.4493 9.49784 10.4493 9.4746C10.4493 9.45135 10.4357 9.42811 10.4221 9.42811H10.4056V9.30006H10.4125C10.4193 9.30006 10.4328 9.29334 10.4328 9.27991V9.19259H10.3785V9.23289H10.3445V9.19259H10.2901V9.23289H10.2561V9.19259H10.2085V9.27991C10.2085 9.28663 10.2153 9.30006 10.2289 9.30006H10.2357V9.42811H10.1842L10.1717 9.1747H10.1949C10.2017 9.1747 10.2153 9.16799 10.2153 9.15455V9.06723H10.1609V9.10753H10.1201V9.06723H10.0657V9.10753H10.0249V9.06723Z" fill="#FCFF2C"/>
<path fill-rule="evenodd" clip-rule="evenodd" d="M9.94701 9.03711H10.2452V9.15459C10.2452 9.15733 10.245 9.15996 10.2446 9.16247H10.4628V9.27994C10.4628 9.29802 10.4533 9.31111 10.4437 9.31871C10.4412 9.32069 10.4385 9.32248 10.4356 9.32403V9.40017C10.4513 9.40537 10.4615 9.41872 10.4666 9.42746C10.4744 9.44073 10.4792 9.45759 10.4792 9.47463C10.4792 9.49167 10.4744 9.50853 10.4666 9.5218C10.4629 9.52821 10.4564 9.5371 10.447 9.54344L10.4716 9.73805C10.4953 9.7469 10.5104 9.77219 10.5104 9.79847C10.5104 9.83111 10.4872 9.86221 10.453 9.86221H9.73245C9.69832 9.86221 9.6751 9.83111 9.6751 9.79847C9.6751 9.77254 9.68975 9.74759 9.71289 9.73842L9.73305 9.53925C9.72652 9.53355 9.72182 9.52689 9.71884 9.5218C9.71109 9.50853 9.70624 9.49167 9.70624 9.47463C9.70624 9.46088 9.70813 9.44404 9.71522 9.42947C9.72225 9.41504 9.73577 9.40098 9.75663 9.39841V9.32435C9.75026 9.32088 9.74512 9.31625 9.74129 9.31151C9.73432 9.3029 9.72947 9.29134 9.72947 9.27994V9.16247H9.94788C9.94734 9.16003 9.94701 9.15739 9.94701 9.15459V9.03711ZM9.78978 9.26308V9.26994H9.81694V9.4583H9.76853C9.76817 9.45946 9.7678 9.46094 9.76748 9.46277C9.76688 9.46619 9.76655 9.47022 9.76655 9.47463C9.76655 9.48063 9.76836 9.4868 9.77068 9.49097H9.79855L9.76778 9.79504H9.73593C9.73566 9.79578 9.73541 9.79689 9.73541 9.79847C9.73541 9.80006 9.73566 9.80117 9.73593 9.8019H10.4495C10.4498 9.80117 10.4501 9.80006 10.4501 9.79847C10.4501 9.79689 10.4498 9.79578 10.4495 9.79504H10.418L10.3796 9.49097H10.4148C10.4171 9.4868 10.4189 9.48063 10.4189 9.47463C10.4189 9.46863 10.4171 9.46247 10.4148 9.4583H10.3753V9.26994H10.4025V9.26308H10.2385V9.26994H10.2657V9.4583H10.1554L10.1399 9.14458H10.1849V9.13772H10.0073V9.14458H10.0457L10.0302 9.4583H9.92658V9.26994H9.9538V9.26308H9.78978Z" fill="black"/>
<path d="M9.9325 9.83922C9.9325 9.60125 10.0906 9.53326 10.0906 9.53326C10.0906 9.53326 10.26 9.60125 10.26 9.83922H9.9325Z" fill="#FCFF2C"/>
<path fill-rule="evenodd" clip-rule="evenodd" d="M10.0918 9.60324C10.0819 9.61082 10.0698 9.62152 10.0576 9.63595C10.0334 9.66455 10.007 9.70975 9.99697 9.77891H10.1952C10.1845 9.71086 10.1566 9.66615 10.1306 9.6375C10.1168 9.62223 10.103 9.61104 10.0918 9.60324ZM10.2561 9.77891C10.2308 9.58954 10.0906 9.53326 10.0906 9.53326C10.0906 9.53326 9.95973 9.58954 9.93612 9.77891C9.93378 9.79768 9.9325 9.81775 9.9325 9.83922H10.26C10.26 9.81775 10.2587 9.79768 10.2561 9.77891Z" fill="black"/>
<path d="M10.0023 9.77053C10.0023 9.63932 10.0894 9.60184 10.0894 9.60184C10.0894 9.60184 10.1829 9.63932 10.1829 9.77053H10.0023Z" fill="#FCFF2C"/>
<path fill-rule="evenodd" clip-rule="evenodd" d="M10.091 9.67699C10.0847 9.68461 10.0778 9.69535 10.0723 9.71022H10.1119C10.1059 9.69558 10.0983 9.68502 10.0915 9.67748C10.0913 9.67731 10.0912 9.67715 10.091 9.67699ZM10.1753 9.71022C10.1532 9.62741 10.0894 9.60184 10.0894 9.60184C10.0894 9.60184 10.03 9.62741 10.0093 9.71022C10.0049 9.72768 10.0023 9.74769 10.0023 9.77053H10.1829C10.1829 9.74769 10.18 9.72768 10.1753 9.71022Z" fill="black"/>
<path d="M9.8387 9.34177C9.8387 9.29361 9.8707 9.27985 9.8707 9.27985C9.8707 9.27985 9.905 9.29361 9.905 9.34177V9.39378H9.8387V9.34177Z" fill="black"/>
<path d="M10.2917 9.34177C10.2917 9.29361 10.3237 9.27985 10.3237 9.27985C10.3237 9.27985 10.358 9.29361 10.358 9.34177V9.39378H10.2917V9.34177Z" fill="black"/>
<path fill-rule="evenodd" clip-rule="evenodd" d="M10.4099 9.45853H9.78036V9.39822H10.4099V9.45853Z" fill="black"/>
<path fill-rule="evenodd" clip-rule="evenodd" d="M10.4098 9.55167L9.76492 9.55167L9.76492 9.49136L10.4098 9.49136L10.4098 9.55167Z" fill="black"/>
<path fill-rule="evenodd" clip-rule="evenodd" d="M10.4433 9.50306L9.73518 9.50306L9.73518 9.44275L10.4433 9.44275L10.4433 9.50306Z" fill="black"/>
<path fill-rule="evenodd" clip-rule="evenodd" d="M10.4514 9.79527L9.73518 9.79527L9.73518 9.73495L10.4514 9.73495L10.4514 9.79527Z" fill="black"/>
<path d="M10.0629 9.27064C10.0629 9.22247 10.0949 9.20871 10.0949 9.20871C10.0949 9.20871 10.1292 9.22247 10.1292 9.27064V9.32264H10.0629V9.27064Z" fill="black"/>
<path d="M10.0249 11.3952H9.97734V11.4825C9.97734 11.4892 9.99094 11.5027 10.0045 11.5027H10.0142L10.0017 11.7561H9.95691V11.628H9.96375C9.97054 11.628 9.98414 11.6213 9.98414 11.6079V11.5206H9.92976V11.5609H9.89577V11.5206H9.84138V11.5609H9.80739V11.5206H9.75981V11.6079C9.75981 11.6146 9.76661 11.628 9.7802 11.628H9.78697V11.7561H9.76373C9.74336 11.7561 9.73658 11.7793 9.73658 11.8026C9.73658 11.8258 9.75015 11.8491 9.76373 11.8491H9.76537L9.7407 12.0928H9.73263C9.71903 12.0928 9.70544 12.1063 9.70544 12.1264C9.70544 12.1466 9.71903 12.16 9.73263 12.16H10.4532C10.4668 12.16 10.4804 12.1466 10.4804 12.1264C10.4804 12.1063 10.4668 12.0928 10.4532 12.0928H10.4448L10.414 11.8491H10.4221C10.4357 11.8491 10.4493 11.8258 10.4493 11.8026C10.4493 11.7793 10.4357 11.7561 10.4221 11.7561H10.4056V11.628H10.4125C10.4193 11.628 10.4328 11.6213 10.4328 11.6079V11.5206H10.3785V11.5609H10.3445V11.5206H10.2901V11.5609H10.2561V11.5206H10.2085V11.6079C10.2085 11.6146 10.2153 11.628 10.2289 11.628H10.2357V11.7561H10.1842L10.1717 11.5027H10.1949C10.2017 11.5027 10.2153 11.496 10.2153 11.4825V11.3952H10.1609V11.4355H10.1201V11.3952H10.0657V11.4355H10.0249V11.3952Z" fill="#FCFF2C"/>
<path fill-rule="evenodd" clip-rule="evenodd" d="M9.94701 11.3651H10.2452V11.4826C10.2452 11.4853 10.245 11.4879 10.2446 11.4904H10.4628V11.6079C10.4628 11.626 10.4533 11.6391 10.4437 11.6467C10.4412 11.6487 10.4385 11.6505 10.4356 11.652V11.7281C10.4513 11.7333 10.4615 11.7467 10.4666 11.7554C10.4744 11.7687 10.4792 11.7856 10.4792 11.8026C10.4792 11.8196 10.4744 11.8365 10.4666 11.8498C10.4629 11.8562 10.4564 11.8651 10.447 11.8714L10.4716 12.066C10.4953 12.0749 10.5104 12.1002 10.5104 12.1264C10.5104 12.1591 10.4872 12.1902 10.453 12.1902H9.73245C9.69832 12.1902 9.6751 12.1591 9.6751 12.1264C9.6751 12.1005 9.68975 12.0756 9.71289 12.0664L9.73305 11.8672C9.72652 11.8615 9.72182 11.8549 9.71884 11.8498C9.71109 11.8365 9.70624 11.8196 9.70624 11.8026C9.70624 11.7888 9.70813 11.772 9.71522 11.7574C9.72225 11.743 9.73577 11.729 9.75663 11.7264V11.6523C9.75026 11.6488 9.74512 11.6442 9.74129 11.6395C9.73432 11.6309 9.72947 11.6193 9.72947 11.6079V11.4904H9.94788C9.94734 11.488 9.94701 11.4854 9.94701 11.4826V11.3651ZM9.78978 11.5911V11.5979H9.81694V11.7863H9.76853C9.76817 11.7874 9.7678 11.7889 9.76748 11.7907C9.76688 11.7942 9.76655 11.7982 9.76655 11.8026C9.76655 11.8086 9.76836 11.8148 9.77068 11.8189H9.79855L9.76778 12.123H9.73593C9.73566 12.1237 9.73541 12.1249 9.73541 12.1264C9.73541 12.128 9.73566 12.1291 9.73593 12.1299H10.4495C10.4498 12.1291 10.4501 12.128 10.4501 12.1264C10.4501 12.1249 10.4498 12.1237 10.4495 12.123H10.418L10.3796 11.8189H10.4148C10.4171 11.8148 10.4189 11.8086 10.4189 11.8026C10.4189 11.7966 10.4171 11.7904 10.4148 11.7863H10.3753V11.5979H10.4025V11.5911H10.2385V11.5979H10.2657V11.7863H10.1554L10.1399 11.4726H10.1849V11.4657H10.0073V11.4726H10.0457L10.0302 11.7863H9.92658V11.5979H9.9538V11.5911H9.78978Z" fill="black"/>
<path d="M9.9325 12.1672C9.9325 11.9292 10.0906 11.8612 10.0906 11.8612C10.0906 11.8612 10.26 11.9292 10.26 12.1672H9.9325Z" fill="#FCFF2C"/>
<path fill-rule="evenodd" clip-rule="evenodd" d="M10.0918 11.9312C10.0819 11.9388 10.0698 11.9495 10.0576 11.9639C10.0334 11.9925 10.007 12.0377 9.99697 12.1069H10.1952C10.1845 12.0388 10.1566 11.9941 10.1306 11.9655C10.1168 11.9502 10.103 11.939 10.0918 11.9312ZM10.2561 12.1069C10.2308 11.9175 10.0906 11.8612 10.0906 11.8612C10.0906 11.8612 9.95973 11.9175 9.93612 12.1069C9.93378 12.1256 9.9325 12.1457 9.9325 12.1672H10.26C10.26 12.1457 10.2587 12.1256 10.2561 12.1069Z" fill="black"/>
<path d="M10.0023 12.0985C10.0023 11.9673 10.0894 11.9298 10.0894 11.9298C10.0894 11.9298 10.1829 11.9673 10.1829 12.0985H10.0023Z" fill="#FCFF2C"/>
<path fill-rule="evenodd" clip-rule="evenodd" d="M10.091 12.0049C10.0847 12.0126 10.0778 12.0233 10.0723 12.0382H10.1119C10.1059 12.0235 10.0983 12.013 10.0915 12.0054C10.0913 12.0053 10.0912 12.0051 10.091 12.0049ZM10.1753 12.0382C10.1532 11.9553 10.0894 11.9298 10.0894 11.9298C10.0894 11.9298 10.03 11.9553 10.0093 12.0382C10.0049 12.0556 10.0023 12.0756 10.0023 12.0985H10.1829C10.1829 12.0756 10.18 12.0556 10.1753 12.0382Z" fill="black"/>
<path d="M9.8387 11.6697C9.8387 11.6215 9.8707 11.6078 9.8707 11.6078C9.8707 11.6078 9.905 11.6215 9.905 11.6697V11.7217H9.8387V11.6697Z" fill="black"/>
<path d="M10.2917 11.6697C10.2917 11.6215 10.3237 11.6078 10.3237 11.6078C10.3237 11.6078 10.358 11.6215 10.358 11.6697V11.7217H10.2917V11.6697Z" fill="black"/>
<path fill-rule="evenodd" clip-rule="evenodd" d="M10.4099 11.7865H9.78036V11.7262H10.4099V11.7865Z" fill="black"/>
<path fill-rule="evenodd" clip-rule="evenodd" d="M10.4098 11.8796L9.76492 11.8796L9.76492 11.8193L10.4098 11.8193L10.4098 11.8796Z" fill="black"/>
<path fill-rule="evenodd" clip-rule="evenodd" d="M10.4433 11.8311L9.73518 11.8311L9.73518 11.7708L10.4433 11.7708L10.4433 11.8311Z" fill="black"/>
<path fill-rule="evenodd" clip-rule="evenodd" d="M10.4514 12.1232L9.73518 12.1232L9.73518 12.0629L10.4514 12.0629L10.4514 12.1232Z" fill="black"/>
<path d="M10.0629 11.5987C10.0629 11.5505 10.0949 11.5367 10.0949 11.5367C10.0949 11.5367 10.1292 11.5505 10.1292 11.5987V11.6507H10.0629V11.5987Z" fill="black"/>
</g>
<defs>
<clipPath id="clip0">
<rect width="24" height="24" fill="white"/>
</clipPath>
</defs>
</svg>
