<svg width="24" height="24" viewBox="0 0 24 24" fill="none" xmlns="http://www.w3.org/2000/svg">
<mask id="mask0" mask-type="alpha" maskUnits="userSpaceOnUse" x="0" y="3" width="24" height="18">
<path d="M2.66667 3.33334H21.3333C22.0406 3.33334 22.7189 3.6143 23.219 4.11439C23.719 4.61449 24 5.29277 24 6.00001V18C24 18.7072 23.719 19.3855 23.219 19.8856C22.7189 20.3857 22.0406 20.6667 21.3333 20.6667H2.66667C1.95942 20.6667 1.28115 20.3857 0.781049 19.8856C0.280952 19.3855 0 18.7072 0 18V6.00001C0 5.29277 0.280952 4.61449 0.781049 4.11439C1.28115 3.6143 1.95942 3.33334 2.66667 3.33334Z" fill="#808A9B"/>
</mask>
<g mask="url(#mask0)">
<rect width="24" height="24" fill="#EEEEEE"/>
<path d="M16.4027 6.66687L15.8522 7.03414L16.8606 8.54857L17.4111 8.18131L16.4027 6.66687Z" fill="black"/>
<path d="M17.5959 8.45923L18.6061 9.97398L18.0537 10.3454L17.0435 8.83063L17.5959 8.45923Z" fill="black"/>
<path d="M17.2261 6.12001L16.6758 6.48755L18.8765 9.79617L19.4268 9.42863L17.2261 6.12001Z" fill="black"/>
<path d="M18.0537 5.56803L19.0639 7.08278L18.5116 7.4469L17.5014 5.93215L18.0537 5.56803Z" fill="black"/>
<path d="M19.2456 7.35953L20.2558 8.87428L19.7034 9.23841L18.6932 7.72365L19.2456 7.35953Z" fill="black"/>
<path d="M5.94774 13.6563L5.39743 14.0239L7.59855 17.3325L8.14886 16.9649L5.94774 13.6563Z" fill="black"/>
<path d="M5.12467 14.2052L6.1276 15.72L5.58253 16.0914L4.57233 14.5693L5.12467 14.2052Z" fill="black"/>
<path d="M6.31447 15.9943L5.76416 16.3619L6.77182 17.8768L7.32213 17.5093L6.31447 15.9943Z" fill="black"/>
<path d="M4.29638 14.7562L3.74588 15.1235L5.94864 18.4311L6.49914 18.0637L4.29638 14.7562Z" fill="black"/>
<path d="M5.39352 9.97389L7.59562 6.66765L8.14796 7.03905L5.94586 10.3453L5.39352 9.97389Z" fill="black"/>
<path d="M6.77033 6.11633L4.56921 9.42495L5.11953 9.79255L7.32065 6.48394L6.77033 6.11633Z" fill="black"/>
<path d="M3.74387 8.87424L5.94596 5.568L6.4983 5.93213L4.29621 9.23837L3.74387 8.87424Z" fill="black"/>
<path d="M16.8586 15.4471L15.8502 16.9616L16.4007 17.3288L17.4091 15.8144L16.8586 15.4471Z" fill="black"/>
<path d="M18.0522 13.6561L17.0444 15.171L17.5947 15.5386L18.6026 14.0237L18.0522 13.6561Z" fill="black"/>
<path d="M17.6869 15.9968L16.6793 17.5118L17.2296 17.8793L18.2372 16.3644L17.6869 15.9968Z" fill="black"/>
<path d="M17.8722 15.7198L18.8824 14.2051L19.4274 14.5692L18.4172 16.0912L17.8722 15.7198Z" fill="black"/>
<path d="M17.5014 18.0647L18.5116 16.55L19.064 16.9141L18.0538 18.4288L17.5014 18.0647Z" fill="black"/>
<path d="M19.7003 14.7582L18.6925 16.2731L19.2428 16.6407L20.2506 15.1258L19.7003 14.7582Z" fill="black"/>
<path d="M14.2019 8.69217C12.3777 7.47599 9.91402 7.9712 8.70033 9.7991C8.08984 10.7094 8.33694 11.9474 9.25267 12.5592C10.1684 13.1709 11.3966 12.9233 12.0071 12.0057C12.6176 11.0954 13.8458 10.8478 14.7615 11.4522C15.67 12.0639 15.9171 13.2947 15.3139 14.2123C16.5203 12.3771 16.0261 9.90834 14.2019 8.69217Z" fill="#C60C30"/>
<path d="M8.70045 9.79183C8.08997 10.7021 8.33707 11.9402 9.25279 12.5519C10.1685 13.1636 11.3967 12.916 12.0072 11.9984C12.6177 11.0881 13.8459 10.8405 14.7617 11.445C15.6701 12.0567 15.9172 13.2874 15.314 14.205C14.1003 16.0329 11.6366 16.5281 9.8124 15.3047C7.97369 14.0885 7.47949 11.6197 8.70045 9.79183Z" fill="#003478"/>
</g>
</svg>
