<svg width="24" height="24" viewBox="0 0 24 24" fill="none" xmlns="http://www.w3.org/2000/svg">
<mask id="mask0" mask-type="alpha" maskUnits="userSpaceOnUse" x="0" y="3" width="24" height="17">
<rect y="3" width="24" height="17" rx="2.8" fill="#C4C4C4"/>
</mask>
<g mask="url(#mask0)">
<rect width="24" height="26.1818" fill="#EA1B23"/>
</g>
<path d="M14.4036 8.29279C13.6002 7.61114 12.5601 7.19997 11.424 7.19997C8.87905 7.19997 6.81598 9.26304 6.81598 11.808C6.81598 14.3529 8.87905 16.416 11.424 16.416C12.5601 16.416 13.6002 16.0048 14.4036 15.3232C13.3205 16.8006 11.5723 17.76 9.59998 17.76C6.31278 17.76 3.64798 15.0952 3.64798 11.808C3.64798 8.52077 6.31278 5.85597 9.59998 5.85597C11.5723 5.85597 13.3205 6.8153 14.4036 8.29279Z" fill="white"/>
<path d="M16.9207 9.29558L18.1455 10.9666L20.1637 10.3184L18.9024 11.9994L20.1272 13.6704L18.1229 13.0383L16.8616 14.7193L16.8842 12.6476L14.8799 12.0155L16.8981 11.3673L16.9207 9.29558Z" fill="white"/>
</svg>
