<svg width="24" height="24" viewBox="0 0 24 24" fill="none" xmlns="http://www.w3.org/2000/svg">
<path d="M22.2047 3.84H1.79531C0.80625 3.84 0 4.67667 0 5.70305V18.2921C0 19.3233 0.80625 20.1551 1.79531 20.1551H22.2C23.1938 20.1551 23.9953 19.3185 23.9953 18.2921V5.70305C24 4.67667 23.1938 3.84 22.2047 3.84Z" fill="#F5F5F5"/>
<path d="M0.0984192 5.09501H23.9015C23.6578 4.36535 22.9875 3.84 22.2047 3.84H1.79529C1.01248 3.84 0.342169 4.36535 0.0984192 5.09501Z" fill="#FF4B55"/>
<path d="M24 8.86005H0V10.1151H24V8.86005Z" fill="#FF4B55"/>
<path d="M24 6.35001H0V7.60502H24V6.35001Z" fill="#FF4B55"/>
<path d="M0 12.197C0 12.4353 0.1875 12.625 0.4125 12.625H24V11.37H0V12.197Z" fill="#FF4B55"/>
<path d="M24 16.3901H0V17.6451H24V16.3901Z" fill="#FF4B55"/>
<path d="M23.9015 18.9001H0.0984192C0.342169 19.6298 1.01248 20.1551 1.79529 20.1551H22.2C22.9875 20.1551 23.6578 19.6346 23.9015 18.9001Z" fill="#FF4B55"/>
<path d="M24 13.8801H0V15.1351H24V13.8801Z" fill="#FF4B55"/>
<path d="M0.4125 12.6251H10.7578C10.9875 12.6251 11.1703 12.4305 11.1703 12.197V4.26806C11.1703 4.02971 10.9828 3.84 10.7578 3.84H1.79531C0.80625 3.84 0 4.67667 0 5.70305V12.197C0 12.4354 0.1875 12.6251 0.4125 12.6251Z" fill="#41479B"/>
<path d="M1.16248 4.82747L1.25623 5.11446H1.54685C1.58435 5.11446 1.59842 5.16311 1.57029 5.18743L1.33592 5.36741L1.42498 5.65441C1.43435 5.69333 1.39685 5.72251 1.36404 5.69819L1.12967 5.52307L0.895292 5.69819C0.86248 5.72251 0.82498 5.68846 0.834355 5.65441L0.923417 5.36741L0.689042 5.18743C0.660917 5.16311 0.67498 5.11446 0.71248 5.11446H1.0031L1.09685 4.82747C1.10154 4.78855 1.14842 4.78855 1.16248 4.82747Z" fill="#F5F5F5"/>
<path d="M1.16248 6.31597L1.25623 6.60297H1.54685C1.58435 6.60297 1.59842 6.65162 1.57029 6.67594L1.33592 6.85592L1.42498 7.14292C1.43435 7.18183 1.39685 7.21102 1.36404 7.1867L1.12967 7.01158L0.895292 7.1867C0.86248 7.21102 0.82498 7.17697 0.834355 7.14292L0.923417 6.85592L0.689042 6.67594C0.660917 6.65162 0.67498 6.60297 0.71248 6.60297H1.0031L1.09685 6.31597C1.10154 6.28192 1.14842 6.28192 1.16248 6.31597Z" fill="#F5F5F5"/>
<path d="M1.16248 7.80934L1.25623 8.09634H1.54685C1.58435 8.09634 1.59842 8.14498 1.57029 8.1693L1.33592 8.34928L1.42498 8.63628C1.43435 8.6752 1.39685 8.70438 1.36404 8.68006L1.12967 8.50494L0.895292 8.68006C0.86248 8.70438 0.82498 8.67033 0.834355 8.63628L0.923417 8.34928L0.689042 8.1693C0.660917 8.14498 0.67498 8.09634 0.71248 8.09634H1.0031L1.09685 7.80934C1.10154 7.77042 1.14842 7.77042 1.16248 7.80934Z" fill="#F5F5F5"/>
<path d="M1.16248 9.29785L1.25623 9.58484H1.54685C1.58435 9.58484 1.59842 9.63349 1.57029 9.65781L1.33592 9.83779L1.42498 10.1248C1.43435 10.1637 1.39685 10.1929 1.36404 10.1686L1.12967 9.99345L0.895292 10.1686C0.86248 10.1929 0.82498 10.1588 0.834355 10.1248L0.923417 9.83779L0.689042 9.65781C0.660917 9.63349 0.67498 9.58484 0.71248 9.58484H1.0031L1.09685 9.29785C1.10154 9.2638 1.14842 9.2638 1.16248 9.29785Z" fill="#F5F5F5"/>
<path d="M1.16248 10.7912L1.25623 11.0782H1.54685C1.58435 11.0782 1.59842 11.1269 1.57029 11.1512L1.33592 11.3312L1.42498 11.6182C1.43435 11.6571 1.39685 11.6863 1.36404 11.6619L1.12967 11.4868L0.895292 11.6619C0.86248 11.6863 0.82498 11.6522 0.834355 11.6182L0.923417 11.3312L0.689042 11.1512C0.660917 11.1269 0.67498 11.0782 0.71248 11.0782H1.0031L1.09685 10.7912C1.10154 10.7523 1.14842 10.7523 1.16248 10.7912Z" fill="#F5F5F5"/>
<path d="M2.27808 5.55714L2.37183 5.84414H2.66246C2.69996 5.84414 2.71402 5.89278 2.68589 5.9171L2.45152 6.09709L2.54058 6.38408C2.54996 6.423 2.51246 6.45219 2.47964 6.42786L2.24527 6.25275L2.01089 6.42786C1.97808 6.45219 1.94058 6.41814 1.94996 6.38408L2.03902 6.09709L1.80464 5.9171C1.77652 5.89278 1.79058 5.84414 1.82808 5.84414H2.11871L2.21246 5.55714C2.21714 5.51823 2.26402 5.51823 2.27808 5.55714Z" fill="#F5F5F5"/>
<path d="M2.27808 7.04562L2.37183 7.33262H2.66246C2.69996 7.33262 2.71402 7.38126 2.68589 7.40558L2.45152 7.58556L2.54058 7.87256C2.54996 7.91148 2.51246 7.94066 2.47964 7.91634L2.24527 7.74122L2.01089 7.91634C1.97808 7.94066 1.94058 7.90661 1.94996 7.87256L2.03902 7.58556L1.80464 7.40558C1.77652 7.38126 1.79058 7.33262 1.82808 7.33262H2.11871L2.21246 7.04562C2.21714 7.01157 2.26402 7.01157 2.27808 7.04562Z" fill="#F5F5F5"/>
<path d="M2.27808 8.53898L2.37183 8.82598H2.66246C2.69996 8.82598 2.71402 8.87462 2.68589 8.89895L2.45152 9.07893L2.54058 9.36593C2.54996 9.40484 2.51246 9.43403 2.47964 9.40971L2.24527 9.23459L2.01089 9.40971C1.97808 9.43403 1.94058 9.39998 1.94996 9.36593L2.03902 9.07893L1.80464 8.89895C1.77652 8.87462 1.79058 8.82598 1.82808 8.82598H2.11871L2.21246 8.53898C2.21714 8.50007 2.26402 8.50007 2.27808 8.53898Z" fill="#F5F5F5"/>
<path d="M2.27808 10.0324L2.37183 10.3194H2.66246C2.69996 10.3194 2.71402 10.368 2.68589 10.3923L2.45152 10.5723L2.54058 10.8593C2.54996 10.8982 2.51246 10.9274 2.47964 10.9031L2.24527 10.728L2.01089 10.9031C1.97808 10.9274 1.94058 10.8934 1.94996 10.8593L2.03902 10.5723L1.80464 10.3923C1.77652 10.368 1.79058 10.3194 1.82808 10.3194H2.11871L2.21246 10.0324C2.21714 9.99345 2.26402 9.99345 2.27808 10.0324Z" fill="#F5F5F5"/>
<path d="M3.39371 4.82747L3.48746 5.11446H3.77809C3.81559 5.11446 3.82965 5.16311 3.80152 5.18743L3.56715 5.36741L3.65621 5.65441C3.66559 5.69333 3.62809 5.72251 3.59527 5.69819L3.3609 5.52307L3.12652 5.69819C3.09371 5.72251 3.05621 5.68846 3.06559 5.65441L3.15465 5.36741L2.92027 5.18743C2.89215 5.16311 2.90621 5.11446 2.94371 5.11446H3.23434L3.32809 4.82747C3.32809 4.78855 3.37965 4.78855 3.39371 4.82747Z" fill="#F5F5F5"/>
<path d="M3.39373 6.31597L3.48748 6.60297H3.77811C3.81561 6.60297 3.82967 6.65162 3.80154 6.67594L3.56248 6.85592L3.65154 7.14292C3.66092 7.18183 3.62342 7.21102 3.5906 7.1867L3.35623 7.01158L3.12185 7.1867C3.08904 7.21102 3.05154 7.17697 3.06092 7.14292L3.14998 6.85592L2.9156 6.67594C2.88748 6.65162 2.90154 6.60297 2.93904 6.60297H3.22967L3.32342 6.31597C3.32811 6.28192 3.37967 6.28192 3.39373 6.31597Z" fill="#F5F5F5"/>
<path d="M3.39371 7.80934L3.48746 8.09634H3.77809C3.81559 8.09634 3.82965 8.14498 3.80152 8.1693L3.56715 8.34928L3.65621 8.63628C3.66559 8.6752 3.62809 8.70438 3.59527 8.68006L3.3609 8.50494L3.12652 8.68006C3.09371 8.70438 3.05621 8.67033 3.06559 8.63628L3.15465 8.34928L2.92027 8.1693C2.89215 8.14498 2.90621 8.09634 2.94371 8.09634H3.23434L3.32809 7.80934C3.32809 7.77042 3.37965 7.77042 3.39371 7.80934Z" fill="#F5F5F5"/>
<path d="M3.39371 9.29785L3.48746 9.58484H3.77809C3.81559 9.58484 3.82965 9.63349 3.80152 9.65781L3.56715 9.83779L3.65621 10.1248C3.66559 10.1637 3.62809 10.1929 3.59527 10.1686L3.3609 9.99345L3.12652 10.1686C3.09371 10.1929 3.05621 10.1588 3.06559 10.1248L3.15465 9.83779L2.92027 9.65781C2.89215 9.63349 2.90621 9.58484 2.94371 9.58484H3.23434L3.32809 9.29785C3.32809 9.2638 3.37965 9.2638 3.39371 9.29785Z" fill="#F5F5F5"/>
<path d="M3.39371 10.7912L3.48746 11.0782H3.77809C3.81559 11.0782 3.82965 11.1269 3.80152 11.1512L3.56715 11.3312L3.65621 11.6182C3.66559 11.6571 3.62809 11.6863 3.59527 11.6619L3.3609 11.4868L3.12652 11.6619C3.09371 11.6863 3.05621 11.6522 3.06559 11.6182L3.15465 11.3312L2.92027 11.1512C2.89215 11.1269 2.90621 11.0782 2.94371 11.0782H3.23434L3.32809 10.7912C3.32809 10.7523 3.37965 10.7523 3.39371 10.7912Z" fill="#F5F5F5"/>
<path d="M4.50937 5.55714L4.60312 5.84414H4.89375C4.93125 5.84414 4.94531 5.89278 4.91719 5.9171L4.68281 6.09709L4.77187 6.38408C4.78125 6.423 4.74375 6.45219 4.71094 6.42786L4.47656 6.25275L4.24219 6.42786C4.20937 6.45219 4.17187 6.41814 4.18125 6.38408L4.27031 6.09709L4.03594 5.9171C4.00781 5.89278 4.02187 5.84414 4.05937 5.84414H4.35L4.44375 5.55714C4.44375 5.51823 4.49531 5.51823 4.50937 5.55714Z" fill="#F5F5F5"/>
<path d="M4.50937 7.04562L4.60312 7.33262H4.89375C4.93125 7.33262 4.94531 7.38126 4.91719 7.40558L4.68281 7.58556L4.77187 7.87256C4.78125 7.91148 4.74375 7.94066 4.71094 7.91634L4.47656 7.74122L4.24219 7.91634C4.20937 7.94066 4.17187 7.90661 4.18125 7.87256L4.27031 7.58556L4.03594 7.40558C4.00781 7.38126 4.02187 7.33262 4.05937 7.33262H4.35L4.44375 7.04562C4.44375 7.01157 4.49531 7.01157 4.50937 7.04562Z" fill="#F5F5F5"/>
<path d="M4.50937 8.53898L4.60312 8.82598H4.89375C4.93125 8.82598 4.94531 8.87462 4.91719 8.89895L4.68281 9.07893L4.77187 9.36593C4.78125 9.40484 4.74375 9.43403 4.71094 9.40971L4.47656 9.23459L4.24219 9.40971C4.20937 9.43403 4.17187 9.39998 4.18125 9.36593L4.27031 9.07893L4.03594 8.89895C4.00781 8.87462 4.02187 8.82598 4.05937 8.82598H4.35L4.44375 8.53898C4.44375 8.50007 4.49531 8.50007 4.50937 8.53898Z" fill="#F5F5F5"/>
<path d="M4.50937 10.0324L4.60312 10.3194H4.89375C4.93125 10.3194 4.94531 10.368 4.91719 10.3923L4.68281 10.5723L4.77187 10.8593C4.78125 10.8982 4.74375 10.9274 4.71094 10.9031L4.47656 10.728L4.24219 10.9031C4.20937 10.9274 4.17187 10.8934 4.18125 10.8593L4.27031 10.5723L4.03594 10.3923C4.00781 10.368 4.02187 10.3194 4.05937 10.3194H4.35L4.44375 10.0324C4.44375 9.99345 4.49531 9.99345 4.50937 10.0324Z" fill="#F5F5F5"/>
<path d="M5.625 4.82747L5.71875 5.11446H6.00938C6.04688 5.11446 6.06094 5.16311 6.03282 5.18743L5.79844 5.36741L5.8875 5.65441C5.89688 5.69333 5.85938 5.72251 5.82657 5.69819L5.59219 5.52307L5.35782 5.69819C5.325 5.72251 5.2875 5.68846 5.29688 5.65441L5.38594 5.36741L5.15157 5.18743C5.12344 5.16311 5.1375 5.11446 5.175 5.11446H5.46563L5.55938 4.82747C5.55938 4.78855 5.61094 4.78855 5.625 4.82747Z" fill="#F5F5F5"/>
<path d="M5.625 6.31597L5.71875 6.60297H6.00938C6.04688 6.60297 6.06094 6.65162 6.03282 6.67594L5.79844 6.85592L5.8875 7.14292C5.89688 7.18183 5.85938 7.21102 5.82657 7.1867L5.59219 7.01158L5.35782 7.1867C5.325 7.21102 5.2875 7.17697 5.29688 7.14292L5.38594 6.85592L5.15157 6.67594C5.12344 6.65162 5.1375 6.60297 5.175 6.60297H5.46563L5.55938 6.31597C5.55938 6.28192 5.61094 6.28192 5.625 6.31597Z" fill="#F5F5F5"/>
<path d="M5.625 7.80934L5.71875 8.09634H6.00938C6.04688 8.09634 6.06094 8.14498 6.03282 8.1693L5.79844 8.34928L5.8875 8.63628C5.89688 8.6752 5.85938 8.70438 5.82657 8.68006L5.59219 8.50494L5.35782 8.68006C5.325 8.70438 5.2875 8.67033 5.29688 8.63628L5.38594 8.34928L5.15157 8.1693C5.12344 8.14498 5.1375 8.09634 5.175 8.09634H5.46563L5.55938 7.80934C5.55938 7.77042 5.61094 7.77042 5.625 7.80934Z" fill="#F5F5F5"/>
<path d="M5.625 9.29785L5.71875 9.58484H6.00938C6.04688 9.58484 6.06094 9.63349 6.03282 9.65781L5.79844 9.83779L5.8875 10.1248C5.89688 10.1637 5.85938 10.1929 5.82657 10.1686L5.59219 9.99345L5.35782 10.1686C5.325 10.1929 5.2875 10.1588 5.29688 10.1248L5.38594 9.83779L5.15157 9.65781C5.12344 9.63349 5.1375 9.58484 5.175 9.58484H5.46563L5.55938 9.29785C5.55938 9.2638 5.61094 9.2638 5.625 9.29785Z" fill="#F5F5F5"/>
<path d="M5.625 10.7912L5.71875 11.0782H6.00938C6.04688 11.0782 6.06094 11.1269 6.03282 11.1512L5.79844 11.3312L5.8875 11.6182C5.89688 11.6571 5.85938 11.6863 5.82657 11.6619L5.59219 11.4868L5.35782 11.6619C5.325 11.6863 5.2875 11.6522 5.29688 11.6182L5.38594 11.3312L5.15157 11.1512C5.12344 11.1269 5.1375 11.0782 5.175 11.0782H5.46563L5.55938 10.7912C5.55938 10.7523 5.61094 10.7523 5.625 10.7912Z" fill="#F5F5F5"/>
<path d="M6.7406 5.55714L6.83435 5.84414H7.12498C7.16248 5.84414 7.17654 5.89278 7.14842 5.9171L6.91404 6.09709L7.0031 6.38408C7.01248 6.423 6.97498 6.45219 6.94217 6.42786L6.70779 6.25275L6.47342 6.42786C6.44061 6.45219 6.40311 6.41814 6.41248 6.38408L6.50154 6.09709L6.26717 5.9171C6.23904 5.89278 6.2531 5.84414 6.2906 5.84414H6.58123L6.67498 5.55714C6.67498 5.51823 6.72654 5.51823 6.7406 5.55714Z" fill="#F5F5F5"/>
<path d="M6.7406 7.04562L6.83435 7.33262H7.12498C7.16248 7.33262 7.17654 7.38126 7.14842 7.40558L6.91404 7.58556L7.0031 7.87256C7.01248 7.91148 6.97498 7.94066 6.94217 7.91634L6.70779 7.74122L6.47342 7.91634C6.44061 7.94066 6.40311 7.90661 6.41248 7.87256L6.50154 7.58556L6.26717 7.40558C6.23904 7.38126 6.2531 7.33262 6.2906 7.33262H6.58123L6.67498 7.04562C6.67498 7.01157 6.72654 7.01157 6.7406 7.04562Z" fill="#F5F5F5"/>
<path d="M6.7406 8.53898L6.83435 8.82598H7.12498C7.16248 8.82598 7.17654 8.87462 7.14842 8.89895L6.91404 9.07893L7.0031 9.36593C7.01248 9.40484 6.97498 9.43403 6.94217 9.40971L6.70779 9.23459L6.47342 9.40971C6.44061 9.43403 6.40311 9.39998 6.41248 9.36593L6.50154 9.07893L6.26717 8.89895C6.23904 8.87462 6.2531 8.82598 6.2906 8.82598H6.58123L6.67498 8.53898C6.67498 8.50007 6.72654 8.50007 6.7406 8.53898Z" fill="#F5F5F5"/>
<path d="M6.7406 10.0324L6.83435 10.3194H7.12498C7.16248 10.3194 7.17654 10.368 7.14842 10.3923L6.91404 10.5723L7.0031 10.8593C7.01248 10.8982 6.97498 10.9274 6.94217 10.9031L6.70779 10.728L6.47342 10.9031C6.44061 10.9274 6.40311 10.8934 6.41248 10.8593L6.50154 10.5723L6.26717 10.3923C6.23904 10.368 6.2531 10.3194 6.2906 10.3194H6.58123L6.67498 10.0324C6.67498 9.99345 6.72654 9.99345 6.7406 10.0324Z" fill="#F5F5F5"/>
<path d="M7.85154 4.82747L7.94529 5.11446H8.23591C8.27341 5.11446 8.28747 5.16311 8.25935 5.18743L8.02497 5.36741L8.11404 5.65441C8.12341 5.69333 8.08591 5.72251 8.0531 5.69819L7.81872 5.52307L7.58435 5.69819C7.55154 5.72251 7.51404 5.68846 7.52341 5.65441L7.61247 5.36741L7.3781 5.18743C7.34997 5.16311 7.36404 5.11446 7.40154 5.11446H7.69216L7.78591 4.82747C7.7906 4.78855 7.84216 4.78855 7.85154 4.82747Z" fill="#F5F5F5"/>
<path d="M7.85154 6.31597L7.94529 6.60297H8.23591C8.27341 6.60297 8.28747 6.65162 8.25935 6.67594L8.02497 6.85592L8.11404 7.14292C8.12341 7.18183 8.08591 7.21102 8.0531 7.1867L7.81872 7.01158L7.58435 7.1867C7.55154 7.21102 7.51404 7.17697 7.52341 7.14292L7.61247 6.85592L7.3781 6.67594C7.34997 6.65162 7.36404 6.60297 7.40154 6.60297H7.69216L7.78591 6.31597C7.7906 6.28192 7.84216 6.28192 7.85154 6.31597Z" fill="#F5F5F5"/>
<path d="M7.85154 7.80934L7.94529 8.09634H8.23591C8.27341 8.09634 8.28747 8.14498 8.25935 8.1693L8.02497 8.34928L8.11404 8.63628C8.12341 8.6752 8.08591 8.70438 8.0531 8.68006L7.81872 8.50494L7.58435 8.68006C7.55154 8.70438 7.51404 8.67033 7.52341 8.63628L7.61247 8.34928L7.3781 8.1693C7.34997 8.14498 7.36404 8.09634 7.40154 8.09634H7.69216L7.78591 7.80934C7.7906 7.77042 7.84216 7.77042 7.85154 7.80934Z" fill="#F5F5F5"/>
<path d="M7.85154 9.29785L7.94529 9.58484H8.23591C8.27341 9.58484 8.28747 9.63349 8.25935 9.65781L8.02497 9.83779L8.11404 10.1248C8.12341 10.1637 8.08591 10.1929 8.0531 10.1686L7.81872 9.99345L7.58435 10.1686C7.55154 10.1929 7.51404 10.1588 7.52341 10.1248L7.61247 9.83779L7.3781 9.65781C7.34997 9.63349 7.36404 9.58484 7.40154 9.58484H7.69216L7.78591 9.29785C7.7906 9.2638 7.84216 9.2638 7.85154 9.29785Z" fill="#F5F5F5"/>
<path d="M7.85154 10.7912L7.94529 11.0782H8.23591C8.27341 11.0782 8.28747 11.1269 8.25935 11.1512L8.02497 11.3312L8.11404 11.6182C8.12341 11.6571 8.08591 11.6863 8.0531 11.6619L7.81872 11.4868L7.58435 11.6619C7.55154 11.6863 7.51404 11.6522 7.52341 11.6182L7.61247 11.3312L7.3781 11.1512C7.34997 11.1269 7.36404 11.0782 7.40154 11.0782H7.69216L7.78591 10.7912C7.7906 10.7523 7.84216 10.7523 7.85154 10.7912Z" fill="#F5F5F5"/>
<path d="M8.96717 5.55714L9.06092 5.84414H9.35154C9.38904 5.84414 9.4031 5.89278 9.37498 5.9171L9.1406 6.09709L9.22967 6.38408C9.23904 6.423 9.20154 6.45219 9.16873 6.42786L8.93435 6.25275L8.69998 6.42786C8.66717 6.45219 8.62967 6.41814 8.63904 6.38408L8.7281 6.09709L8.49373 5.9171C8.4656 5.89278 8.47967 5.84414 8.51717 5.84414H8.80779L8.90154 5.55714C8.90623 5.51823 8.95779 5.51823 8.96717 5.55714Z" fill="#F5F5F5"/>
<path d="M8.96717 7.04562L9.06092 7.33262H9.35154C9.38904 7.33262 9.4031 7.38126 9.37498 7.40558L9.1406 7.58556L9.22967 7.87256C9.23904 7.91148 9.20154 7.94066 9.16873 7.91634L8.93435 7.74122L8.69998 7.91634C8.66717 7.94066 8.62967 7.90661 8.63904 7.87256L8.7281 7.58556L8.49373 7.40558C8.4656 7.38126 8.47967 7.33262 8.51717 7.33262H8.80779L8.90154 7.04562C8.90623 7.01157 8.95779 7.01157 8.96717 7.04562Z" fill="#F5F5F5"/>
<path d="M8.96717 8.53898L9.06092 8.82598H9.35154C9.38904 8.82598 9.4031 8.87462 9.37498 8.89895L9.1406 9.07893L9.22967 9.36593C9.23904 9.40484 9.20154 9.43403 9.16873 9.40971L8.93435 9.23459L8.69998 9.40971C8.66717 9.43403 8.62967 9.39998 8.63904 9.36593L8.7281 9.07893L8.49373 8.89895C8.4656 8.87462 8.47967 8.82598 8.51717 8.82598H8.80779L8.90154 8.53898C8.90623 8.50007 8.95779 8.50007 8.96717 8.53898Z" fill="#F5F5F5"/>
<path d="M8.96717 10.0324L9.06092 10.3194H9.35154C9.38904 10.3194 9.4031 10.368 9.37498 10.3923L9.1406 10.5723L9.22967 10.8593C9.23904 10.8982 9.20154 10.9274 9.16873 10.9031L8.93435 10.728L8.69998 10.9031C8.66717 10.9274 8.62967 10.8934 8.63904 10.8593L8.7281 10.5723L8.49373 10.3923C8.4656 10.368 8.47967 10.3194 8.51717 10.3194H8.80779L8.90154 10.0324C8.90623 9.99345 8.95779 9.99345 8.96717 10.0324Z" fill="#F5F5F5"/>
<path d="M10.0828 4.82747L10.1765 5.11446H10.4672C10.5047 5.11446 10.5187 5.16311 10.4906 5.18743L10.2562 5.36741L10.3453 5.65441C10.3547 5.69333 10.3172 5.72251 10.2844 5.69819L10.05 5.52307L9.81561 5.69819C9.7828 5.72251 9.7453 5.68846 9.75467 5.65441L9.84374 5.36741L9.60936 5.18743C9.58124 5.16311 9.5953 5.11446 9.6328 5.11446H9.92342L10.0172 4.82747C10.0219 4.78855 10.0734 4.78855 10.0828 4.82747Z" fill="#F5F5F5"/>
<path d="M10.0828 6.31597L10.1765 6.60297H10.4672C10.5047 6.60297 10.5187 6.65162 10.4906 6.67594L10.2562 6.85592L10.3453 7.14292C10.3547 7.18183 10.3172 7.21102 10.2844 7.1867L10.05 7.01158L9.81561 7.1867C9.7828 7.21102 9.7453 7.17697 9.75467 7.14292L9.84374 6.85592L9.60936 6.67594C9.58124 6.65162 9.5953 6.60297 9.6328 6.60297H9.92342L10.0172 6.31597C10.0219 6.28192 10.0734 6.28192 10.0828 6.31597Z" fill="#F5F5F5"/>
<path d="M10.0828 7.80934L10.1765 8.09634H10.4672C10.5047 8.09634 10.5187 8.14498 10.4906 8.1693L10.2562 8.34928L10.3453 8.63628C10.3547 8.6752 10.3172 8.70438 10.2844 8.68006L10.05 8.50494L9.81561 8.68006C9.7828 8.70438 9.7453 8.67033 9.75467 8.63628L9.84374 8.34928L9.60936 8.1693C9.58124 8.14498 9.5953 8.09634 9.6328 8.09634H9.92342L10.0172 7.80934C10.0219 7.77042 10.0734 7.77042 10.0828 7.80934Z" fill="#F5F5F5"/>
<path d="M10.0828 9.29785L10.1765 9.58484H10.4672C10.5047 9.58484 10.5187 9.63349 10.4906 9.65781L10.2562 9.83779L10.3453 10.1248C10.3547 10.1637 10.3172 10.1929 10.2844 10.1686L10.05 9.99345L9.81561 10.1686C9.7828 10.1929 9.7453 10.1588 9.75467 10.1248L9.84374 9.83779L9.60936 9.65781C9.58124 9.63349 9.5953 9.58484 9.6328 9.58484H9.92342L10.0172 9.29785C10.0219 9.2638 10.0734 9.2638 10.0828 9.29785Z" fill="#F5F5F5"/>
<path d="M10.0828 10.7912L10.1765 11.0782H10.4672C10.5047 11.0782 10.5187 11.1269 10.4906 11.1512L10.2562 11.3312L10.3453 11.6182C10.3547 11.6571 10.3172 11.6863 10.2844 11.6619L10.05 11.4868L9.81561 11.6619C9.7828 11.6863 9.7453 11.6522 9.75467 11.6182L9.84374 11.3312L9.60936 11.1512C9.58124 11.1269 9.5953 11.0782 9.6328 11.0782H9.92342L10.0172 10.7912C10.0219 10.7523 10.0734 10.7523 10.0828 10.7912Z" fill="#F5F5F5"/>
</svg>
