<svg width="24" height="24" viewBox="0 0 24 24" fill="none" xmlns="http://www.w3.org/2000/svg">
<mask id="mask0" mask-type="alpha" maskUnits="userSpaceOnUse" x="0" y="3" width="24" height="18">
<path d="M2.66667 3.33334H21.3333C22.0406 3.33334 22.7189 3.6143 23.219 4.11439C23.719 4.61449 24 5.29277 24 6.00001V18C24 18.7072 23.719 19.3855 23.219 19.8856C22.7189 20.3857 22.0406 20.6667 21.3333 20.6667H2.66667C1.95942 20.6667 1.28115 20.3857 0.781049 19.8856C0.280952 19.3855 0 18.7072 0 18V6.00001C0 5.29277 0.280952 4.61449 0.781049 4.11439C1.28115 3.6143 1.95942 3.33334 2.66667 3.33334Z" fill="#808A9B"/>
</mask>
<g mask="url(#mask0)">
<path d="M23.9999 3.11816H0V21H23.9999V3.11816Z" fill="white"/>
<path d="M16.095 9.56394L23.9999 3.8979V3.11816H23.4702L14.4244 9.56394H16.095Z" fill="#BD0034"/>
<path d="M15.6875 14.8661L23.9999 20.792V19.6484L17.3581 14.8661H15.6875Z" fill="#BD0034"/>
<path d="M0 4.46976L7.08996 9.564H8.76059L0 3.27417V4.46976Z" fill="#BD0034"/>
<path d="M8.39386 14.8661L0 20.896V21H1.50764L10.0645 14.8661H8.39386Z" fill="#BD0034"/>
<path d="M22.3698 3.11816H13.976V9.14809L22.3698 3.11816Z" fill="#1A237B"/>
<path d="M10.268 3.11816H1.87411L10.268 9.14809V3.11816Z" fill="#1A237B"/>
<path d="M23.9996 9.56398V5.4574L18.295 9.56398H23.9996Z" fill="#1A237B"/>
<path d="M23.9996 18.9207V14.8661H18.295L23.9996 18.9207Z" fill="#1A237B"/>
<path d="M2.36319 21H10.2681V15.334L2.36319 21Z" fill="#1A237B"/>
<path d="M13.976 21H21.8809L13.976 15.334V21Z" fill="#1A237B"/>
<path d="M0 14.8661V19.1286L5.9083 14.8661H0Z" fill="#1A237B"/>
<path d="M0 9.56394H5.9083L0 5.35339V9.56394Z" fill="#1A237B"/>
<path d="M11.0017 3.11816V10.6556H0V13.8265H11.0017V21H13.202V13.8265H23.9999V10.6556H13.202V3.11816H11.0017Z" fill="#BD0034"/>
<path d="M24 3H0V21H24V3Z" fill="#C8172B"/>
<path d="M13.5688 13.1836L14.8807 17L11.5 14.6812L8.06881 17L9.38073 13.1836L6 10.8164H10.1881L11.5 7L12.7615 10.8164H17L13.5688 13.1836Z" fill="#FCFF2C"/>
</g>
</svg>
