<svg width="117" height="110" viewBox="0 0 117 110" fill="none" xmlns="http://www.w3.org/2000/svg">
<g filter="url(#filter0_d)">
<rect x="13" y="9" width="91" height="83" rx="10" fill="white"/>
</g>
<g clip-path="url(#clip0)">
<path d="M64.6663 46.0013H51.3338C50.9658 46.0013 50.6671 46.3 50.6671 46.6679V57.3339C50.6671 58.9445 51.8138 60.2897 53.3337 60.6004V64.0002C53.3337 65.1028 54.2309 66 55.3335 66C56.4361 66 57.3334 65.1028 57.3334 64.0002V60.6671H58.6666V64.0002C58.6666 65.1028 59.5639 66 60.6665 66C61.7691 66 62.6663 65.1028 62.6663 64.0002V60.6004C64.1862 60.2911 65.3328 58.9445 65.3328 57.3339V46.6679C65.3328 46.2987 65.0342 46.0013 64.6663 46.0013Z" fill="#2A334F"/>
<path d="M61.4891 37.5525L62.613 34.93C62.7583 34.5913 62.601 34.2007 62.2623 34.0553C61.9276 33.9087 61.5317 34.066 61.3877 34.406L60.2638 37.0298C59.5505 36.7979 58.7905 36.6685 58.0012 36.6685C57.212 36.6685 56.452 36.7979 55.7387 37.0298L54.6122 34.406C54.4682 34.066 54.0722 33.9074 53.7376 34.0553C53.3989 34.2006 53.2429 34.5926 53.3883 34.93L54.5122 37.5525C52.223 38.7951 50.6671 41.2202 50.6671 44.0014C50.6671 44.3693 50.9658 44.668 51.3338 44.668H64.6662C65.0342 44.668 65.3329 44.3693 65.3329 44.0014C65.3328 41.2202 63.7769 38.7951 61.4891 37.5525ZM55.3335 42.0015C54.9655 42.0015 54.6668 41.7028 54.6668 41.3349C54.6668 40.9669 54.9655 40.6682 55.3335 40.6682C55.7014 40.6682 56.0001 40.9669 56.0001 41.3349C56.0001 41.7028 55.7014 42.0015 55.3335 42.0015ZM60.6665 42.0015C60.2985 42.0015 59.9998 41.7028 59.9998 41.3349C59.9998 40.9669 60.2985 40.6682 60.6665 40.6682C61.0345 40.6682 61.3331 40.9669 61.3331 41.3349C61.3331 41.7028 61.0345 42.0015 60.6665 42.0015Z" fill="#2A334F"/>
<path d="M68.6661 46.0013C67.5635 46.0013 66.6662 46.8986 66.6662 48.0012V54.6674C66.6662 55.77 67.5635 56.6673 68.6661 56.6673C69.7687 56.6673 70.6659 55.77 70.6659 54.6674V48.0012C70.6659 46.8986 69.7687 46.0013 68.6661 46.0013Z" fill="#2A334F"/>
<path d="M47.3339 46.0013C46.2313 46.0013 45.3341 46.8986 45.3341 48.0012V54.6674C45.3341 55.77 46.2313 56.6673 47.3339 56.6673C48.4366 56.6673 49.3338 55.77 49.3338 54.6674V48.0012C49.3338 46.8986 48.4366 46.0013 47.3339 46.0013Z" fill="#2A334F"/>
</g>
<defs>
<filter id="filter0_d" x="0" y="0.333333" width="117" height="109" filterUnits="userSpaceOnUse" color-interpolation-filters="sRGB">
<feFlood flood-opacity="0" result="BackgroundImageFix"/>
<feColorMatrix in="SourceAlpha" type="matrix" values="0 0 0 0 0 0 0 0 0 0 0 0 0 0 0 0 0 0 127 0"/>
<feOffset dy="4.33333"/>
<feGaussianBlur stdDeviation="6.5"/>
<feColorMatrix type="matrix" values="0 0 0 0 0.839216 0 0 0 0 0.85098 0 0 0 0 0.870588 0 0 0 0.45 0"/>
<feBlend mode="normal" in2="BackgroundImageFix" result="effect1_dropShadow"/>
<feBlend mode="normal" in="SourceGraphic" in2="effect1_dropShadow" result="shape"/>
</filter>
<clipPath id="clip0">
<rect width="32" height="32" fill="white" transform="translate(42 34)"/>
</clipPath>
</defs>
</svg>
