<svg width="117" height="110" viewBox="0 0 117 110" fill="none" xmlns="http://www.w3.org/2000/svg">
<g filter="url(#filter0_d)">
<rect x="13" y="9" width="91" height="83" rx="10" fill="white"/>
</g>
<g clip-path="url(#clip0)">
<path fill-rule="evenodd" clip-rule="evenodd" d="M43.8749 35.5625H72.1249C73.1587 35.5625 73.9999 36.4037 73.9999 37.4375V56.0625C73.9999 57.0963 73.1587 57.9375 72.1249 57.9375H43.8749C42.8412 57.9375 41.9999 57.0963 41.9999 56.0625V37.4375C41.9999 36.4037 42.8412 35.5625 43.8749 35.5625ZM62.9374 62.5625H67.9999C68.5174 62.5625 68.9374 62.9825 68.9374 63.5C68.9374 64.0175 68.5174 64.4375 67.9999 64.4375H47.9999C47.4824 64.4375 47.0624 64.0175 47.0624 63.5C47.0624 62.9825 47.4824 62.5625 47.9999 62.5625H53.0624V59.8125H62.9374V62.5625ZM53.2418 44.0052C53.0075 44.0052 52.8086 44.0869 52.6452 44.2503C52.4818 44.4137 52.4 44.6099 52.4 44.8388V48.3532C52.4 48.5878 52.4818 48.7864 52.6452 48.9499C52.8086 49.1133 53.0075 49.1951 53.2418 49.1951C53.4759 49.1951 53.6736 49.1133 53.8345 48.9499C53.995 48.7865 54.0755 48.5878 54.0755 48.3532V44.8388C54.0755 44.6098 53.9938 44.4137 53.8304 44.2503C53.6669 44.0869 53.4707 44.0052 53.2418 44.0052ZM60.5896 39.7798L60.0093 40.8503C60.5922 41.1503 61.0581 41.5683 61.4069 42.1049C61.7555 42.642 61.93 43.2288 61.93 43.8663H54.3701C54.3701 43.2287 54.5445 42.6419 54.8932 42.1049C55.2419 41.5683 55.7105 41.1503 56.299 40.8503L55.7187 39.7798C55.6804 39.7089 55.694 39.6547 55.7594 39.6163C55.8302 39.5835 55.8846 39.6001 55.9229 39.6652L56.5113 40.7443C57.0289 40.5154 57.5765 40.4007 58.1541 40.4007C58.7316 40.4007 59.2792 40.5154 59.797 40.7443L60.3854 39.6652C60.4235 39.6001 60.4779 39.5834 60.5488 39.6163C60.6141 39.6545 60.6277 39.7089 60.5896 39.7798ZM56.4294 42.5015C56.5166 42.5015 56.5915 42.4702 56.6543 42.4073C56.7167 42.3447 56.7482 42.2699 56.7483 42.1826C56.7483 42.0955 56.7169 42.0208 56.6543 41.9579C56.5915 41.8953 56.5166 41.864 56.4294 41.864C56.3423 41.864 56.2687 41.8953 56.2088 41.9579C56.1489 42.0207 56.1189 42.0955 56.1189 42.1826C56.1189 42.27 56.1489 42.3447 56.2088 42.4073C56.2687 42.4702 56.3421 42.5015 56.4294 42.5015ZM59.8785 42.5015C59.9655 42.5015 60.0391 42.4702 60.0991 42.4073C60.1591 42.3447 60.189 42.2699 60.189 42.1826C60.189 42.0955 60.1591 42.0208 60.0991 41.9579C60.0391 41.8953 59.9657 41.864 59.8785 41.864C59.7912 41.864 59.7163 41.8953 59.6536 41.9579C59.5909 42.0207 59.5596 42.0955 59.5596 42.1826C59.5596 42.27 59.5909 42.3447 59.6536 42.4073C59.7163 42.4702 59.7912 42.5015 59.8785 42.5015ZM54.4023 49.6036C54.4023 49.8545 54.4894 50.0668 54.6637 50.2411C54.8381 50.4154 55.0505 50.5025 55.3012 50.5025H55.906L55.9143 52.358C55.9143 52.5923 55.996 52.7913 56.1595 52.9547C56.3229 53.1182 56.5192 53.1999 56.7479 53.1999C56.9821 53.1999 57.181 53.1182 57.3445 52.9547C57.5079 52.7913 57.5897 52.5923 57.5897 52.358V50.5027H58.7175V52.358C58.7175 52.5923 58.7992 52.7913 58.9626 52.9547C59.1261 53.1182 59.3249 53.1999 59.5592 53.1999C59.7934 53.1999 59.9923 53.1182 60.1558 52.9547C60.3193 52.7913 60.401 52.5923 60.401 52.358V50.5027H61.014C61.2591 50.5027 61.4687 50.4155 61.6433 50.2413C61.8176 50.067 61.9048 49.8546 61.9048 49.6038V44.1603H54.4023V49.6036ZM62.4775 44.2463C62.641 44.0857 62.8371 44.0052 63.066 44.0052C63.3002 44.0052 63.4991 44.0857 63.6626 44.2463C63.826 44.4071 63.9077 44.6047 63.9077 44.8388V48.3532C63.9077 48.5878 63.826 48.7864 63.6626 48.9499C63.4991 49.1133 63.3002 49.1951 63.066 49.1951C62.8372 49.1951 62.641 49.1133 62.4775 48.9499C62.3141 48.7864 62.2324 48.5878 62.2324 48.3532V44.8388C62.2324 44.6047 62.3141 44.4071 62.4775 44.2463Z" fill="#2A334F"/>
</g>
<defs>
<filter id="filter0_d" x="0" y="0.333333" width="117" height="109" filterUnits="userSpaceOnUse" color-interpolation-filters="sRGB">
<feFlood flood-opacity="0" result="BackgroundImageFix"/>
<feColorMatrix in="SourceAlpha" type="matrix" values="0 0 0 0 0 0 0 0 0 0 0 0 0 0 0 0 0 0 127 0"/>
<feOffset dy="4.33333"/>
<feGaussianBlur stdDeviation="6.5"/>
<feColorMatrix type="matrix" values="0 0 0 0 0.839216 0 0 0 0 0.85098 0 0 0 0 0.870588 0 0 0 0.45 0"/>
<feBlend mode="normal" in2="BackgroundImageFix" result="effect1_dropShadow"/>
<feBlend mode="normal" in="SourceGraphic" in2="effect1_dropShadow" result="shape"/>
</filter>
<clipPath id="clip0">
<rect width="32" height="32" fill="white" transform="translate(42 34)"/>
</clipPath>
</defs>
</svg>
