<svg width="44" height="44" viewBox="0 0 44 44" fill="none" xmlns="http://www.w3.org/2000/svg">
<circle opacity="0.1" cx="22" cy="22" r="22" fill="#3C74FE"/>
<path fill-rule="evenodd" clip-rule="evenodd" d="M12.4474 12.5224C12.1669 12.6753 12 12.9761 12 13.3012V26.3425C12 26.5499 12.0656 26.7482 12.1939 26.9088C13.1259 28.0754 17.2601 33.0651 21.1607 34.847C21.3769 34.9458 21.6229 34.9431 21.839 34.844C26.4683 32.7192 30.0471 27.9943 30.8369 26.8946C30.9459 26.7428 31 26.5618 31 26.3735V13.3012C31 12.9761 30.8331 12.6753 30.5526 12.5224C29.2934 11.8361 25.5462 10 21.5 10C17.4538 10 13.7066 11.8361 12.4474 12.5224ZM27.8315 18.6766C28.1778 18.3036 28.1605 17.7133 27.7929 17.3623L27.1296 16.7289C26.7673 16.383 26.2005 16.3995 25.8581 16.7661L21.2008 21.7531C20.85 22.1287 20.2659 22.1355 19.9069 21.7682L18.123 19.943C17.7697 19.5815 17.1968 19.5815 16.8435 19.943L16.2037 20.5976C15.8504 20.9591 15.8504 21.5452 16.2037 21.9067L19.9723 25.7626C20.3321 26.1306 20.9176 26.123 21.268 25.7456L27.8315 18.6766Z" fill="url(#paint0_linear)"/>
<defs>
<linearGradient id="paint0_linear" x1="21.5" y1="10" x2="21.5" y2="34.9197" gradientUnits="userSpaceOnUse">
<stop stop-color="#5796FD"/>
<stop offset="1" stop-color="#2F64FF"/>
</linearGradient>
</defs>
</svg>
