<svg width="44" height="44" viewBox="0 0 44 44" fill="none" xmlns="http://www.w3.org/2000/svg">
<circle opacity="0.1" cx="22" cy="22" r="22" fill="#3C74FE"/>
<path d="M22 10C15.3735 10 10 15.3735 10 22C10 28.6265 15.3735 34 22 34C28.6265 34 34 28.6265 34 22C34 15.3735 28.6265 10 22 10ZM32.1154 22C32.1154 23.3642 31.8476 24.6905 31.3196 25.9385C30.8093 27.1436 30.0817 28.2248 29.152 29.1545C28.2223 30.0842 27.1411 30.8118 25.936 31.3221C24.6905 31.8476 23.3642 32.1154 22 32.1154C20.6358 32.1154 19.3095 31.8476 18.0615 31.3221C16.8564 30.8118 15.7752 30.0842 14.8455 29.1545C13.9158 28.2248 13.1882 27.1436 12.6779 25.9385C12.1524 24.6905 11.8846 23.3642 11.8846 22C11.8846 20.6358 12.1524 19.3095 12.6779 18.0615C13.1882 16.8564 13.9158 15.7752 14.8455 14.8455C15.7752 13.9158 16.8564 13.1882 18.0615 12.6779C19.3095 12.1524 20.6358 11.8846 22 11.8846C23.3642 11.8846 24.6905 12.1524 25.9385 12.6779C27.1436 13.1882 28.2248 13.9158 29.1545 14.8455C30.0842 15.7752 30.8118 16.8564 31.3221 18.0615C31.8476 19.3095 32.1154 20.6358 32.1154 22Z" fill="url(#paint0_linear)"/>
<path d="M22 13.0215C19.6025 13.0215 17.3465 13.9562 15.6514 15.6514C13.9537 17.3465 13.0215 19.6025 13.0215 22C13.0215 24.3975 13.9562 26.6535 15.6514 28.3486C17.3465 30.0438 19.6025 30.9785 22 30.9785C24.3975 30.9785 26.6535 30.0438 28.3486 28.3486C30.0438 26.6535 30.9785 24.3975 30.9785 22C30.9785 19.6025 30.0438 17.3465 28.3486 15.6514C26.6535 13.9537 24.3975 13.0215 22 13.0215ZM24.8194 14.9667L24.6375 15.755L24.443 16.5987L23.1874 22.0531L23.0888 22.4825C23.0712 22.5583 23.0434 22.6366 23.008 22.7099C22.8236 23.0863 22.4472 23.3036 22.0556 23.3036C21.899 23.3036 21.7398 23.2682 21.5907 23.195C21.1537 22.9827 20.9314 22.5078 21.0147 22.0531C21.0324 21.9596 21.0602 21.8686 21.1057 21.7802L23.8114 16.2451L24.16 15.5326L24.4935 14.8505C24.4985 14.8404 24.5061 14.8303 24.5112 14.8202C24.5465 14.7722 24.5971 14.752 24.6451 14.752C24.7411 14.752 24.8371 14.8278 24.8219 14.944C24.8219 14.9516 24.8219 14.9592 24.8194 14.9667ZM14.3427 21.803C14.3427 21.7625 14.3377 21.7171 14.3402 21.6665C14.3402 21.616 14.3427 21.5604 14.3427 21.5023C14.3453 21.4442 14.3453 21.3785 14.3478 21.3103C14.3529 21.2421 14.3579 21.1689 14.363 21.0931C14.3655 21.0552 14.368 21.0147 14.3705 20.9743C14.3756 20.9339 14.3806 20.8935 14.3857 20.8505C14.3958 20.7672 14.4059 20.6787 14.4185 20.5853C14.4337 20.4943 14.4514 20.3983 14.4665 20.2998C14.4741 20.2493 14.4867 20.2013 14.4969 20.1507C14.5095 20.1002 14.5196 20.0472 14.5322 19.9966C14.6333 19.5773 14.7849 19.1124 15.0097 18.6249C15.0223 18.5945 15.0375 18.5642 15.0526 18.5339C15.0678 18.5036 15.083 18.4733 15.0981 18.443C15.1284 18.3823 15.1587 18.3192 15.1916 18.2585C15.227 18.1979 15.2598 18.1373 15.2952 18.0741C15.3129 18.0438 15.3305 18.011 15.3482 17.9806C15.3659 17.9503 15.3861 17.92 15.4063 17.8897C15.4442 17.8291 15.4846 17.7659 15.5251 17.7027C15.5453 17.6699 15.5655 17.6421 15.5882 17.6093C15.6084 17.579 15.6312 17.5486 15.6539 17.5183C15.6766 17.488 15.6969 17.4577 15.7196 17.4249L15.7524 17.3769L15.7878 17.3314C15.8358 17.2707 15.8813 17.2101 15.9293 17.1495L15.9646 17.104C15.9773 17.0889 15.9899 17.0737 16.0025 17.0585C16.0278 17.0282 16.0531 16.9979 16.0783 16.9701C16.1036 16.9398 16.1289 16.9095 16.1566 16.8792L16.1945 16.8337C16.2072 16.8185 16.2223 16.8034 16.235 16.7907C16.2905 16.7326 16.3461 16.6745 16.4017 16.6139L16.4446 16.5684L16.4876 16.5255C16.5179 16.4977 16.5457 16.4674 16.576 16.4396C16.6922 16.3234 16.8185 16.2147 16.9448 16.1036C17.008 16.048 17.0762 15.9975 17.1419 15.9444C17.1747 15.9166 17.2076 15.8914 17.243 15.8636C17.2783 15.8383 17.3112 15.8131 17.3465 15.7878C17.9023 15.3811 18.539 15.0375 19.2286 14.7874C19.3145 14.7571 19.403 14.7267 19.4888 14.699C19.5773 14.6712 19.6657 14.6459 19.7541 14.6206L19.888 14.5827L20.0244 14.5499L20.1608 14.5171C20.2063 14.507 20.2518 14.4943 20.2973 14.4867C20.3882 14.4691 20.4817 14.4539 20.5752 14.4362C20.5979 14.4312 20.6206 14.4286 20.6434 14.4236L20.7141 14.4135L20.8531 14.3958L20.9945 14.3781C21.0425 14.3705 21.088 14.3705 21.136 14.3655L21.419 14.3427C21.4543 14.3427 21.4341 14.3427 21.4442 14.3427H21.4518H21.467H21.4998L21.5655 14.3402L21.6968 14.3352L21.7625 14.3326H21.7954C21.8055 14.3326 21.8206 14.3326 21.8307 14.3326L21.9798 14.3352L22.1288 14.3377L22.2021 14.3402C22.2274 14.3402 22.2501 14.3427 22.2728 14.3453C22.3688 14.3529 22.4623 14.3604 22.5558 14.3655C22.6038 14.368 22.6493 14.3756 22.6973 14.3806L22.8387 14.3983L22.9802 14.416L23.1217 14.4413C23.2152 14.459 23.3086 14.4741 23.4021 14.4918C23.4956 14.512 23.5865 14.5347 23.68 14.555C23.7533 14.5726 23.8291 14.5929 23.9023 14.6131L23.5663 15.3027L23.2328 15.9849C23.1646 15.9621 23.099 15.9369 23.0307 15.9141C22.9575 15.8889 22.8842 15.8686 22.8084 15.8459L22.6973 15.8131L22.5836 15.7853L22.4699 15.7575C22.432 15.7474 22.3941 15.7373 22.3562 15.7322C22.2804 15.7171 22.2021 15.7019 22.1263 15.6893C22.1061 15.6867 22.0884 15.6817 22.0682 15.6792L22.0126 15.6716L21.9015 15.6564L21.7903 15.6387C21.7802 15.6362 21.7726 15.6362 21.7625 15.6337L21.7297 15.6312L21.664 15.6261L21.5352 15.616L21.4695 15.611L21.4366 15.6084L21.4215 15.6059H21.4139C21.419 15.6059 21.3937 15.6059 21.4215 15.6059L21.184 15.5983C21.1436 15.5983 21.1057 15.5933 21.0653 15.5958L20.9465 15.5983L20.8278 15.6009H20.7672C20.747 15.6009 20.7267 15.6034 20.7065 15.6034C20.6282 15.6084 20.5474 15.6135 20.4691 15.6185C20.4286 15.6211 20.3907 15.6261 20.3503 15.6312L20.2316 15.6438L20.1128 15.6564L19.9941 15.6766C19.9158 15.6893 19.8375 15.7019 19.7592 15.7171C19.6808 15.7347 19.6051 15.7499 19.5267 15.7676C18.9103 15.9141 18.3166 16.1491 17.7836 16.4547C17.7507 16.4724 17.7154 16.4926 17.6825 16.5103C17.6497 16.5305 17.6168 16.5507 17.5865 16.571C17.5208 16.6114 17.4552 16.6518 17.3945 16.6922C17.2707 16.7781 17.1444 16.8615 17.0282 16.955C16.9979 16.9777 16.9701 17.0004 16.9398 17.0232L16.8943 17.056L16.8514 17.0914C16.7958 17.1394 16.7377 17.1874 16.6821 17.2329C16.667 17.2455 16.6543 17.2556 16.6392 17.2682L16.5987 17.3061C16.571 17.3314 16.5457 17.3566 16.5179 17.3794C16.4926 17.4046 16.4649 17.4299 16.4396 17.4526C16.427 17.4653 16.4118 17.4779 16.3992 17.4905L16.3613 17.5284C16.3107 17.579 16.2627 17.6295 16.2122 17.6825L16.1743 17.7204L16.139 17.7609C16.1162 17.7861 16.0935 17.8139 16.0682 17.8392C16.0455 17.8644 16.0227 17.8922 16 17.9175C15.9773 17.9427 15.9545 17.968 15.9318 17.9958C15.8889 18.0489 15.8459 18.1019 15.803 18.155C15.7827 18.1827 15.76 18.208 15.7398 18.2333C15.7196 18.2611 15.6994 18.2863 15.6817 18.3141C15.6413 18.3672 15.6034 18.4227 15.5655 18.4758C15.5276 18.5289 15.4947 18.5844 15.4569 18.6375C15.4392 18.6653 15.4215 18.6905 15.4038 18.7183C15.3861 18.7461 15.3684 18.7714 15.3533 18.7992C15.088 19.2312 14.8935 19.6581 14.752 20.0497C14.7343 20.0977 14.7192 20.1482 14.7015 20.1962C14.6863 20.2442 14.6661 20.2897 14.6535 20.3377C14.6257 20.4312 14.6004 20.5221 14.5752 20.608C14.5524 20.6964 14.5322 20.7798 14.5145 20.8606C14.5044 20.9011 14.4943 20.9415 14.4867 20.9794C14.4792 21.0173 14.4716 21.0552 14.4665 21.0931C14.4539 21.1663 14.4387 21.2371 14.4286 21.3027C14.4185 21.3684 14.411 21.4316 14.4034 21.4897C14.3958 21.5478 14.3882 21.6009 14.3806 21.6514C14.3756 21.7019 14.3731 21.7474 14.368 21.7878C14.3554 21.9495 14.3478 22.0379 14.3478 22.0379C14.3503 22.0531 14.3478 21.9646 14.3427 21.803ZM28.5356 18.1196C28.5558 18.1524 28.576 18.1827 28.5937 18.2156C28.9019 18.731 29.1293 19.2387 29.2935 19.7036C29.3137 19.7617 29.3314 19.8198 29.3516 19.8754C29.3693 19.931 29.3895 19.9865 29.4046 20.0421C29.4349 20.1533 29.4653 20.2594 29.4956 20.363C29.5234 20.4665 29.5436 20.5676 29.5663 20.6636C29.5764 20.7116 29.5891 20.7571 29.5966 20.8051C29.6042 20.8505 29.6118 20.896 29.6219 20.939C29.6371 21.0274 29.6522 21.1107 29.6648 21.1891C29.6775 21.2674 29.6851 21.3406 29.6926 21.4089C29.7002 21.4771 29.7078 21.5402 29.7154 21.6009C29.7229 21.659 29.7255 21.712 29.728 21.76C29.7406 21.952 29.7482 22.0531 29.7482 22.0531H27.2219C27.2219 22.0531 27.2244 21.9823 27.2295 21.8459C27.2295 21.8131 27.2345 21.7752 27.2345 21.7322C27.2345 21.6918 27.2345 21.6463 27.2345 21.5958C27.2345 21.5478 27.2345 21.4947 27.232 21.4392C27.2295 21.3836 27.2244 21.323 27.2219 21.2598C27.2194 21.2295 27.2194 21.1966 27.2168 21.1638C27.2143 21.131 27.2093 21.0981 27.2067 21.0627C27.1992 20.9945 27.1916 20.9213 27.1815 20.8455C27.1688 20.7697 27.1562 20.6914 27.1436 20.6105C27.1385 20.5701 27.1284 20.5297 27.1183 20.4867C27.1082 20.4438 27.1006 20.4034 27.0905 20.3579C27.0122 20.0118 26.891 19.6253 26.7116 19.2211C26.7015 19.1958 26.6888 19.1705 26.6762 19.1453C26.6636 19.12 26.6509 19.0947 26.6383 19.0695C26.6131 19.019 26.5878 18.9659 26.5625 18.9154C26.5347 18.8649 26.507 18.8143 26.4766 18.7613C26.4615 18.736 26.4488 18.7082 26.4337 18.683C26.4185 18.6577 26.4034 18.6324 26.3882 18.6072C26.3554 18.5566 26.3251 18.5036 26.2922 18.4531C26.2771 18.4253 26.2594 18.4025 26.2417 18.3747C26.224 18.3495 26.2063 18.3242 26.1886 18.299C26.1709 18.2737 26.1533 18.2484 26.1356 18.2206L26.1078 18.1802L26.08 18.1423C26.0421 18.0918 26.0042 18.0413 25.9638 17.9882L25.9335 17.9503C25.9234 17.9377 25.9133 17.9251 25.9032 17.9124C25.8829 17.8872 25.8602 17.8619 25.84 17.8366C25.8198 17.8114 25.7971 17.7861 25.7768 17.7609L25.744 17.723C25.7339 17.7103 25.7213 17.6977 25.7112 17.6851C25.6657 17.6371 25.6202 17.5865 25.5747 17.536L25.5394 17.4981L25.504 17.4627C25.4787 17.44 25.456 17.4147 25.4307 17.392C25.3347 17.2935 25.2312 17.2051 25.1276 17.1091C25.0846 17.0712 25.0366 17.0333 24.9912 16.9979L25.2034 16.0783L25.403 15.2118C25.5166 15.2699 25.6303 15.3331 25.7389 15.3962C25.7794 15.419 25.8173 15.4417 25.8577 15.4644C25.8956 15.4897 25.9335 15.5124 25.9739 15.5377C26.0497 15.5857 26.128 15.6337 26.2013 15.6842C26.3478 15.7878 26.4968 15.8889 26.6333 16C26.6686 16.0278 26.704 16.0556 26.7368 16.0809L26.7899 16.1213L26.8404 16.1642C26.9061 16.2223 26.9718 16.2779 27.0375 16.336C27.0526 16.3512 27.0703 16.3638 27.0855 16.379L27.1335 16.4244C27.1638 16.4547 27.1966 16.4825 27.227 16.5129C27.2573 16.5432 27.2901 16.571 27.3204 16.6013C27.3356 16.6164 27.3507 16.6316 27.3659 16.6467L27.4088 16.6922C27.4669 16.7529 27.5251 16.8135 27.5832 16.8741L27.6261 16.9196L27.6665 16.9676C27.6943 16.9979 27.7221 17.0307 27.7474 17.0611C27.7752 17.0914 27.8004 17.1242 27.8282 17.1545C27.856 17.1849 27.8813 17.2152 27.9065 17.248C27.9571 17.3112 28.0076 17.3743 28.0581 17.4375C28.0834 17.4703 28.1086 17.5006 28.1314 17.5335C28.1541 17.5663 28.1768 17.5992 28.1996 17.6295C28.2451 17.6952 28.2905 17.7583 28.336 17.8215C28.3789 17.8872 28.4194 17.9503 28.4623 18.016C28.4952 18.0564 28.5154 18.0893 28.5356 18.1196Z" fill="url(#paint1_linear)"/>
<defs>
<linearGradient id="paint0_linear" x1="22" y1="10" x2="22" y2="34" gradientUnits="userSpaceOnUse">
<stop stop-color="#5796FD"/>
<stop offset="1" stop-color="#2F64FF"/>
</linearGradient>
<linearGradient id="paint1_linear" x1="22" y1="13.0215" x2="22" y2="30.9785" gradientUnits="userSpaceOnUse">
<stop stop-color="#5796FD"/>
<stop offset="1" stop-color="#2F64FF"/>
</linearGradient>
</defs>
</svg>
