<svg width="117" height="110" viewBox="0 0 117 110" fill="none" xmlns="http://www.w3.org/2000/svg">
<g filter="url(#filter0_d)">
<rect x="13" y="9" width="91" height="83" rx="10" fill="white"/>
</g>
<path d="M58 55.3125C60.934 55.3125 63.3125 52.934 63.3125 50C63.3125 47.066 60.934 44.6875 58 44.6875C55.066 44.6875 52.6875 47.066 52.6875 50C52.6875 52.934 55.066 55.3125 58 55.3125Z" fill="#2A334F"/>
<path d="M50.9785 48.4632C51.6843 45.2361 54.5642 42.8125 58.0001 42.8125H72.3039C71.545 41.3058 70.5414 39.9139 69.3138 38.6862C66.2918 35.6643 62.2738 34 58.0001 34C53.7263 34 49.7084 35.6643 46.6863 38.6862C46.3957 38.9769 46.118 39.2769 45.8528 39.5852L50.9785 48.4632Z" fill="#2A334F"/>
<path d="M60.18 56.8492C59.4921 57.0687 58.7597 57.1875 58 57.1875C55.3301 57.1875 52.9958 55.7242 51.7564 53.5574C51.7475 53.5437 51.7387 53.5301 51.7304 53.5158L44.6257 41.21C42.9176 43.7975 42 46.8282 42 50C42 54.2738 43.6643 58.2917 46.6863 61.3138C49.0014 63.6289 51.9014 65.146 55.0529 65.7297L60.18 56.8492Z" fill="#2A334F"/>
<path d="M62.8361 44.6875C64.28 46.003 65.1875 47.8975 65.1875 50C65.1875 51.3224 64.8281 52.5622 64.2025 53.6278C64.1961 53.64 64.1906 53.6524 64.1836 53.6645L57.0774 65.973C57.3835 65.9902 57.691 66 58 66C62.2737 66 66.2916 64.3357 69.3137 61.3137C72.3356 58.2917 74 54.2737 74 50C74 48.1621 73.6913 46.3719 73.1002 44.6875H62.8361Z" fill="#2A334F"/>
<defs>
<filter id="filter0_d" x="0" y="0.333333" width="117" height="109" filterUnits="userSpaceOnUse" color-interpolation-filters="sRGB">
<feFlood flood-opacity="0" result="BackgroundImageFix"/>
<feColorMatrix in="SourceAlpha" type="matrix" values="0 0 0 0 0 0 0 0 0 0 0 0 0 0 0 0 0 0 127 0"/>
<feOffset dy="4.33333"/>
<feGaussianBlur stdDeviation="6.5"/>
<feColorMatrix type="matrix" values="0 0 0 0 0.839216 0 0 0 0 0.85098 0 0 0 0 0.870588 0 0 0 0.45 0"/>
<feBlend mode="normal" in2="BackgroundImageFix" result="effect1_dropShadow"/>
<feBlend mode="normal" in="SourceGraphic" in2="effect1_dropShadow" result="shape"/>
</filter>
</defs>
</svg>
