<svg width="44" height="44" viewBox="0 0 44 44" fill="none" xmlns="http://www.w3.org/2000/svg">
<circle opacity="0.1" cx="22" cy="22" r="22" fill="#3C74FE"/>
<path d="M31.6806 12H12.3165C11.9673 12 11.6325 12.1378 11.3856 12.3831C11.1387 12.6284 11 12.9611 11 13.308V24.7615C11 24.9332 11.034 25.1033 11.1002 25.262C11.1664 25.4207 11.2633 25.5649 11.3856 25.6863C11.5078 25.8078 11.653 25.9041 11.8127 25.9699C11.9724 26.0356 12.1436 26.0694 12.3165 26.0694H20.725V28.9129H17.8974C17.678 28.9129 17.4676 28.9995 17.3125 29.1536C17.1574 29.3077 17.0702 29.5167 17.0702 29.7347V30.1782C17.0702 30.3962 17.1574 30.6052 17.3125 30.7593C17.4676 30.9134 17.678 31 17.8974 31H25.7821C26.0015 31 26.2118 30.9134 26.367 30.7593C26.5221 30.6052 26.6092 30.3962 26.6092 30.1782V29.7517C26.6092 29.5338 26.5221 29.3248 26.367 29.1707C26.2118 29.0165 26.0015 28.93 25.7821 28.93H23.3494V26.0865H31.6835C31.7729 26.0869 31.862 26.0784 31.9497 26.0609C32.2466 26 32.5133 25.8391 32.7046 25.6055C32.896 25.3719 33.0003 25.0797 33 24.7785V13.308C33 13.136 32.9659 12.9657 32.8995 12.8068C32.8332 12.6479 32.7359 12.5036 32.6134 12.3821C32.4908 12.2606 32.3454 12.1643 32.1853 12.0988C32.0253 12.0332 31.8538 11.9996 31.6806 12ZM15.2586 24.2269C15.1906 24.227 15.1236 24.2108 15.0633 24.1796C15.003 24.1484 14.9512 24.1032 14.9123 24.0477C13.771 22.5284 13.1543 20.6832 13.1543 18.7873C13.1543 16.8914 13.771 15.0463 14.9123 13.5269C14.945 13.4827 14.9862 13.4453 15.0334 13.4168C15.0807 13.3884 15.1331 13.3694 15.1877 13.3611C15.2423 13.3528 15.2981 13.3553 15.3517 13.3683C15.4054 13.3814 15.4559 13.4049 15.5005 13.4374C15.545 13.4699 15.5826 13.5107 15.6113 13.5577C15.6399 13.6046 15.659 13.6567 15.6673 13.711C15.6757 13.7653 15.6732 13.8206 15.6601 13.8739C15.6469 13.9272 15.6233 13.9774 15.5906 14.0217C14.5564 15.3954 13.9975 17.0648 13.9975 18.7802C13.9975 20.4957 14.5564 22.1651 15.5906 23.5388C15.6413 23.6004 15.6732 23.6752 15.6826 23.7543C15.692 23.8333 15.6785 23.9134 15.6436 23.9851C15.6087 24.0568 15.554 24.1171 15.4858 24.159C15.4176 24.2008 15.3388 24.2224 15.2586 24.2212V24.2269ZM16.9529 20.9029C17.1071 21.2568 17.299 21.5933 17.5253 21.9066C17.5556 21.9525 17.5764 22.0039 17.5867 22.0579C17.5969 22.1118 17.5964 22.1672 17.5851 22.221C17.5738 22.2747 17.552 22.3257 17.5208 22.371C17.4897 22.4164 17.4499 22.4552 17.4037 22.4853C17.3574 22.5153 17.3057 22.536 17.2514 22.5462C17.1971 22.5564 17.1414 22.5559 17.0873 22.5447C17.0332 22.5335 16.9819 22.5118 16.9362 22.4808C16.8906 22.4499 16.8515 22.4103 16.8213 22.3644C16.0879 21.3133 15.6949 20.0649 15.6949 18.7859C15.6949 17.507 16.0879 16.2585 16.8213 15.2074C16.8515 15.1615 16.8906 15.1219 16.9362 15.091C16.9819 15.0601 17.0332 15.0384 17.0873 15.0272C17.1414 15.0159 17.1971 15.0154 17.2514 15.0256C17.3057 15.0358 17.3574 15.0565 17.4037 15.0866C17.4499 15.1166 17.4897 15.1554 17.5208 15.2008C17.552 15.2461 17.5738 15.2971 17.5851 15.3509C17.5964 15.4046 17.5969 15.46 17.5867 15.514C17.5764 15.5679 17.5556 15.6193 17.5253 15.6652C16.9931 16.4184 16.6616 17.2932 16.5615 18.208C16.4614 19.1229 16.596 20.048 16.9529 20.8972V20.9029ZM19.4829 20.3143C19.5318 20.3844 19.5578 20.4678 19.5573 20.5531C19.5583 20.6445 19.5292 20.7336 19.4745 20.8069C19.4197 20.8803 19.3422 20.9338 19.254 20.9592C19.1657 20.9847 19.0714 20.9808 18.9856 20.948C18.8998 20.9152 18.8272 20.8554 18.7788 20.7778C18.4051 20.1803 18.207 19.4908 18.207 18.7873C18.207 18.0839 18.4051 17.3944 18.7788 16.7969C18.8272 16.7193 18.8998 16.6595 18.9856 16.6267C19.0714 16.5939 19.1657 16.59 19.254 16.6154C19.3422 16.6409 19.4197 16.6944 19.4745 16.7677C19.5292 16.8411 19.5583 16.9302 19.5573 17.0215C19.558 17.1069 19.532 17.1904 19.4829 17.2604C19.2022 17.7199 19.0538 18.247 19.0538 18.7845C19.0538 19.322 19.2022 19.8491 19.4829 20.3086V20.3143ZM21.9986 20.0299C21.7484 20.0299 21.5038 19.9562 21.2958 19.8181C21.0877 19.68 20.9256 19.4837 20.8299 19.2541C20.7341 19.0244 20.7091 18.7717 20.7579 18.5279C20.8067 18.2841 20.9272 18.0602 21.1041 17.8844C21.281 17.7087 21.5064 17.589 21.7518 17.5405C21.9972 17.492 22.2515 17.5169 22.4827 17.612C22.7138 17.7071 22.9114 17.8682 23.0504 18.0749C23.1894 18.2816 23.2636 18.5246 23.2636 18.7731C23.2647 18.9388 23.2328 19.103 23.1697 19.2563C23.1066 19.4096 23.0135 19.549 22.8959 19.6663C22.7783 19.7837 22.6385 19.8768 22.4844 19.9402C22.3304 20.0036 22.1653 20.036 21.9986 20.0356V20.0299ZM25.2154 20.7664C25.1665 20.8427 25.094 20.9012 25.0088 20.9331C24.9236 20.965 24.8302 20.9685 24.7428 20.9432C24.6554 20.9179 24.5786 20.865 24.5239 20.7927C24.4693 20.7203 24.4398 20.6322 24.4398 20.5417C24.439 20.4564 24.465 20.3729 24.5142 20.3029C24.7966 19.8419 24.9459 19.3127 24.9459 18.7731C24.9459 18.2335 24.7966 17.7043 24.5142 17.2433C24.465 17.1734 24.439 17.0899 24.4398 17.0045C24.4398 16.914 24.4693 16.826 24.5239 16.7536C24.5786 16.6812 24.6554 16.6284 24.7428 16.6031C24.8302 16.5777 24.9236 16.5813 25.0088 16.6132C25.094 16.645 25.1665 16.7035 25.2154 16.7799C25.5918 17.3785 25.7914 18.0701 25.7914 18.776C25.7914 19.4818 25.5918 20.1734 25.2154 20.7721V20.7664ZM27.1873 22.353C27.1262 22.4458 27.0305 22.5106 26.9213 22.5333C26.8121 22.556 26.6983 22.5346 26.6049 22.4739C26.5116 22.4132 26.4463 22.3181 26.4235 22.2096C26.4007 22.1011 26.4222 21.988 26.4833 21.8952C27.1282 20.9813 27.4742 19.8922 27.4742 18.776C27.4742 17.6598 27.1282 16.5707 26.4833 15.6567C26.4222 15.5639 26.4007 15.4509 26.4235 15.3423C26.4463 15.2338 26.5116 15.1388 26.6049 15.0781C26.6983 15.0173 26.8121 14.996 26.9213 15.0186C27.0305 15.0413 27.1262 15.1061 27.1873 15.1989C27.9211 16.2498 28.3143 17.4984 28.3143 18.7774C28.3143 20.0564 27.9211 21.3049 27.1873 22.3559V22.353ZM29.0848 24.0364C29.0521 24.0806 29.011 24.118 28.9637 24.1465C28.9165 24.1749 28.864 24.1938 28.8094 24.2022C28.7548 24.2105 28.6991 24.208 28.6454 24.1949C28.5918 24.1819 28.5412 24.1584 28.4967 24.1259C28.4521 24.0935 28.4145 24.0526 28.3859 24.0056C28.3572 23.9587 28.3382 23.9066 28.3298 23.8523C28.3214 23.7981 28.3239 23.7427 28.3371 23.6894C28.3502 23.6361 28.3738 23.5858 28.4065 23.5416C29.4412 22.1681 30.0003 20.4986 30.0003 18.7831C30.0003 17.0675 29.4412 15.3981 28.4065 14.0245C28.3738 13.9803 28.3502 13.9301 28.3371 13.8768C28.3239 13.8235 28.3214 13.7681 28.3298 13.7138C28.3382 13.6596 28.3572 13.6075 28.3859 13.5605C28.4145 13.5136 28.4521 13.4727 28.4967 13.4402C28.5412 13.4077 28.5918 13.3843 28.6454 13.3712C28.6991 13.3581 28.7548 13.3557 28.8094 13.364C28.864 13.3723 28.9165 13.3912 28.9637 13.4197C29.011 13.4481 29.0521 13.4855 29.0848 13.5298C30.2246 15.0482 30.8403 16.8917 30.8403 18.7859C30.8403 20.6801 30.2246 22.5236 29.0848 24.042V24.0364Z" fill="url(#paint0_linear)"/>
<defs>
<linearGradient id="paint0_linear" x1="22" y1="12" x2="22" y2="31" gradientUnits="userSpaceOnUse">
<stop stop-color="#5796FD"/>
<stop offset="1" stop-color="#2F64FF"/>
</linearGradient>
</defs>
</svg>
