<svg width="115" height="115" viewBox="0 0 115 115" fill="none" xmlns="http://www.w3.org/2000/svg">
<circle opacity="0.1" cx="57.5" cy="57.5" r="57.5" fill="url(#paint0_linear)"/>
<path d="M87.9897 67.9373C87.3204 67.268 86.4995 66.927 85.5397 66.927H68.8064L63.9063 71.827C62.5172 73.1783 60.8754 73.8477 59.0063 73.8477C57.1372 73.8477 55.4955 73.1783 54.1063 71.827L49.2442 66.927H32.4603C31.5005 66.927 30.6796 67.268 30.0103 67.9373C29.341 68.6066 29 69.4275 29 70.3873V81.9302C29 82.89 29.341 83.7108 30.0103 84.3802C30.6796 85.0495 31.5005 85.3905 32.4603 85.3905H85.5397C86.4995 85.3905 87.3204 85.0495 87.9897 84.3802C88.659 83.7108 89 82.89 89 81.9302V70.3873C89 69.4275 88.659 68.6066 87.9897 67.9373ZM74.4641 80.0863C74.0095 80.541 73.4664 80.7683 72.835 80.7683C72.2035 80.7683 71.6731 80.541 71.2185 80.0863C70.7638 79.6317 70.5365 79.0887 70.5365 78.4698C70.5365 77.851 70.7638 77.308 71.2185 76.8533C71.6731 76.3987 72.2162 76.1714 72.835 76.1714C73.4538 76.1714 73.9968 76.3987 74.4641 76.8533C74.9188 77.308 75.1461 77.851 75.1461 78.4698C75.1461 79.0887 74.9188 79.6317 74.4641 80.0863ZM83.6959 80.0863C83.2412 80.541 82.6982 80.7683 82.0793 80.7683C81.4605 80.7683 80.9175 80.541 80.4628 80.0863C80.0082 79.6317 79.7809 79.0887 79.7809 78.4698C79.7809 77.851 80.0082 77.308 80.4628 76.8533C80.9175 76.3987 81.4605 76.1714 82.0793 76.1714C82.6982 76.1714 83.2412 76.3987 83.6959 76.8533C84.1505 77.308 84.3778 77.851 84.3778 78.4698C84.3778 79.0887 84.1505 79.6317 83.6959 80.0863Z" fill="url(#paint1_linear)"/>
<path d="M57.3772 68.5435C57.8065 68.9981 58.3496 69.2254 58.9937 69.2254C59.6377 69.2254 60.1808 68.9981 60.6102 68.5435L76.7626 52.3911C77.5077 51.6965 77.6718 50.8503 77.2677 49.8653C76.8636 48.9308 76.1564 48.4635 75.146 48.4635H65.9143V32.3111C65.9143 31.6923 65.687 31.1492 65.2323 30.6946C64.7777 30.2273 64.2347 30 63.6158 30H54.3841C53.7653 30 53.2222 30.2273 52.7676 30.682C52.313 31.1366 52.0856 31.6796 52.0856 32.2985V48.4509H42.8539C41.8436 48.4509 41.1364 48.9181 40.7322 49.8527C40.3281 50.8377 40.4923 51.6839 41.2374 52.3784L57.3772 68.5435Z" fill="url(#paint2_linear)"/>
<defs>
<linearGradient id="paint0_linear" x1="57.5" y1="0" x2="57.5" y2="115" gradientUnits="userSpaceOnUse">
<stop stop-color="#5796FD"/>
<stop offset="1" stop-color="#2F64FF"/>
</linearGradient>
<linearGradient id="paint1_linear" x1="59" y1="66.927" x2="59" y2="85.3905" gradientUnits="userSpaceOnUse">
<stop stop-color="#5796FD"/>
<stop offset="1" stop-color="#2F64FF"/>
</linearGradient>
<linearGradient id="paint2_linear" x1="59" y1="30" x2="59" y2="69.2254" gradientUnits="userSpaceOnUse">
<stop stop-color="#5796FD"/>
<stop offset="1" stop-color="#2F64FF"/>
</linearGradient>
</defs>
</svg>
