<svg width="115" height="115" viewBox="0 0 115 115" fill="none" xmlns="http://www.w3.org/2000/svg">
<circle opacity="0.1" cx="57.5" cy="57.5" r="57.5" fill="url(#paint0_linear)"/>
<g clip-path="url(#clip0)">
<path d="M79.2539 82.9961H61.7461V81.7422C61.7461 81.0508 61.1836 80.4883 60.4922 80.4883H59.25V77.6758C61.7344 76.5391 64.0898 72.1211 65.4727 65.7578C65.5547 65.3828 65.4609 65.0078 65.2266 64.7031C64.9922 64.4102 64.6289 64.2344 64.2539 64.2344H51.75C51.375 64.2344 51.0117 64.4102 50.7773 64.7031C50.543 64.9961 50.4492 65.3828 50.5313 65.7578C51.9141 72.1328 54.2695 76.5391 56.7539 77.6758V80.4883H55.5C54.8086 80.4883 54.2461 81.0508 54.2461 81.7422V82.9961H36.75C36.0586 82.9961 35.4961 83.5586 35.4961 84.25C35.4961 84.9414 36.0586 85.5039 36.75 85.5039H54.2461V86.7578C54.2461 87.4492 54.8086 88.0117 55.5 88.0117H60.5039C61.1953 88.0117 61.7578 87.4492 61.7578 86.7578V85.5039H79.2539C79.9453 85.5039 80.5078 84.9414 80.5078 84.25C80.4961 83.5586 79.9453 82.9961 79.2539 82.9961Z" fill="url(#paint1_linear)"/>
<path d="M65.2266 76.1055C65.4727 76.375 65.8126 76.5273 66.1641 76.5273C66.3048 76.5273 66.4571 76.5039 66.5977 76.4453C71.8126 74.5352 76.2891 70.8789 79.2305 66.1563C79.4649 65.7695 79.4766 65.2891 79.2657 64.8906C79.043 64.4922 78.6329 64.2461 78.1758 64.2461H69.3516C68.754 64.2461 68.2384 64.668 68.1212 65.2539C67.3946 68.9922 66.3634 72.168 65.0626 74.6992C64.8165 75.168 64.8868 75.7187 65.2266 76.1055Z" fill="url(#paint2_linear)"/>
<path d="M50.7773 41.2891C51.0117 41.582 51.375 41.7578 51.75 41.7578H64.2422C64.6172 41.7578 64.9805 41.582 65.2148 41.2891C65.4492 40.9961 65.543 40.6094 65.4609 40.2344C63.8555 32.8047 60.9258 28 57.9961 28C55.0664 28 52.1367 32.8047 50.5312 40.2344C50.4492 40.6094 50.543 40.9961 50.7773 41.2891Z" fill="url(#paint3_linear)"/>
<path d="M65.0742 61.75C65.707 61.75 66.2461 61.2695 66.3164 60.6484C66.5977 58.1992 66.75 55.6211 66.75 53.0078C66.75 50.3945 66.6094 47.8164 66.3164 45.3672C66.2461 44.7344 65.707 44.2656 65.0742 44.2656H50.918C50.2852 44.2656 49.7461 44.7461 49.6758 45.3672C49.3945 47.8164 49.2422 50.3945 49.2422 53.0078C49.2422 55.6211 49.3828 58.1992 49.6758 60.6484C49.7461 61.2812 50.2852 61.75 50.918 61.75H65.0742Z" fill="url(#paint4_linear)"/>
<path d="M46.8398 61.3398C47.0742 61.0703 47.1914 60.7188 47.1562 60.3672C46.8867 57.918 46.7578 55.4336 46.7578 52.9961C46.7578 50.5586 46.8867 48.0859 47.1562 45.625C47.1914 45.2734 47.0859 44.9219 46.8398 44.6523C46.6055 44.3828 46.2656 44.2422 45.9141 44.2422H35.4844C34.9453 44.2422 34.4648 44.582 34.3008 45.0977C33.4453 47.6758 33.0117 50.3242 33.0117 52.9961C33.0117 55.668 33.4453 58.3164 34.3008 60.8945C34.4766 61.4102 34.9453 61.75 35.4844 61.75H45.9141C46.2656 61.75 46.6055 61.5977 46.8398 61.3398Z" fill="url(#paint5_linear)"/>
<path d="M37.8398 41.7462H46.664C47.2617 41.7462 47.7773 41.3243 47.8945 40.7384C48.6211 37.0001 49.6523 33.8243 50.9531 31.2931C51.1875 30.836 51.1172 30.2735 50.7773 29.8985C50.4375 29.5118 49.8867 29.3712 49.4062 29.5587C44.1914 31.4571 39.7031 35.1134 36.7734 39.836C36.539 40.2228 36.5273 40.7032 36.7383 41.1017C36.9609 41.5001 37.3828 41.7462 37.8398 41.7462Z" fill="url(#paint6_linear)"/>
<path d="M81.7031 45.1094C81.5273 44.5938 81.0586 44.2539 80.5195 44.2539H70.0898C69.7383 44.2539 69.3984 44.4062 69.1641 44.6641C68.9297 44.9336 68.8125 45.2852 68.8477 45.6367C69.1172 48.0859 69.2461 50.5703 69.2461 53.0078C69.2461 55.4453 69.1172 57.918 68.8477 60.3789C68.8125 60.7305 68.918 61.082 69.1641 61.3515C69.3984 61.6211 69.7383 61.7617 70.0898 61.7617H80.5195C81.0586 61.7617 81.5391 61.4219 81.7031 60.9062C82.5586 58.3281 82.9922 55.6797 82.9922 53.0078C83.0039 50.3359 82.5703 47.6758 81.7031 45.1094Z" fill="url(#paint7_linear)"/>
<path d="M46.6523 64.2461H37.8398C37.3828 64.2461 36.9726 64.4922 36.75 64.8906C36.5273 65.2891 36.539 65.7695 36.7851 66.1563C39.7148 70.8789 44.2031 74.5352 49.4179 76.4453C49.5586 76.4922 49.6992 76.5273 49.8515 76.5273C50.2031 76.5273 50.5429 76.375 50.789 76.1055C51.1289 75.7187 51.1992 75.168 50.9648 74.7109C49.6406 72.168 48.6093 68.9922 47.8828 65.2656C47.7656 64.668 47.25 64.2461 46.6523 64.2461Z" fill="url(#paint8_linear)"/>
<path d="M68.1093 40.7382C68.2265 41.3241 68.7421 41.746 69.3398 41.746H78.164C78.6211 41.746 79.0312 41.4999 79.2539 41.1015C79.4765 40.703 79.4648 40.2226 79.2187 39.8358C76.289 35.1132 71.8007 31.4569 66.5859 29.5468C66.1054 29.371 65.5546 29.5116 65.2148 29.8866C64.875 30.2733 64.8046 30.8241 65.039 31.2812C66.3632 33.8241 67.3945 36.9999 68.1093 40.7382Z" fill="url(#paint9_linear)"/>
</g>
<defs>
<linearGradient id="paint0_linear" x1="57.5" y1="0" x2="57.5" y2="115" gradientUnits="userSpaceOnUse">
<stop stop-color="#5796FD"/>
<stop offset="1" stop-color="#2F64FF"/>
</linearGradient>
<linearGradient id="paint1_linear" x1="58.002" y1="64.2344" x2="58.002" y2="88.0117" gradientUnits="userSpaceOnUse">
<stop stop-color="#5796FD"/>
<stop offset="1" stop-color="#2F64FF"/>
</linearGradient>
<linearGradient id="paint2_linear" x1="72.1659" y1="64.2461" x2="72.1659" y2="76.5273" gradientUnits="userSpaceOnUse">
<stop stop-color="#5796FD"/>
<stop offset="1" stop-color="#2F64FF"/>
</linearGradient>
<linearGradient id="paint3_linear" x1="57.9961" y1="28" x2="57.9961" y2="41.7578" gradientUnits="userSpaceOnUse">
<stop stop-color="#5796FD"/>
<stop offset="1" stop-color="#2F64FF"/>
</linearGradient>
<linearGradient id="paint4_linear" x1="57.9961" y1="44.2656" x2="57.9961" y2="61.75" gradientUnits="userSpaceOnUse">
<stop stop-color="#5796FD"/>
<stop offset="1" stop-color="#2F64FF"/>
</linearGradient>
<linearGradient id="paint5_linear" x1="40.0873" y1="44.2422" x2="40.0873" y2="61.75" gradientUnits="userSpaceOnUse">
<stop stop-color="#5796FD"/>
<stop offset="1" stop-color="#2F64FF"/>
</linearGradient>
<linearGradient id="paint6_linear" x1="43.8394" y1="29.4763" x2="43.8394" y2="41.7462" gradientUnits="userSpaceOnUse">
<stop stop-color="#5796FD"/>
<stop offset="1" stop-color="#2F64FF"/>
</linearGradient>
<linearGradient id="paint7_linear" x1="75.9167" y1="44.2539" x2="75.9167" y2="61.7617" gradientUnits="userSpaceOnUse">
<stop stop-color="#5796FD"/>
<stop offset="1" stop-color="#2F64FF"/>
</linearGradient>
<linearGradient id="paint8_linear" x1="43.8467" y1="64.2461" x2="43.8467" y2="76.5273" gradientUnits="userSpaceOnUse">
<stop stop-color="#5796FD"/>
<stop offset="1" stop-color="#2F64FF"/>
</linearGradient>
<linearGradient id="paint9_linear" x1="72.1571" y1="29.4717" x2="72.1571" y2="41.746" gradientUnits="userSpaceOnUse">
<stop stop-color="#5796FD"/>
<stop offset="1" stop-color="#2F64FF"/>
</linearGradient>
<clipPath id="clip0">
<rect width="50.0039" height="60" fill="white" transform="translate(33 28)"/>
</clipPath>
</defs>
</svg>
