<svg width="44" height="44" viewBox="0 0 44 44" fill="none" xmlns="http://www.w3.org/2000/svg">
<circle opacity="0.1" cx="22" cy="22" r="22" fill="#3C74FE"/>
<path fill-rule="evenodd" clip-rule="evenodd" d="M12 11C11.4477 11 11 11.4477 11 12V16.6957C11 17.2479 11.4477 17.6957 12 17.6957H32C32.5523 17.6957 33 17.2479 33 16.6957V12C33 11.4477 32.5523 11 32 11H12ZM13.2 12.913C13.0895 12.913 13 13.0119 13 13.1338V15.5619C13 15.6838 13.0895 15.7826 13.2 15.7826H13.8C13.9105 15.7826 14 15.6838 14 15.5619V13.1338C14 13.0119 13.9105 12.913 13.8 12.913H13.2ZM15 13.1338C15 13.0119 15.0895 12.913 15.2 12.913H15.8C15.9105 12.913 16 13.0119 16 13.1338V15.5619C16 15.6838 15.9105 15.7826 15.8 15.7826H15.2C15.0895 15.7826 15 15.6838 15 15.5619V13.1338ZM17.2 12.913C17.0895 12.913 17 13.0119 17 13.1338V15.5619C17 15.6838 17.0895 15.7826 17.2 15.7826H17.8C17.9105 15.7826 18 15.6838 18 15.5619V13.1338C18 13.0119 17.9105 12.913 17.8 12.913H17.2ZM26 14.0609C26 13.9552 26.0995 13.8696 26.2222 13.8696H27.7778C27.9005 13.8696 28 13.9552 28 14.0609V14.6348C28 14.7404 27.9005 14.8261 27.7778 14.8261H26.2222C26.0995 14.8261 26 14.7404 26 14.6348V14.0609ZM29.2222 13.8696C29.0995 13.8696 29 13.9552 29 14.0609V14.6348C29 14.7404 29.0995 14.8261 29.2222 14.8261H30.7778C30.9005 14.8261 31 14.7404 31 14.6348V14.0609C31 13.9552 30.9005 13.8696 30.7778 13.8696H29.2222Z" fill="url(#paint0_linear)"/>
<path fill-rule="evenodd" clip-rule="evenodd" d="M12 18.6521C11.4477 18.6521 11 19.0998 11 19.6521V24.3478C11 24.9 11.4477 25.3478 12 25.3478H32C32.5523 25.3478 33 24.9 33 24.3478V19.6521C33 19.0998 32.5523 18.6521 32 18.6521H12ZM13.2 20.5652C13.0895 20.5652 13 20.664 13 20.7859V23.214C13 23.3359 13.0895 23.4347 13.2 23.4347H13.8C13.9105 23.4347 14 23.3359 14 23.214V20.7859C14 20.664 13.9105 20.5652 13.8 20.5652H13.2ZM15 20.7859C15 20.664 15.0895 20.5652 15.2 20.5652H15.8C15.9105 20.5652 16 20.664 16 20.7859V23.214C16 23.3359 15.9105 23.4347 15.8 23.4347H15.2C15.0895 23.4347 15 23.3359 15 23.214V20.7859ZM17.2 20.5652C17.0895 20.5652 17 20.664 17 20.7859V23.214C17 23.3359 17.0895 23.4347 17.2 23.4347H17.8C17.9105 23.4347 18 23.3359 18 23.214V20.7859C18 20.664 17.9105 20.5652 17.8 20.5652H17.2ZM26 21.713C26 21.6073 26.0995 21.5217 26.2222 21.5217H27.7778C27.9005 21.5217 28 21.6073 28 21.713V22.2869C28 22.3926 27.9005 22.4782 27.7778 22.4782H26.2222C26.0995 22.4782 26 22.3926 26 22.2869V21.713ZM29.2222 21.5217C29.0995 21.5217 29 21.6073 29 21.713V22.2869C29 22.3926 29.0995 22.4782 29.2222 22.4782H30.7778C30.9005 22.4782 31 22.3926 31 22.2869V21.713C31 21.6073 30.9005 21.5217 30.7778 21.5217H29.2222Z" fill="url(#paint1_linear)"/>
<path fill-rule="evenodd" clip-rule="evenodd" d="M12 26.3044C11.4477 26.3044 11 26.7522 11 27.3044V32.0001C11 32.5524 11.4477 33.0001 12 33.0001H32C32.5523 33.0001 33 32.5524 33 32.0001V27.3044C33 26.7522 32.5523 26.3044 32 26.3044H12ZM13.2 28.2175C13.0895 28.2175 13 28.3163 13 28.4382V30.8663C13 30.9883 13.0895 31.0871 13.2 31.0871H13.8C13.9105 31.0871 14 30.9883 14 30.8663V28.4382C14 28.3163 13.9105 28.2175 13.8 28.2175H13.2ZM15 28.4382C15 28.3163 15.0895 28.2175 15.2 28.2175H15.8C15.9105 28.2175 16 28.3163 16 28.4382V30.8663C16 30.9883 15.9105 31.0871 15.8 31.0871H15.2C15.0895 31.0871 15 30.9883 15 30.8663V28.4382ZM17.2 28.2175C17.0895 28.2175 17 28.3163 17 28.4382V30.8663C17 30.9883 17.0895 31.0871 17.2 31.0871H17.8C17.9105 31.0871 18 30.9883 18 30.8663V28.4382C18 28.3163 17.9105 28.2175 17.8 28.2175H17.2ZM26 29.3653C26 29.2597 26.0995 29.174 26.2222 29.174H27.7778C27.9005 29.174 28 29.2597 28 29.3653V29.9393C28 30.0449 27.9005 30.1306 27.7778 30.1306H26.2222C26.0995 30.1306 26 30.0449 26 29.9393V29.3653ZM29.2222 29.174C29.0995 29.174 29 29.2597 29 29.3653V29.9393C29 30.0449 29.0995 30.1306 29.2222 30.1306H30.7778C30.9005 30.1306 31 30.0449 31 29.9393V29.3653C31 29.2597 30.9005 29.174 30.7778 29.174H29.2222Z" fill="url(#paint2_linear)"/>
<defs>
<linearGradient id="paint0_linear" x1="22" y1="11" x2="22" y2="17.6957" gradientUnits="userSpaceOnUse">
<stop stop-color="#5796FD"/>
<stop offset="1" stop-color="#2F64FF"/>
</linearGradient>
<linearGradient id="paint1_linear" x1="22" y1="18.6521" x2="22" y2="25.3478" gradientUnits="userSpaceOnUse">
<stop stop-color="#5796FD"/>
<stop offset="1" stop-color="#2F64FF"/>
</linearGradient>
<linearGradient id="paint2_linear" x1="22" y1="26.3044" x2="22" y2="33.0001" gradientUnits="userSpaceOnUse">
<stop stop-color="#5796FD"/>
<stop offset="1" stop-color="#2F64FF"/>
</linearGradient>
</defs>
</svg>
