<svg width="117" height="110" viewBox="0 0 117 110" fill="none" xmlns="http://www.w3.org/2000/svg">
<g filter="url(#filter0_d)">
<rect x="13" y="9" width="91" height="83" rx="10" fill="white"/>
</g>
<path d="M53.807 43.7759C53.818 43.7759 53.812 43.7759 53.807 43.7759V43.7759ZM50.109 41.9269C50.12 41.9269 50.114 41.9269 50.109 41.9269V41.9269ZM72.229 44.7809C71.562 43.1769 70.208 41.4479 69.15 40.8959C70.015 42.5879 70.515 44.2919 70.702 45.5569L70.707 45.5839C68.968 41.2549 66.026 39.5109 63.619 35.7129C63.499 35.5209 63.379 35.3279 63.259 35.1249C63.196 35.0209 63.144 34.9169 63.087 34.8059C62.9887 34.6124 62.9136 34.408 62.863 34.1969C62.863 34.1769 62.848 34.1609 62.827 34.1559H62.796L62.791 34.1609C62.786 34.1609 62.78 34.1659 62.78 34.1659C62.78 34.1659 62.78 34.1609 62.785 34.1549C59.368 36.1549 57.957 39.6599 57.592 41.8839C56.5382 41.9471 55.5061 42.2104 54.551 42.6599C54.4638 42.7031 54.3956 42.7767 54.3593 42.8669C54.323 42.9571 54.3211 43.0575 54.354 43.1489C54.3718 43.1996 54.3999 43.246 54.4366 43.2851C54.4734 43.3243 54.5178 43.3554 54.5672 43.3765C54.6166 43.3975 54.6698 43.4081 54.7235 43.4075C54.7771 43.4069 54.8301 43.3951 54.879 43.3729C55.7122 42.981 56.6113 42.748 57.53 42.6859L57.619 42.6749C57.744 42.6699 57.874 42.6639 57.999 42.6639C58.7443 42.6591 59.4864 42.7625 60.202 42.9709L60.327 43.0079C60.447 43.0439 60.562 43.0849 60.682 43.1279C60.765 43.1589 60.854 43.1909 60.937 43.2269C61.005 43.2519 61.073 43.2839 61.14 43.3099C61.245 43.3579 61.349 43.4099 61.453 43.4619L61.593 43.5289C61.697 43.5819 61.797 43.6379 61.896 43.6959C61.959 43.7329 62.021 43.7689 62.083 43.8109C63.1952 44.4976 64.1176 45.452 64.766 46.5869C63.949 46.0149 62.479 45.4419 61.069 45.6919C66.589 48.4519 65.105 57.9569 57.454 57.5969C56.6093 57.5652 55.7784 57.3724 55.006 57.0289C54.9188 56.9886 54.8322 56.9472 54.746 56.9049C52.87 55.9359 51.323 54.1019 51.131 51.8779C51.131 51.8779 51.839 49.2379 56.203 49.2379C56.678 49.2379 58.027 47.9189 58.052 47.5389C58.041 47.4139 55.369 46.3519 54.328 45.3259C53.771 44.7789 53.511 44.5139 53.276 44.3149C53.1492 44.2058 53.0152 44.1052 52.875 44.0139C52.5261 42.7898 52.5119 41.4944 52.834 40.2629C51.255 40.9819 50.031 42.1179 49.141 43.1179H49.132C48.523 42.3469 48.569 39.8049 48.6 39.2739C48.595 39.2379 48.147 39.5029 48.089 39.5449C47.553 39.9299 47.048 40.3579 46.589 40.8319C46.0631 41.364 45.5824 41.939 45.152 42.5509C44.1664 43.9483 43.4673 45.527 43.095 47.1959C42.9933 47.6648 42.9102 48.1375 42.846 48.6129C42.8258 48.7322 42.8084 48.8519 42.794 48.9719C42.751 49.2641 42.7213 49.5581 42.705 49.8529L42.7 49.8999C42.691 50.0719 42.68 50.2389 42.669 50.4109V50.4879C42.669 58.9679 49.544 65.8429 58.024 65.8429C65.617 65.8429 71.924 60.3269 73.159 53.0869C73.186 52.8899 73.206 52.6919 73.227 52.4939C73.534 49.8629 73.196 47.0929 72.232 44.7809H72.229Z" fill="#2A334F"/>
<defs>
<filter id="filter0_d" x="0" y="0.333333" width="117" height="109" filterUnits="userSpaceOnUse" color-interpolation-filters="sRGB">
<feFlood flood-opacity="0" result="BackgroundImageFix"/>
<feColorMatrix in="SourceAlpha" type="matrix" values="0 0 0 0 0 0 0 0 0 0 0 0 0 0 0 0 0 0 127 0"/>
<feOffset dy="4.33333"/>
<feGaussianBlur stdDeviation="6.5"/>
<feColorMatrix type="matrix" values="0 0 0 0 0.839216 0 0 0 0 0.85098 0 0 0 0 0.870588 0 0 0 0.45 0"/>
<feBlend mode="normal" in2="BackgroundImageFix" result="effect1_dropShadow"/>
<feBlend mode="normal" in="SourceGraphic" in2="effect1_dropShadow" result="shape"/>
</filter>
</defs>
</svg>
