<svg width="117" height="110" viewBox="0 0 117 110" fill="none" xmlns="http://www.w3.org/2000/svg">
<g filter="url(#filter0_d)">
<rect x="13" y="9" width="91" height="83" rx="10" fill="white"/>
</g>
<path d="M46.2255 43.4429C46.2255 43.879 46.0863 44.2316 45.809 44.502C45.5318 44.7724 45.1735 44.9082 44.7352 44.9082C44.3405 44.9082 44.0088 44.7699 43.7389 44.4908C43.4677 44.2129 43.3333 43.8641 43.3333 43.4429C43.3333 43.0217 43.4725 42.6766 43.7498 42.4062C44.027 42.1346 44.3708 42 44.7788 42C45.188 42 45.5306 42.1346 45.8078 42.4062C46.0863 42.6766 46.2255 43.023 46.2255 43.4429ZM45.9628 57.6712H43.596V46.7125H45.9616V57.6712H45.9628ZM61.8132 49.9147C61.8132 52.2149 61.1658 54.0939 60.0266 55.5517C58.8002 57.1305 57.0981 58 54.9226 58C52.8633 58 51.2278 57.1454 50.0159 55.5966C48.8901 54.1687 48.3283 52.3644 48.3283 50.1851C48.3283 47.961 48.9119 46.1044 50.0813 44.6154C51.3367 43.023 53.0159 42.1447 55.1187 42.1447C57.1925 42.1447 58.8353 42.9918 60.0483 44.5257C61.173 45.9387 61.8132 47.7354 61.8132 49.9147ZM59.2154 50.0045C59.2154 48.5017 58.8874 47.2084 58.23 46.1256C57.4709 44.8335 56.4044 44.1868 55.0315 44.1868C53.6151 44.1868 52.5268 44.8484 51.7677 46.1704C51.1249 47.2532 50.8028 48.569 50.8028 50.1178C50.8028 51.6367 51.1309 52.9363 51.7883 54.0179C52.5619 55.3113 53.6357 55.9567 55.0085 55.9567C56.425 55.9567 57.5133 55.2951 58.2724 53.973C58.9019 52.8902 59.2154 51.5682 59.2154 50.0045ZM72.6666 53.4086C72.6666 54.702 72.2284 55.7536 71.3519 56.5648C70.3883 57.4519 69.0445 57.8955 67.3205 57.8955C65.7286 57.8955 64.4514 57.5803 63.4865 56.9485L64.0337 54.92C65.0712 55.5517 66.2092 55.867 67.4513 55.867C68.3423 55.867 69.036 55.6602 69.5323 55.2465C70.0287 54.8328 70.2769 54.2808 70.2769 53.5893C70.2769 52.9725 70.0723 52.4541 69.6631 52.033C69.2539 51.6118 68.5747 51.2206 67.6256 50.8605C65.0409 49.8686 63.6695 48.4183 63.6695 46.5081C63.6695 45.2608 64.2044 44.2391 65.1172 43.4416C66.03 42.6454 67.2382 42.2467 68.743 42.2467C70.0868 42.2467 71.2042 42.4872 72.0952 42.9682L71.5057 44.9531C70.6728 44.4871 69.7309 44.2541 68.6801 44.2541C67.8472 44.2541 67.1971 44.4646 66.731 44.8858C66.3363 45.2621 66.139 45.7206 66.139 46.2614C66.139 46.8632 66.3654 47.3591 66.8181 47.7492C67.2128 48.1093 67.9283 48.5005 68.9646 48.9217C70.2357 49.4475 71.1691 50.0643 71.7684 50.7708C72.3676 51.4773 72.6666 52.3569 72.6666 53.4086Z" fill="#2A334F"/>
<defs>
<filter id="filter0_d" x="0" y="0.333333" width="117" height="109" filterUnits="userSpaceOnUse" color-interpolation-filters="sRGB">
<feFlood flood-opacity="0" result="BackgroundImageFix"/>
<feColorMatrix in="SourceAlpha" type="matrix" values="0 0 0 0 0 0 0 0 0 0 0 0 0 0 0 0 0 0 127 0"/>
<feOffset dy="4.33333"/>
<feGaussianBlur stdDeviation="6.5"/>
<feColorMatrix type="matrix" values="0 0 0 0 0.839216 0 0 0 0 0.85098 0 0 0 0 0.870588 0 0 0 0.45 0"/>
<feBlend mode="normal" in2="BackgroundImageFix" result="effect1_dropShadow"/>
<feBlend mode="normal" in="SourceGraphic" in2="effect1_dropShadow" result="shape"/>
</filter>
</defs>
</svg>
