<svg width="117" height="110" viewBox="0 0 117 110" fill="none" xmlns="http://www.w3.org/2000/svg">
<g filter="url(#filter0_d)">
<rect x="13" y="9" width="91" height="83" rx="10" fill="white"/>
</g>
<g clip-path="url(#clip0)">
<path d="M50.1003 55.469C50.0193 55.0465 49.8564 54.5807 49.8518 54.1122C49.8361 52.5547 50.4722 51.196 51.2647 49.9017C51.2813 49.875 51.3227 49.8658 51.3522 49.8465C51.3117 50.0481 51.2196 50.2092 51.1359 50.3684C50.5513 51.4933 50.0248 52.6384 49.999 53.9373C49.9843 54.6479 50.1233 55.3208 50.7226 55.886C50.7152 55.7351 50.7014 55.632 50.7042 55.5243C50.7207 55.0207 50.7005 54.5117 50.7667 54.0155C50.9361 52.7645 51.389 51.6139 51.9864 50.4973C52.374 49.7738 52.849 49.25 53.6434 49.03C53.7621 48.9978 53.8661 48.9131 54.03 48.8247C53.8017 48.6811 53.6314 48.5817 53.4694 48.4703C53.0901 48.2135 52.9907 47.8444 53.1932 47.4274C53.2936 47.2193 53.3801 46.991 53.5301 46.8253C54.0861 46.2104 54.3733 45.5108 54.3089 44.6769C54.3071 44.6557 54.3126 44.6354 54.3163 44.6143C54.3568 44.397 54.3034 44.2258 54.1469 44.0463C53.5338 43.3449 53.5845 42.6094 54.2831 42.0074C54.4562 41.8601 54.4488 41.7542 54.3715 41.5581C54.0751 40.8134 54.0061 40.0439 54.2831 39.2799C54.5151 38.6438 55.1806 38.4477 55.674 38.8702C56.0045 39.1556 56.2466 39.5155 56.3074 39.9666C56.3359 40.182 56.3469 40.4001 56.3644 40.6155C56.7823 40.6155 57.1864 40.6155 57.6145 40.6155C57.6145 40.5078 57.6255 40.4038 57.6126 40.3007C57.5547 39.8441 57.724 39.4538 57.9615 39.0856C58.443 38.3326 59.5568 38.1743 60.1109 38.8104C60.631 39.4087 60.9238 40.112 60.7792 40.9285C60.7268 41.2231 60.6209 41.5075 60.5362 41.8094C60.8602 42.0092 61.0931 42.3001 61.0535 42.7033C61.0186 43.054 60.8971 43.3937 60.8253 43.7407C60.7976 43.8824 60.7479 44.05 60.7958 44.177C60.9366 44.5692 61.1198 44.9484 61.2901 45.3313C61.4825 45.7612 61.6924 46.1856 61.8765 46.6173C62.3524 47.7357 62.8191 48.8588 63.2867 49.9809C63.4681 50.4255 63.6752 50.8692 63.8041 51.3313C64.199 52.7535 64.2827 54.2079 64.1557 55.6752C64.141 55.8483 64.1704 55.9302 64.3462 56.0011C64.6997 56.1419 64.882 56.4273 64.8801 56.8167C64.8801 56.975 64.8433 57.137 64.8691 57.288C64.8921 57.4371 64.9409 57.6175 65.0422 57.7123C65.4417 58.0713 66.0741 58.0778 66.5362 57.7979C67.0885 57.4619 67.4226 56.9465 67.7908 56.3601C66.8022 55.5712 65.7574 55.4469 64.6049 55.9956C64.731 55.8639 64.8608 55.6936 65.0099 55.6715C65.4546 55.6154 65.5696 55.3052 65.6736 54.9554C65.7335 54.7446 65.8053 54.5347 65.8614 54.3221C66.2775 52.736 65.9949 51.2963 64.9133 50.0499C64.6334 49.725 64.2763 49.4682 63.9541 49.181C64.708 49.5602 65.322 50.107 65.751 50.8296C66.6687 52.3779 66.3272 53.9529 65.8007 55.5243C67.0378 55.6108 67.4631 55.7599 67.9492 56.2809C68.1222 56.2616 68.2907 56.2542 68.4527 56.2183C68.5272 56.2018 68.6267 56.141 68.6497 56.0784C68.7491 55.7912 68.8503 55.5012 68.9037 55.2048C69.0713 54.3202 68.8642 53.466 68.6165 52.6283C68.0928 50.8591 67.2219 49.2574 66.1532 47.7578C65.4831 46.8171 64.7918 45.8827 64.2257 44.8775C63.4174 43.4397 62.9949 41.8766 63.0262 40.2031C63.0382 39.602 63.0041 38.9853 62.8918 38.3925C62.6967 37.3486 62.346 36.3406 61.5746 35.5775C60.1183 34.1388 58.3656 33.684 56.3838 34.2106C55.3997 34.4701 54.5133 34.9203 53.9545 35.8343C53.5025 36.5744 53.3258 37.4038 53.3332 38.2489C53.347 39.8027 53.347 41.3676 53.5081 42.9095C53.6517 44.2727 53.4142 45.4409 52.4835 46.4673C52.1116 46.876 51.7885 47.3362 51.4617 47.7891C50.0957 49.6698 49.2138 51.7934 48.4084 53.9529C48.2049 54.5006 48.1221 55.0585 48.3099 55.6513C48.9229 55.2371 49.5425 55.1054 50.1003 55.469ZM61.9529 43.4958C62.2567 43.6486 62.5476 43.8281 62.82 44.0297C62.9231 44.1071 62.959 44.2746 62.9931 44.3353C62.9931 44.7275 62.7271 44.9051 62.4592 44.756C62.0496 44.5277 61.8332 44.1522 61.7449 43.702C61.7145 43.5428 61.8084 43.424 61.9529 43.4958ZM59.6838 38.1016C60.1689 38.039 60.6826 38.4597 60.8289 39.0525C60.5381 38.6272 60.226 38.2295 59.6838 38.1016ZM59.8854 35.5564C60.2104 35.5619 60.3227 35.8095 60.4193 36.0562C60.515 36.3057 60.2812 36.3434 60.1514 36.4465C60.1192 36.4695 60.0778 36.4842 60.0382 36.5008C59.6037 36.6858 59.4914 36.6122 59.4951 36.139C59.4988 35.6935 59.589 35.5536 59.8854 35.5564ZM56.3911 39.0368C56.0699 38.7763 55.7477 38.5158 55.4522 38.2765C55.7974 38.2443 56.2374 38.5784 56.3911 39.0368ZM54.957 63.878C55.061 64.3852 54.8106 64.7736 54.3614 65.0756C54.2141 65.1741 54.0788 65.2965 53.9563 65.4263C53.4197 65.9869 52.7643 66.1001 52.0444 65.9243C51.6679 65.8322 51.2942 65.7172 50.9352 65.5717C49.5738 65.0249 48.1635 64.6705 46.7303 64.3796C46.2387 64.283 45.749 64.1477 45.2759 63.9801C44.6039 63.7417 44.3894 63.3514 44.5293 62.6592C44.7309 61.6595 44.7401 60.6598 44.5799 59.6519C44.4538 58.8639 44.6499 58.5831 45.4231 58.3806C45.7177 58.3033 46.0113 58.214 46.3096 58.1625C46.8601 58.064 47.2706 57.7731 47.5946 57.3285C47.8782 56.9382 48.1516 56.5331 48.4866 56.1898C49.0794 55.5804 49.6078 55.5556 50.1638 56.1815C50.7806 56.8802 51.3421 57.6322 51.8631 58.4055C52.7367 59.7016 53.4768 61.0879 54.4866 62.2974C54.8483 62.7301 55.0159 63.2493 54.957 63.878ZM71.1296 61.8703C70.8387 62.106 70.511 62.3039 70.1842 62.4907C68.7859 63.2907 67.4272 64.1449 66.2572 65.267C65.6874 65.8157 64.9998 65.9952 64.2376 65.986C64.0195 65.9712 63.7967 65.9731 63.5767 65.9445C62.7722 65.8405 62.2999 65.3784 62.126 64.5886C61.9842 63.936 62.0302 63.287 62.1692 62.6509C62.5522 60.9121 62.5706 59.1465 62.5899 57.3828C62.6019 56.5829 62.7924 56.3417 63.6835 56.373C64.3048 56.3932 64.3849 56.4807 64.3177 57.0809C64.2385 57.8274 64.7909 58.3861 65.6359 58.4672C66.573 58.5592 67.1695 58.0262 67.72 57.3901C67.835 57.2558 67.916 57.0937 68.0182 56.9465C68.264 56.5902 68.75 56.6105 68.9194 57.0109C69.0197 57.2521 69.0731 57.5448 69.0437 57.8035C68.97 58.399 69.2121 58.8584 69.6144 59.2349C70.0645 59.6555 70.5395 60.0597 71.0412 60.4177C71.6165 60.8292 71.6874 61.4183 71.1296 61.8703ZM56.3755 45.382C57.18 45.5237 57.9118 45.3424 58.5875 44.8766C58.9492 44.6271 59.3248 44.3768 59.7308 44.2203C60.3447 43.9828 60.6623 43.5824 60.7084 42.9316C60.7489 42.3958 60.6494 42.1961 60.1367 41.9917C59.8845 41.8895 59.6231 41.803 59.3138 41.6916C59.7372 41.5462 59.9857 41.3142 60.0235 40.9083C60.0575 40.5216 59.9416 40.1764 59.6857 39.892C59.4482 39.6333 59.1269 39.649 58.8314 39.7502C58.5 39.8635 58.4071 40.1746 58.3813 40.4857C58.3583 40.7591 58.3767 41.0353 58.3767 41.3105C57.5482 40.7877 56.6811 40.8374 55.7992 41.1761C55.7642 40.8613 55.7624 40.5428 55.6832 40.2446C55.5893 39.8846 55.2488 39.6711 54.9551 39.7199C54.6716 39.7659 54.4847 40.0485 54.4709 40.4434C54.4516 40.9773 54.6992 41.3888 55.0803 41.7542C54.8833 41.9227 54.6974 42.0755 54.5179 42.2338C53.9232 42.7539 53.8763 43.3126 54.4332 43.888C54.8787 44.3464 55.3666 44.7671 55.8554 45.1804C55.9935 45.2945 56.1969 45.3525 56.3755 45.382ZM59.3248 39.9445C59.4242 40.0126 59.5448 40.0651 59.6157 40.1562C59.6626 40.2151 59.636 40.3302 59.6461 40.4222C59.6129 40.4287 59.5798 40.436 59.5467 40.4434C59.4491 40.309 59.3487 40.1737 59.2503 40.0393C59.276 40.0061 59.3009 39.9739 59.3248 39.9445ZM57.2417 41.2875C57.4018 41.3105 57.5685 41.3142 57.7185 41.3685C57.7765 41.3897 57.794 41.5232 57.8299 41.6078C57.7995 41.6309 57.7691 41.6557 57.7378 41.6796C57.5602 41.5913 57.3825 41.5066 57.2058 41.4182C57.2168 41.3722 57.2297 41.3298 57.2417 41.2875ZM56.0137 41.3888C56.0947 41.3455 56.2061 41.3565 56.3027 41.3418C56.3156 41.3722 56.3258 41.4007 56.3377 41.4302C56.2622 41.4909 56.195 41.5738 56.1085 41.606C56.0321 41.6345 55.9345 41.6078 55.8462 41.6042C55.9005 41.5305 55.941 41.4302 56.0137 41.3888ZM55.0683 40.0595C55.0849 40.0374 55.1006 40.0144 55.1171 39.9933C55.199 40.0255 55.3279 40.0393 55.3537 40.0936C55.4117 40.228 55.42 40.3845 55.4494 40.5327C55.4117 40.5327 55.3758 40.5327 55.339 40.5308C55.2488 40.3734 55.1595 40.2151 55.0683 40.0595ZM54.181 43.2924C54.2123 43.2639 54.2435 43.2344 54.2748 43.2059C54.3715 43.2731 54.4783 43.3338 54.5657 43.4148C55.5369 44.2994 56.624 44.3261 57.7535 43.807C58.4374 43.4903 59.0827 43.0917 59.7519 42.741C59.8909 42.6674 60.0557 42.6453 60.2094 42.5974C60.2251 42.6315 60.2361 42.6637 60.2509 42.6977C60.1993 42.7567 60.1588 42.834 60.0944 42.8736C59.1582 43.4507 58.2515 44.0978 57.1551 44.3464C56.1417 44.5747 55.2138 44.4025 54.4461 43.6486C54.3393 43.5492 54.2675 43.4111 54.181 43.2924ZM61.8875 60.7758C61.7264 62.0489 61.5746 63.2529 61.4172 64.5012C59.5006 64.0197 57.5096 64.4487 55.5488 64.4441C55.5056 63.8991 55.4614 63.345 55.4172 62.7862C57.8188 63.0808 60.0161 62.5395 61.8875 60.7758ZM53.5347 58.4579C53.8496 58.7175 54.1616 58.9854 54.4571 59.2671C54.7351 59.5331 54.8106 59.8802 54.7655 60.2511C54.7277 60.5669 54.4341 60.8476 54.123 60.8347C54.03 60.831 53.9195 60.7114 53.8597 60.6193C53.1675 59.5423 52.4854 58.4579 51.794 57.3809C51.6357 57.1333 51.4544 56.9014 51.2822 56.6639C51.2905 56.651 51.2979 56.639 51.3053 56.6261C52.05 57.2364 52.7956 57.843 53.5347 58.4579Z" fill="#2A334F"/>
</g>
<defs>
<filter id="filter0_d" x="0" y="0.333333" width="117" height="109" filterUnits="userSpaceOnUse" color-interpolation-filters="sRGB">
<feFlood flood-opacity="0" result="BackgroundImageFix"/>
<feColorMatrix in="SourceAlpha" type="matrix" values="0 0 0 0 0 0 0 0 0 0 0 0 0 0 0 0 0 0 127 0"/>
<feOffset dy="4.33333"/>
<feGaussianBlur stdDeviation="6.5"/>
<feColorMatrix type="matrix" values="0 0 0 0 0.839216 0 0 0 0 0.85098 0 0 0 0 0.870588 0 0 0 0.45 0"/>
<feBlend mode="normal" in2="BackgroundImageFix" result="effect1_dropShadow"/>
<feBlend mode="normal" in="SourceGraphic" in2="effect1_dropShadow" result="shape"/>
</filter>
<clipPath id="clip0">
<rect width="32" height="32" fill="white" transform="translate(42 34)"/>
</clipPath>
</defs>
</svg>
