<svg width="117" height="110" viewBox="0 0 117 110" fill="none" xmlns="http://www.w3.org/2000/svg">
<g filter="url(#filter0_d)">
<rect x="13" y="9" width="91" height="83" rx="10" fill="white"/>
</g>
<path d="M65.3334 53.6666C64.9601 53.6666 64.6667 53.3611 64.6667 52.9722V43.25C64.6667 42.8611 64.9601 42.5555 65.3334 42.5555C65.7067 42.5555 66.0001 42.875 66.0001 43.25V52.9722C66.0001 53.3611 65.7067 53.6666 65.3334 53.6666Z" fill="#2A334F"/>
<path d="M70.6667 52.2778H45.3333C43.4933 52.2778 42 53.8333 42 55.75V58.5278C42 60.4444 43.4933 62 45.3333 62H70.6667C72.5067 62 74 60.4444 74 58.5278V55.75C74 53.8333 72.5067 52.2778 70.6667 52.2778ZM46.6667 57.8333C46.2933 57.8333 46 57.5278 46 57.1389C46 56.75 46.2933 56.4444 46.6667 56.4444C47.04 56.4444 47.3333 56.7639 47.3333 57.1389C47.3333 57.5139 47.04 57.8333 46.6667 57.8333ZM50.6667 57.8333C50.2933 57.8333 50 57.5278 50 57.1389C50 56.75 50.2933 56.4444 50.6667 56.4444C51.04 56.4444 51.3333 56.7639 51.3333 57.1389C51.3333 57.5139 51.04 57.8333 50.6667 57.8333ZM54.6667 57.8333C54.2933 57.8333 54 57.5278 54 57.1389C54 56.75 54.2933 56.4444 54.6667 56.4444C55.04 56.4444 55.3333 56.75 55.3333 57.1389C55.3333 57.5278 55.04 57.8333 54.6667 57.8333ZM58.6667 57.8333C58.2933 57.8333 58 57.5278 58 57.1389C58 56.75 58.2933 56.4444 58.6667 56.4444C59.04 56.4444 59.3333 56.75 59.3333 57.1389C59.3333 57.5278 59.04 57.8333 58.6667 57.8333ZM69.3333 57.8333H62.6667C62.2933 57.8333 62 57.5278 62 57.1389C62 56.75 62.2933 56.4444 62.6667 56.4444H69.3333C69.7067 56.4444 70 56.75 70 57.1389C70 57.5278 69.7067 57.8333 69.3333 57.8333Z" fill="#2A334F"/>
<path d="M63.4533 45.9166C63.28 45.9166 63.1067 45.8472 62.9867 45.7083C62.3467 45.0555 62 44.1805 62 43.25C62 42.3194 62.3467 41.4444 62.9733 40.7916C63.2267 40.5139 63.6533 40.5139 63.92 40.7916C64.1867 41.0694 64.1733 41.5 63.92 41.7777C63.5467 42.1666 63.3333 42.6944 63.3333 43.25C63.3333 43.8055 63.5467 44.3333 63.92 44.7222C64.1733 44.9861 64.1733 45.4305 63.92 45.7083C63.7867 45.8472 63.6133 45.9166 63.4533 45.9166Z" fill="#2A334F"/>
<path d="M67.2133 45.9166C67.04 45.9166 66.8666 45.8472 66.7466 45.7083C66.4933 45.4444 66.4933 45 66.7466 44.7222C67.12 44.3333 67.3333 43.8055 67.3333 43.25C67.3333 42.6944 67.12 42.1666 66.7466 41.7777C66.4933 41.5 66.4933 41.0694 66.7466 40.7916C67 40.5139 67.4266 40.5139 67.6933 40.7916C68.32 41.4583 68.6666 42.3194 68.6666 43.25C68.6666 44.1805 68.32 45.0555 67.6933 45.7083C67.56 45.8472 67.3866 45.9166 67.2133 45.9166Z" fill="#2A334F"/>
<path d="M61.56 47.875C61.3867 47.875 61.2133 47.8055 61.0933 47.6666C58.76 45.2222 58.76 41.2639 61.0933 38.8333C61.3467 38.5555 61.7733 38.5555 62.04 38.8333C62.3067 39.1111 62.2933 39.5416 62.04 39.8194C60.2267 41.7083 60.2267 44.7916 62.04 46.6944C62.2933 46.9583 62.2933 47.4027 62.04 47.6805C61.9067 47.8055 61.7333 47.875 61.56 47.875Z" fill="#2A334F"/>
<path d="M69.1066 47.875C68.9333 47.875 68.76 47.8055 68.64 47.6666C68.3866 47.4028 68.3866 46.9583 68.64 46.6805C70.4533 44.7916 70.4533 41.7083 68.64 39.8055C68.3866 39.5278 68.3866 39.0972 68.64 38.8194C68.8933 38.5416 69.32 38.5416 69.5866 38.8194C71.92 41.2639 71.92 45.2222 69.5866 47.6528C69.44 47.8055 69.28 47.875 69.1066 47.875Z" fill="#2A334F"/>
<path d="M59.6802 49.8333C59.5068 49.8333 59.3335 49.7639 59.2135 49.625C55.8402 46.1111 55.8402 40.375 59.2135 36.8611C59.4668 36.5972 59.8935 36.5972 60.1602 36.8611C60.4268 37.125 60.4135 37.5694 60.1602 37.8472C57.3068 40.8333 57.3068 45.6666 60.1602 48.6528C60.4135 48.9166 60.4135 49.3611 60.1602 49.6389C60.0135 49.7778 59.8535 49.8333 59.6802 49.8333Z" fill="#2A334F"/>
<path d="M70.9867 49.8333C70.8134 49.8333 70.6401 49.7639 70.5201 49.625C70.2667 49.3611 70.2667 48.9166 70.5201 48.6389C73.3867 45.6666 73.3867 40.8194 70.5201 37.8333C70.2667 37.5694 70.2667 37.125 70.5201 36.8472C70.7734 36.5694 71.2001 36.5833 71.4667 36.8472C74.8401 40.3611 74.8401 46.0972 71.4667 49.6111C71.3334 49.7778 71.1601 49.8333 70.9867 49.8333Z" fill="#2A334F"/>
<defs>
<filter id="filter0_d" x="0" y="0.333333" width="117" height="109" filterUnits="userSpaceOnUse" color-interpolation-filters="sRGB">
<feFlood flood-opacity="0" result="BackgroundImageFix"/>
<feColorMatrix in="SourceAlpha" type="matrix" values="0 0 0 0 0 0 0 0 0 0 0 0 0 0 0 0 0 0 127 0"/>
<feOffset dy="4.33333"/>
<feGaussianBlur stdDeviation="6.5"/>
<feColorMatrix type="matrix" values="0 0 0 0 0.839216 0 0 0 0 0.85098 0 0 0 0 0.870588 0 0 0 0.45 0"/>
<feBlend mode="normal" in2="BackgroundImageFix" result="effect1_dropShadow"/>
<feBlend mode="normal" in="SourceGraphic" in2="effect1_dropShadow" result="shape"/>
</filter>
</defs>
</svg>
