<svg width="44" height="44" viewBox="0 0 44 44" fill="none" xmlns="http://www.w3.org/2000/svg">
<circle opacity="0.1" cx="22" cy="22" r="22" fill="#3C74FE"/>
<path d="M33.2445 17.0961C32.0497 15.7444 30.3648 15 28.5 15C26.2005 15 24.4696 16.3232 23.2567 17.791C23.7176 18.498 24.0766 19.1748 24.3385 19.7239C25.2702 18.3834 26.6654 17.029 28.5 17.029C31.0894 17.029 32.9688 19.1196 32.9688 22C32.9688 24.8804 31.0894 26.971 28.5 26.971C24.7983 26.971 22.9805 21.7294 22.9631 21.6779L22.9581 21.6634C22.8623 21.3913 20.5539 15 15.5 15C13.6352 15 11.9503 15.7444 10.7555 17.0961C9.62344 18.3768 9 20.1184 9 22C9 23.8816 9.62344 25.6232 10.7555 26.9039C11.9503 28.2556 13.6352 29 15.5 29C17.8184 29 19.5405 27.7101 20.7429 26.2634C20.2831 25.5565 19.9271 24.8789 19.6657 24.3209C18.7464 25.6455 17.3615 26.971 15.5 26.971C12.9106 26.971 11.0312 24.8804 11.0312 22C11.0312 19.1196 12.9106 17.029 15.5 17.029C19.0726 17.029 20.9797 22.1656 21.0405 22.3328C21.1755 22.7301 23.3891 29 28.5 29C30.3648 29 32.0497 28.2556 33.2445 26.9039C34.3766 25.6232 35 23.8816 35 22C35 20.1184 34.3766 18.3768 33.2445 17.0961Z" fill="url(#paint0_linear)"/>
<defs>
<linearGradient id="paint0_linear" x1="22" y1="15" x2="22" y2="29" gradientUnits="userSpaceOnUse">
<stop stop-color="#5796FD"/>
<stop offset="1" stop-color="#2F64FF"/>
</linearGradient>
</defs>
</svg>
