<svg width="44" height="44" viewBox="0 0 44 44" fill="none" xmlns="http://www.w3.org/2000/svg">
<circle opacity="0.1" cx="22" cy="22" r="22" fill="#3C74FE"/>
<path d="M25.3303 28.3071L33.9503 16.7452C34.026 16.6475 34.0138 16.5108 33.923 16.4398L32.607 15.4119C32.5162 15.3409 32.3811 15.3626 32.3053 15.4602L23.6854 27.0222L23.1856 27.8853L22.7122 29.6693C22.6635 29.8532 22.8461 29.9958 23.0117 29.9033L24.6191 29.0051L25.3303 28.3071Z" fill="url(#paint0_linear)"/>
<path d="M16.5418 12C16.5418 11.4477 16.9807 11 17.522 11H22.423C22.9643 11 23.4031 11.4477 23.4031 12V14C23.4031 14.5523 22.9643 15 22.423 15H17.522C16.9807 15 16.5418 14.5523 16.5418 14V12Z" fill="url(#paint1_linear)"/>
<path fill-rule="evenodd" clip-rule="evenodd" d="M27.9446 14.9V20.5231L23.2023 26.6712L22.5895 27.6951L22.0415 29.7117C21.8823 30.2979 22.5203 30.7694 23.0703 30.4721L24.9623 29.4488L25.844 28.6129L27.9446 25.8896V31.1C27.9446 31.5971 27.5247 32 27.0067 32H12.9379C12.42 32 12 31.5971 12 31.1V14.9C12 14.4029 12.42 14 12.9379 14H15.7517V14.9C15.7517 15.3971 16.1716 15.8 16.6896 15.8H23.255C23.773 15.8 24.1929 15.3971 24.1929 14.9V14H27.0067C27.5247 14 27.9446 14.4029 27.9446 14.9ZM15.4426 18C15.1925 18 14.9897 18.2239 14.9897 18.5C14.9897 18.7761 15.1925 19 15.4426 19H24.5021C24.7523 19 24.9551 18.7761 24.9551 18.5C24.9551 18.2239 24.7523 18 24.5021 18H15.4426ZM14.9897 21.5C14.9897 21.2239 15.1925 21 15.4426 21H24.5021C24.7523 21 24.9551 21.2239 24.9551 21.5C24.9551 21.7761 24.7523 22 24.5021 22H15.4426C15.1925 22 14.9897 21.7761 14.9897 21.5ZM15.4257 24C15.1849 24 14.9897 24.2239 14.9897 24.5C14.9897 24.7761 15.1849 25 15.4257 25H21.5295C21.7702 25 21.9654 24.7761 21.9654 24.5C21.9654 24.2239 21.7702 24 21.5295 24H15.4257Z" fill="url(#paint2_linear)"/>
<defs>
<linearGradient id="paint0_linear" x1="28.3521" y1="15.3701" x2="28.3521" y2="29.9323" gradientUnits="userSpaceOnUse">
<stop stop-color="#5796FD"/>
<stop offset="1" stop-color="#2F64FF"/>
</linearGradient>
<linearGradient id="paint1_linear" x1="19.9725" y1="11" x2="19.9725" y2="15" gradientUnits="userSpaceOnUse">
<stop stop-color="#5796FD"/>
<stop offset="1" stop-color="#2F64FF"/>
</linearGradient>
<linearGradient id="paint2_linear" x1="19.9723" y1="14" x2="19.9723" y2="32" gradientUnits="userSpaceOnUse">
<stop stop-color="#5796FD"/>
<stop offset="1" stop-color="#2F64FF"/>
</linearGradient>
</defs>
</svg>
